G75*
%MOIN*%
%OFA0B0*%
%FSLAX25Y25*%
%IPPOS*%
%LPD*%
%AMOC8*
5,1,8,0,0,1.08239X$1,22.5*
%
%ADD10OC8,0.06000*%
%ADD11C,0.06000*%
%ADD12R,0.11811X0.03937*%
%ADD13C,0.00600*%
%ADD14C,0.02700*%
D10*
X0302306Y0095182D03*
X0312306Y0095182D03*
X0322306Y0095182D03*
X0322306Y0105182D03*
X0312306Y0105182D03*
X0302306Y0105182D03*
X0431473Y0106800D03*
X0441473Y0106800D03*
X0441473Y0096800D03*
X0431473Y0096800D03*
X0431473Y0086800D03*
X0441473Y0086800D03*
X0441473Y0076800D03*
X0431473Y0076800D03*
X0431473Y0066800D03*
X0441473Y0066800D03*
X0441473Y0056800D03*
X0431473Y0056800D03*
X0431473Y0046800D03*
X0441473Y0046800D03*
D11*
X0104825Y0101359D02*
X0104825Y0107359D01*
X0094825Y0107359D02*
X0094825Y0101359D01*
D12*
X0247317Y0077906D03*
X0247317Y0067906D03*
X0247317Y0057906D03*
X0247317Y0047906D03*
D13*
X0102695Y0043433D02*
X0056195Y0089933D01*
X0062195Y0089933D02*
X0105995Y0046133D01*
X0169295Y0046133D01*
X0169295Y0045833D01*
X0186095Y0062633D01*
X0184595Y0057833D02*
X0170195Y0043433D01*
X0102695Y0043433D01*
X0108095Y0056033D02*
X0078995Y0085133D01*
X0067895Y0087533D02*
X0120695Y0087533D01*
X0134495Y0101333D01*
X0136895Y0104033D02*
X0136895Y0082433D01*
X0132395Y0077933D01*
X0132395Y0061733D01*
X0131195Y0058433D02*
X0138995Y0058433D01*
X0181295Y0100733D01*
X0187295Y0100733D01*
X0203495Y0100733D01*
X0221945Y0082283D01*
X0221795Y0082133D01*
X0221795Y0080933D01*
X0221945Y0082283D02*
X0231095Y0091433D01*
X0231095Y0095033D01*
X0244595Y0108533D01*
X0279995Y0108533D01*
X0287495Y0101033D01*
X0293795Y0101033D01*
X0298295Y0101033D02*
X0302195Y0104933D01*
X0302306Y0105182D01*
X0298295Y0101033D02*
X0298295Y0092633D01*
X0298445Y0092483D01*
X0298295Y0092333D01*
X0296195Y0092333D01*
X0298445Y0092483D02*
X0308795Y0082133D01*
X0308795Y0076433D01*
X0305795Y0073433D01*
X0302495Y0073433D01*
X0299195Y0070133D02*
X0297545Y0071783D01*
X0294395Y0068633D01*
X0294395Y0066833D01*
X0295895Y0065333D01*
X0297695Y0065333D01*
X0300395Y0062633D01*
X0300395Y0058733D01*
X0310295Y0048833D01*
X0311495Y0048833D01*
X0314495Y0045833D01*
X0336695Y0045833D01*
X0339095Y0048233D01*
X0375395Y0048233D01*
X0383795Y0056633D01*
X0431195Y0056633D01*
X0431473Y0056800D01*
X0435395Y0058433D02*
X0435395Y0050933D01*
X0431495Y0047033D01*
X0431473Y0046800D01*
X0435395Y0058433D02*
X0432995Y0060833D01*
X0428195Y0060833D01*
X0409595Y0079433D01*
X0409595Y0080933D01*
X0408695Y0083333D02*
X0416795Y0083333D01*
X0424595Y0075533D01*
X0429995Y0075533D01*
X0431195Y0076733D01*
X0431473Y0076800D01*
X0435395Y0078533D02*
X0435395Y0074933D01*
X0431495Y0071033D01*
X0431495Y0066833D01*
X0431473Y0066800D01*
X0429095Y0071633D02*
X0420695Y0071633D01*
X0425495Y0077933D02*
X0418895Y0084533D01*
X0408095Y0084533D01*
X0387995Y0064433D01*
X0368795Y0064433D01*
X0359795Y0055433D01*
X0332795Y0055433D01*
X0330395Y0056333D02*
X0330395Y0053033D01*
X0323795Y0053033D02*
X0333995Y0063233D01*
X0336395Y0062333D02*
X0330395Y0056333D01*
X0335195Y0057833D02*
X0336995Y0057833D01*
X0345095Y0065933D01*
X0345095Y0066533D01*
X0347195Y0068633D01*
X0385595Y0068633D01*
X0400595Y0083633D01*
X0403895Y0083633D01*
X0408695Y0083333D02*
X0379595Y0054233D01*
X0341495Y0054233D01*
X0337895Y0050633D01*
X0317195Y0050633D01*
X0313295Y0054533D01*
X0312095Y0054533D01*
X0309695Y0053633D02*
X0311195Y0052133D01*
X0311195Y0051233D01*
X0309695Y0053633D02*
X0309695Y0055433D01*
X0311195Y0056933D01*
X0312995Y0056933D01*
X0315095Y0054833D01*
X0315095Y0054533D01*
X0316595Y0053033D01*
X0323795Y0053033D01*
X0321395Y0057833D02*
X0318695Y0060533D01*
X0315995Y0060533D01*
X0312995Y0060233D02*
X0312995Y0075233D01*
X0309995Y0078233D01*
X0309995Y0084233D01*
X0305195Y0089033D01*
X0302495Y0095033D02*
X0312995Y0084533D01*
X0312995Y0078533D01*
X0306395Y0078833D02*
X0306395Y0077333D01*
X0306395Y0078833D02*
X0279095Y0106133D01*
X0278795Y0102833D02*
X0280295Y0101333D01*
X0280295Y0099533D01*
X0274745Y0093983D01*
X0276695Y0092033D01*
X0276695Y0089333D01*
X0289895Y0076133D01*
X0289895Y0069533D01*
X0295295Y0064133D01*
X0295595Y0064133D01*
X0297995Y0061733D01*
X0298595Y0067733D02*
X0308495Y0057833D01*
X0310595Y0060533D02*
X0310595Y0062033D01*
X0291395Y0081233D01*
X0291395Y0082433D01*
X0291695Y0077633D02*
X0297545Y0071783D01*
X0296795Y0067733D02*
X0298595Y0067733D01*
X0287495Y0069833D02*
X0277295Y0069833D01*
X0258995Y0051533D01*
X0232895Y0051533D01*
X0214595Y0069833D01*
X0194795Y0069833D01*
X0205895Y0083933D02*
X0211295Y0078533D01*
X0222695Y0078533D01*
X0225395Y0081233D01*
X0228095Y0081233D01*
X0231995Y0081833D02*
X0219695Y0069533D01*
X0218195Y0069533D01*
X0220595Y0067133D02*
X0240695Y0087233D01*
X0240695Y0089333D01*
X0238295Y0090233D02*
X0238295Y0088133D01*
X0231995Y0081833D01*
X0240395Y0080333D02*
X0240395Y0065333D01*
X0242945Y0062783D01*
X0238895Y0058733D01*
X0233795Y0058733D01*
X0242945Y0062783D02*
X0245195Y0065033D01*
X0253595Y0065033D01*
X0259295Y0070733D01*
X0259295Y0071933D01*
X0266495Y0079133D01*
X0265595Y0082433D02*
X0261995Y0082433D01*
X0247595Y0068033D01*
X0247317Y0067906D01*
X0246995Y0062033D02*
X0249245Y0059783D01*
X0250595Y0061133D01*
X0258395Y0061133D01*
X0261695Y0064433D01*
X0261695Y0070733D01*
X0268595Y0064733D02*
X0279095Y0075233D01*
X0286895Y0075233D01*
X0273695Y0073133D02*
X0273395Y0073133D01*
X0273395Y0092033D01*
X0274745Y0093983D02*
X0274295Y0094433D01*
X0268295Y0094433D01*
X0256895Y0083033D01*
X0253595Y0083033D02*
X0249095Y0083033D01*
X0245495Y0085433D02*
X0240395Y0080333D01*
X0245495Y0085433D02*
X0254195Y0085433D01*
X0267095Y0098333D01*
X0273395Y0098333D01*
X0273995Y0095633D02*
X0277895Y0099533D01*
X0277895Y0100433D01*
X0278795Y0102833D02*
X0261095Y0102833D01*
X0261095Y0095633D01*
X0266195Y0095633D02*
X0253595Y0083033D01*
X0247595Y0077633D02*
X0247317Y0077906D01*
X0247595Y0077633D02*
X0249995Y0075233D01*
X0249995Y0073733D01*
X0254495Y0053933D02*
X0273695Y0073133D01*
X0249245Y0059783D02*
X0247595Y0058133D01*
X0247317Y0057906D01*
X0254495Y0053933D02*
X0233795Y0053933D01*
X0247317Y0047906D02*
X0247595Y0047633D01*
X0249995Y0045233D01*
X0311795Y0045233D01*
X0326795Y0048233D02*
X0337295Y0048233D01*
X0340895Y0051833D01*
X0368495Y0051833D01*
X0376295Y0045833D02*
X0380195Y0049733D01*
X0376295Y0045833D02*
X0342995Y0045833D01*
X0364295Y0056633D02*
X0365195Y0056633D01*
X0369695Y0061133D01*
X0374795Y0061133D01*
X0378695Y0056633D02*
X0368495Y0056633D01*
X0385895Y0065633D02*
X0391895Y0071633D01*
X0381095Y0071033D02*
X0396095Y0086033D01*
X0419195Y0086033D01*
X0424895Y0080333D01*
X0427895Y0080333D01*
X0431195Y0082733D02*
X0424295Y0082733D01*
X0419795Y0087233D01*
X0392495Y0087233D01*
X0387395Y0082133D01*
X0363695Y0082133D01*
X0352295Y0093533D01*
X0327995Y0093533D01*
X0324095Y0089633D01*
X0318995Y0089633D01*
X0320795Y0091133D02*
X0317795Y0094133D01*
X0317795Y0099533D01*
X0312395Y0104933D01*
X0312306Y0105182D01*
X0316295Y0105533D02*
X0316295Y0106733D01*
X0313295Y0109733D01*
X0192995Y0109733D01*
X0187295Y0104033D01*
X0136895Y0104033D01*
X0110495Y0104033D01*
X0110495Y0106733D01*
X0110495Y0104033D02*
X0110495Y0096533D01*
X0108995Y0095033D01*
X0076895Y0095033D01*
X0074195Y0097733D01*
X0068495Y0103433D01*
X0068195Y0103433D01*
X0062195Y0103133D02*
X0062195Y0089933D01*
X0094825Y0104359D02*
X0094895Y0104333D01*
X0096095Y0104333D01*
X0102995Y0097433D01*
X0108095Y0097433D01*
X0140195Y0057833D02*
X0138395Y0056033D01*
X0108095Y0056033D01*
X0140195Y0057833D02*
X0150395Y0057833D01*
X0238295Y0090233D02*
X0250895Y0102833D01*
X0261095Y0102833D01*
X0266195Y0095633D02*
X0273995Y0095633D01*
X0302306Y0095182D02*
X0302495Y0095033D01*
X0307295Y0095933D02*
X0310595Y0099233D01*
X0313895Y0099233D01*
X0316595Y0096533D01*
X0316595Y0088733D01*
X0318095Y0087233D01*
X0331895Y0087233D01*
X0339695Y0079433D01*
X0339695Y0075233D01*
X0334295Y0073133D02*
X0332495Y0074933D01*
X0332495Y0083333D01*
X0330095Y0080933D02*
X0321995Y0072833D01*
X0319595Y0073733D02*
X0319595Y0069533D01*
X0321095Y0068033D01*
X0320495Y0065333D02*
X0315395Y0070433D01*
X0315395Y0092033D01*
X0312395Y0095033D01*
X0312306Y0095182D01*
X0320795Y0091133D02*
X0323795Y0091133D01*
X0328595Y0095933D01*
X0344795Y0095933D01*
X0351695Y0095933D01*
X0363695Y0083933D01*
X0367295Y0083933D01*
X0367895Y0084533D01*
X0382295Y0084533D01*
X0380795Y0086333D02*
X0381995Y0087533D01*
X0390995Y0087533D01*
X0391895Y0088433D01*
X0422495Y0088433D01*
X0424295Y0086633D01*
X0431195Y0086633D01*
X0431473Y0086800D01*
X0432995Y0090833D02*
X0437495Y0086333D01*
X0437495Y0080933D01*
X0441395Y0077033D01*
X0441473Y0076800D01*
X0435395Y0078533D02*
X0431195Y0082733D01*
X0436295Y0092033D02*
X0441395Y0086933D01*
X0441473Y0086800D01*
X0436295Y0092033D02*
X0430595Y0092033D01*
X0424295Y0098333D01*
X0400895Y0098333D01*
X0399395Y0093533D02*
X0393695Y0099233D01*
X0387395Y0101633D02*
X0387395Y0095033D01*
X0382295Y0089933D01*
X0381395Y0089933D01*
X0380795Y0086333D02*
X0366395Y0086333D01*
X0366695Y0093233D02*
X0381395Y0093233D01*
X0384995Y0095933D02*
X0381695Y0099233D01*
X0329195Y0099233D01*
X0322295Y0099533D02*
X0322295Y0095333D01*
X0322306Y0095182D01*
X0322295Y0099533D02*
X0316295Y0105533D01*
X0322306Y0105182D02*
X0322595Y0104933D01*
X0376595Y0104933D01*
X0379895Y0101633D01*
X0387395Y0101633D01*
X0436595Y0101633D01*
X0441395Y0096833D01*
X0441473Y0096800D01*
X0432995Y0090833D02*
X0429995Y0090833D01*
X0424895Y0095933D01*
X0407195Y0095933D01*
X0399395Y0093533D02*
X0419195Y0093533D01*
X0423695Y0089033D01*
X0425195Y0089033D01*
X0401495Y0104033D02*
X0380795Y0104033D01*
X0347795Y0091133D02*
X0347795Y0075233D01*
X0342095Y0069533D01*
X0339095Y0068333D02*
X0334295Y0073133D01*
X0339095Y0068333D02*
X0339095Y0063233D01*
X0336395Y0062333D02*
X0336395Y0064133D01*
X0334895Y0065633D01*
X0333095Y0065633D01*
X0330395Y0062933D01*
X0318395Y0062933D01*
X0320495Y0065333D02*
X0323495Y0065333D01*
X0317795Y0055433D02*
X0312995Y0060233D01*
X0319595Y0073733D02*
X0322895Y0077033D01*
X0322895Y0084833D01*
X0345395Y0088733D02*
X0345395Y0076133D01*
X0347495Y0065633D02*
X0385895Y0065633D01*
X0431195Y0107033D02*
X0327695Y0107033D01*
X0325595Y0109133D01*
X0431195Y0107033D02*
X0431473Y0106800D01*
D14*
X0407195Y0095933D03*
X0400895Y0098333D03*
X0401495Y0104033D03*
X0393695Y0099233D03*
X0384995Y0095933D03*
X0381395Y0093233D03*
X0381395Y0089933D03*
X0382295Y0084533D03*
X0366395Y0086333D03*
X0366695Y0093233D03*
X0347795Y0091133D03*
X0345395Y0088733D03*
X0344795Y0095933D03*
X0329195Y0099233D03*
X0325595Y0109133D03*
X0307295Y0095933D03*
X0296195Y0092333D03*
X0305195Y0089033D03*
X0318995Y0089633D03*
X0322895Y0084833D03*
X0330095Y0080933D03*
X0332495Y0083333D03*
X0339695Y0075233D03*
X0334295Y0073133D03*
X0342095Y0069533D03*
X0347495Y0065633D03*
X0339095Y0063233D03*
X0333995Y0063233D03*
X0323495Y0065333D03*
X0321095Y0068033D03*
X0318395Y0062933D03*
X0315995Y0060533D03*
X0310595Y0060533D03*
X0308495Y0057833D03*
X0312095Y0054533D03*
X0317795Y0055433D03*
X0321395Y0057833D03*
X0330395Y0053033D03*
X0332795Y0055433D03*
X0335195Y0057833D03*
X0326795Y0048233D03*
X0311795Y0045233D03*
X0311195Y0051233D03*
X0297995Y0061733D03*
X0296795Y0067733D03*
X0299195Y0070133D03*
X0302495Y0073433D03*
X0306395Y0077333D03*
X0312995Y0078533D03*
X0321995Y0072833D03*
X0345395Y0076133D03*
X0374795Y0061133D03*
X0378695Y0056633D03*
X0368495Y0056633D03*
X0364295Y0056633D03*
X0368495Y0051833D03*
X0380195Y0049733D03*
X0342995Y0045833D03*
X0287495Y0069833D03*
X0286895Y0075233D03*
X0291695Y0077633D03*
X0291395Y0082433D03*
X0276695Y0092033D03*
X0273395Y0092033D03*
X0261095Y0095633D03*
X0273395Y0098333D03*
X0277895Y0100433D03*
X0279095Y0106133D03*
X0293795Y0101033D03*
X0265595Y0082433D03*
X0266495Y0079133D03*
X0256895Y0083033D03*
X0249095Y0083033D03*
X0240695Y0089333D03*
X0231095Y0095033D03*
X0205895Y0083933D03*
X0221795Y0080933D03*
X0228095Y0081233D03*
X0231995Y0081833D03*
X0249995Y0073733D03*
X0261695Y0070733D03*
X0268595Y0064733D03*
X0258395Y0061133D03*
X0246995Y0062033D03*
X0233795Y0058733D03*
X0233795Y0053933D03*
X0220595Y0067133D03*
X0218195Y0069533D03*
X0194795Y0069833D03*
X0186095Y0062633D03*
X0184595Y0057833D03*
X0169295Y0045833D03*
X0150395Y0057833D03*
X0132395Y0061733D03*
X0131195Y0058433D03*
X0078995Y0085133D03*
X0067895Y0087533D03*
X0056195Y0089933D03*
X0074195Y0097733D03*
X0068195Y0103433D03*
X0062195Y0103133D03*
X0108095Y0097433D03*
X0110495Y0106733D03*
X0134495Y0101333D03*
X0187295Y0100733D03*
X0187295Y0104033D03*
X0273695Y0073133D03*
X0381095Y0071033D03*
X0391895Y0071633D03*
X0409595Y0080933D03*
X0403895Y0083633D03*
X0425195Y0089033D03*
X0427895Y0080333D03*
X0425495Y0077933D03*
X0429095Y0071633D03*
X0420695Y0071633D03*
X0380795Y0104033D03*
M02*
