G75*
%MOIN*%
%OFA0B0*%
%FSLAX25Y25*%
%IPPOS*%
%LPD*%
%AMOC8*
5,1,8,0,0,1.08239X$1,22.5*
%
%ADD10C,0.00000*%
%ADD11C,0.00600*%
%ADD12C,0.00100*%
%ADD13C,0.00300*%
%ADD14C,0.00200*%
%ADD15C,0.00236*%
%ADD16C,0.00800*%
%ADD17R,0.04724X0.02165*%
%ADD18C,0.00500*%
%ADD19R,0.18110X0.03937*%
%ADD20R,0.13386X0.06299*%
%ADD21C,0.00700*%
%ADD22R,0.04528X0.03937*%
%ADD23R,0.05000X0.02200*%
%ADD24R,0.02200X0.05000*%
%ADD25R,0.02283X0.04724*%
%ADD26R,0.07874X0.07874*%
%ADD27OC8,0.06000*%
%ADD28R,0.04724X0.02362*%
%ADD29R,0.06693X0.02756*%
%ADD30R,0.08661X0.02362*%
%ADD31C,0.00750*%
%ADD32R,0.09449X0.16929*%
%ADD33R,0.09449X0.16535*%
%ADD34R,0.02756X0.06693*%
%ADD35R,0.03100X0.03500*%
%ADD36C,0.06000*%
%ADD37R,0.05512X0.05906*%
%ADD38R,0.05118X0.05906*%
%ADD39R,0.02756X0.06890*%
%ADD40R,0.02756X0.08000*%
%ADD41R,0.03150X0.05906*%
%ADD42R,0.05512X0.03937*%
%ADD43R,0.03150X0.05512*%
%ADD44R,0.03937X0.06102*%
%ADD45C,0.00400*%
%ADD46R,0.11811X0.03937*%
%ADD47R,0.03543X0.03150*%
%ADD48C,0.00787*%
%ADD49R,0.03150X0.03543*%
%ADD50R,0.06299X0.07098*%
%ADD51R,0.04803X0.03583*%
%ADD52R,0.05512X0.00787*%
%ADD53R,0.04331X0.03937*%
%ADD54R,0.03937X0.04331*%
%ADD55C,0.02200*%
%ADD56R,0.05906X0.07087*%
%ADD57R,0.05906X0.09843*%
%ADD58R,0.05512X0.01575*%
%ADD59C,0.01200*%
%ADD60C,0.02700*%
D10*
X0032195Y0041333D02*
X0446560Y0041533D01*
X0446560Y0112399D01*
X0436595Y0112233D02*
X0101995Y0112199D01*
X0032195Y0112299D01*
X0032195Y0041333D01*
X0068757Y0056022D02*
X0068757Y0064022D01*
X0064757Y0060022D02*
X0072757Y0060022D01*
X0101964Y0051747D02*
X0109964Y0051747D01*
X0112526Y0051775D02*
X0119896Y0051775D01*
X0116211Y0048090D02*
X0116211Y0055460D01*
X0105964Y0055747D02*
X0105964Y0047747D01*
X0127561Y0045845D02*
X0134089Y0045845D01*
X0130825Y0042581D02*
X0130825Y0049109D01*
X0143360Y0045622D02*
X0150360Y0045622D01*
X0146860Y0042122D02*
X0146860Y0049122D01*
X0162695Y0040933D02*
X0163095Y0040933D01*
X0177407Y0046662D02*
X0177407Y0054662D01*
X0173407Y0050662D02*
X0181407Y0050662D01*
X0201257Y0058593D02*
X0201257Y0066593D01*
X0197257Y0062593D02*
X0205257Y0062593D01*
X0221750Y0061885D02*
X0229683Y0061885D01*
X0225716Y0057919D02*
X0225716Y0065852D01*
X0225591Y0068198D02*
X0225591Y0076198D01*
X0221591Y0072198D02*
X0229591Y0072198D01*
X0248345Y0083468D02*
X0248345Y0090724D01*
X0244717Y0087096D02*
X0251973Y0087096D01*
X0259037Y0087003D02*
X0267037Y0087003D01*
X0272635Y0087003D02*
X0280635Y0087003D01*
X0276635Y0083003D02*
X0276635Y0091003D01*
X0277310Y0096582D02*
X0277310Y0104582D01*
X0273310Y0100582D02*
X0281310Y0100582D01*
X0263037Y0091003D02*
X0263037Y0083003D01*
X0264246Y0072906D02*
X0264248Y0073011D01*
X0264254Y0073116D01*
X0264264Y0073220D01*
X0264278Y0073324D01*
X0264296Y0073428D01*
X0264318Y0073530D01*
X0264343Y0073632D01*
X0264373Y0073733D01*
X0264406Y0073832D01*
X0264443Y0073930D01*
X0264484Y0074027D01*
X0264529Y0074122D01*
X0264577Y0074215D01*
X0264628Y0074307D01*
X0264684Y0074396D01*
X0264742Y0074483D01*
X0264804Y0074568D01*
X0264868Y0074651D01*
X0264936Y0074731D01*
X0265007Y0074808D01*
X0265081Y0074882D01*
X0265158Y0074954D01*
X0265237Y0075023D01*
X0265319Y0075088D01*
X0265403Y0075151D01*
X0265490Y0075210D01*
X0265579Y0075266D01*
X0265670Y0075319D01*
X0265763Y0075368D01*
X0265857Y0075413D01*
X0265953Y0075455D01*
X0266051Y0075493D01*
X0266150Y0075527D01*
X0266251Y0075558D01*
X0266352Y0075584D01*
X0266455Y0075607D01*
X0266558Y0075626D01*
X0266662Y0075641D01*
X0266766Y0075652D01*
X0266871Y0075659D01*
X0266976Y0075662D01*
X0267081Y0075661D01*
X0267186Y0075656D01*
X0267290Y0075647D01*
X0267394Y0075634D01*
X0267498Y0075617D01*
X0267601Y0075596D01*
X0267703Y0075571D01*
X0267804Y0075543D01*
X0267903Y0075510D01*
X0268002Y0075474D01*
X0268099Y0075434D01*
X0268194Y0075391D01*
X0268288Y0075343D01*
X0268380Y0075293D01*
X0268470Y0075239D01*
X0268558Y0075181D01*
X0268643Y0075120D01*
X0268726Y0075056D01*
X0268807Y0074989D01*
X0268885Y0074919D01*
X0268960Y0074845D01*
X0269032Y0074770D01*
X0269102Y0074691D01*
X0269168Y0074610D01*
X0269232Y0074526D01*
X0269292Y0074440D01*
X0269348Y0074352D01*
X0269402Y0074261D01*
X0269452Y0074169D01*
X0269498Y0074075D01*
X0269541Y0073979D01*
X0269580Y0073881D01*
X0269615Y0073783D01*
X0269646Y0073682D01*
X0269674Y0073581D01*
X0269698Y0073479D01*
X0269718Y0073376D01*
X0269734Y0073272D01*
X0269746Y0073168D01*
X0269754Y0073063D01*
X0269758Y0072958D01*
X0269758Y0072854D01*
X0269754Y0072749D01*
X0269746Y0072644D01*
X0269734Y0072540D01*
X0269718Y0072436D01*
X0269698Y0072333D01*
X0269674Y0072231D01*
X0269646Y0072130D01*
X0269615Y0072029D01*
X0269580Y0071931D01*
X0269541Y0071833D01*
X0269498Y0071737D01*
X0269452Y0071643D01*
X0269402Y0071551D01*
X0269348Y0071460D01*
X0269292Y0071372D01*
X0269232Y0071286D01*
X0269168Y0071202D01*
X0269102Y0071121D01*
X0269032Y0071042D01*
X0268960Y0070967D01*
X0268885Y0070893D01*
X0268807Y0070823D01*
X0268726Y0070756D01*
X0268643Y0070692D01*
X0268558Y0070631D01*
X0268470Y0070573D01*
X0268380Y0070519D01*
X0268288Y0070469D01*
X0268194Y0070421D01*
X0268099Y0070378D01*
X0268002Y0070338D01*
X0267903Y0070302D01*
X0267804Y0070269D01*
X0267703Y0070241D01*
X0267601Y0070216D01*
X0267498Y0070195D01*
X0267394Y0070178D01*
X0267290Y0070165D01*
X0267186Y0070156D01*
X0267081Y0070151D01*
X0266976Y0070150D01*
X0266871Y0070153D01*
X0266766Y0070160D01*
X0266662Y0070171D01*
X0266558Y0070186D01*
X0266455Y0070205D01*
X0266352Y0070228D01*
X0266251Y0070254D01*
X0266150Y0070285D01*
X0266051Y0070319D01*
X0265953Y0070357D01*
X0265857Y0070399D01*
X0265763Y0070444D01*
X0265670Y0070493D01*
X0265579Y0070546D01*
X0265490Y0070602D01*
X0265403Y0070661D01*
X0265319Y0070724D01*
X0265237Y0070789D01*
X0265158Y0070858D01*
X0265081Y0070930D01*
X0265007Y0071004D01*
X0264936Y0071081D01*
X0264868Y0071161D01*
X0264804Y0071244D01*
X0264742Y0071329D01*
X0264684Y0071416D01*
X0264628Y0071505D01*
X0264577Y0071597D01*
X0264529Y0071690D01*
X0264484Y0071785D01*
X0264443Y0071882D01*
X0264406Y0071980D01*
X0264373Y0072079D01*
X0264343Y0072180D01*
X0264318Y0072282D01*
X0264296Y0072384D01*
X0264278Y0072488D01*
X0264264Y0072592D01*
X0264254Y0072696D01*
X0264248Y0072801D01*
X0264246Y0072906D01*
X0267002Y0066906D02*
X0267002Y0058906D01*
X0260375Y0058493D02*
X0260375Y0066493D01*
X0263002Y0062906D02*
X0271002Y0062906D01*
X0264375Y0062493D02*
X0256375Y0062493D01*
X0264246Y0052906D02*
X0264248Y0053011D01*
X0264254Y0053116D01*
X0264264Y0053220D01*
X0264278Y0053324D01*
X0264296Y0053428D01*
X0264318Y0053530D01*
X0264343Y0053632D01*
X0264373Y0053733D01*
X0264406Y0053832D01*
X0264443Y0053930D01*
X0264484Y0054027D01*
X0264529Y0054122D01*
X0264577Y0054215D01*
X0264628Y0054307D01*
X0264684Y0054396D01*
X0264742Y0054483D01*
X0264804Y0054568D01*
X0264868Y0054651D01*
X0264936Y0054731D01*
X0265007Y0054808D01*
X0265081Y0054882D01*
X0265158Y0054954D01*
X0265237Y0055023D01*
X0265319Y0055088D01*
X0265403Y0055151D01*
X0265490Y0055210D01*
X0265579Y0055266D01*
X0265670Y0055319D01*
X0265763Y0055368D01*
X0265857Y0055413D01*
X0265953Y0055455D01*
X0266051Y0055493D01*
X0266150Y0055527D01*
X0266251Y0055558D01*
X0266352Y0055584D01*
X0266455Y0055607D01*
X0266558Y0055626D01*
X0266662Y0055641D01*
X0266766Y0055652D01*
X0266871Y0055659D01*
X0266976Y0055662D01*
X0267081Y0055661D01*
X0267186Y0055656D01*
X0267290Y0055647D01*
X0267394Y0055634D01*
X0267498Y0055617D01*
X0267601Y0055596D01*
X0267703Y0055571D01*
X0267804Y0055543D01*
X0267903Y0055510D01*
X0268002Y0055474D01*
X0268099Y0055434D01*
X0268194Y0055391D01*
X0268288Y0055343D01*
X0268380Y0055293D01*
X0268470Y0055239D01*
X0268558Y0055181D01*
X0268643Y0055120D01*
X0268726Y0055056D01*
X0268807Y0054989D01*
X0268885Y0054919D01*
X0268960Y0054845D01*
X0269032Y0054770D01*
X0269102Y0054691D01*
X0269168Y0054610D01*
X0269232Y0054526D01*
X0269292Y0054440D01*
X0269348Y0054352D01*
X0269402Y0054261D01*
X0269452Y0054169D01*
X0269498Y0054075D01*
X0269541Y0053979D01*
X0269580Y0053881D01*
X0269615Y0053783D01*
X0269646Y0053682D01*
X0269674Y0053581D01*
X0269698Y0053479D01*
X0269718Y0053376D01*
X0269734Y0053272D01*
X0269746Y0053168D01*
X0269754Y0053063D01*
X0269758Y0052958D01*
X0269758Y0052854D01*
X0269754Y0052749D01*
X0269746Y0052644D01*
X0269734Y0052540D01*
X0269718Y0052436D01*
X0269698Y0052333D01*
X0269674Y0052231D01*
X0269646Y0052130D01*
X0269615Y0052029D01*
X0269580Y0051931D01*
X0269541Y0051833D01*
X0269498Y0051737D01*
X0269452Y0051643D01*
X0269402Y0051551D01*
X0269348Y0051460D01*
X0269292Y0051372D01*
X0269232Y0051286D01*
X0269168Y0051202D01*
X0269102Y0051121D01*
X0269032Y0051042D01*
X0268960Y0050967D01*
X0268885Y0050893D01*
X0268807Y0050823D01*
X0268726Y0050756D01*
X0268643Y0050692D01*
X0268558Y0050631D01*
X0268470Y0050573D01*
X0268380Y0050519D01*
X0268288Y0050469D01*
X0268194Y0050421D01*
X0268099Y0050378D01*
X0268002Y0050338D01*
X0267903Y0050302D01*
X0267804Y0050269D01*
X0267703Y0050241D01*
X0267601Y0050216D01*
X0267498Y0050195D01*
X0267394Y0050178D01*
X0267290Y0050165D01*
X0267186Y0050156D01*
X0267081Y0050151D01*
X0266976Y0050150D01*
X0266871Y0050153D01*
X0266766Y0050160D01*
X0266662Y0050171D01*
X0266558Y0050186D01*
X0266455Y0050205D01*
X0266352Y0050228D01*
X0266251Y0050254D01*
X0266150Y0050285D01*
X0266051Y0050319D01*
X0265953Y0050357D01*
X0265857Y0050399D01*
X0265763Y0050444D01*
X0265670Y0050493D01*
X0265579Y0050546D01*
X0265490Y0050602D01*
X0265403Y0050661D01*
X0265319Y0050724D01*
X0265237Y0050789D01*
X0265158Y0050858D01*
X0265081Y0050930D01*
X0265007Y0051004D01*
X0264936Y0051081D01*
X0264868Y0051161D01*
X0264804Y0051244D01*
X0264742Y0051329D01*
X0264684Y0051416D01*
X0264628Y0051505D01*
X0264577Y0051597D01*
X0264529Y0051690D01*
X0264484Y0051785D01*
X0264443Y0051882D01*
X0264406Y0051980D01*
X0264373Y0052079D01*
X0264343Y0052180D01*
X0264318Y0052282D01*
X0264296Y0052384D01*
X0264278Y0052488D01*
X0264264Y0052592D01*
X0264254Y0052696D01*
X0264248Y0052801D01*
X0264246Y0052906D01*
X0228564Y0046364D02*
X0221256Y0046364D01*
X0224910Y0042710D02*
X0224910Y0050018D01*
X0225210Y0050547D02*
X0225210Y0056567D01*
X0222201Y0053557D02*
X0228220Y0053557D01*
X0164926Y0074057D02*
X0156926Y0074057D01*
X0158465Y0074057D02*
X0158467Y0074156D01*
X0158473Y0074255D01*
X0158483Y0074354D01*
X0158497Y0074452D01*
X0158515Y0074549D01*
X0158537Y0074646D01*
X0158562Y0074742D01*
X0158592Y0074836D01*
X0158625Y0074930D01*
X0158662Y0075022D01*
X0158703Y0075112D01*
X0158747Y0075201D01*
X0158795Y0075287D01*
X0158846Y0075372D01*
X0158901Y0075455D01*
X0158959Y0075535D01*
X0159020Y0075613D01*
X0159084Y0075689D01*
X0159151Y0075762D01*
X0159221Y0075832D01*
X0159294Y0075899D01*
X0159370Y0075963D01*
X0159448Y0076024D01*
X0159528Y0076082D01*
X0159611Y0076137D01*
X0159695Y0076188D01*
X0159782Y0076236D01*
X0159871Y0076280D01*
X0159961Y0076321D01*
X0160053Y0076358D01*
X0160147Y0076391D01*
X0160241Y0076421D01*
X0160337Y0076446D01*
X0160434Y0076468D01*
X0160531Y0076486D01*
X0160629Y0076500D01*
X0160728Y0076510D01*
X0160827Y0076516D01*
X0160926Y0076518D01*
X0161025Y0076516D01*
X0161124Y0076510D01*
X0161223Y0076500D01*
X0161321Y0076486D01*
X0161418Y0076468D01*
X0161515Y0076446D01*
X0161611Y0076421D01*
X0161705Y0076391D01*
X0161799Y0076358D01*
X0161891Y0076321D01*
X0161981Y0076280D01*
X0162070Y0076236D01*
X0162156Y0076188D01*
X0162241Y0076137D01*
X0162324Y0076082D01*
X0162404Y0076024D01*
X0162482Y0075963D01*
X0162558Y0075899D01*
X0162631Y0075832D01*
X0162701Y0075762D01*
X0162768Y0075689D01*
X0162832Y0075613D01*
X0162893Y0075535D01*
X0162951Y0075455D01*
X0163006Y0075372D01*
X0163057Y0075288D01*
X0163105Y0075201D01*
X0163149Y0075112D01*
X0163190Y0075022D01*
X0163227Y0074930D01*
X0163260Y0074836D01*
X0163290Y0074742D01*
X0163315Y0074646D01*
X0163337Y0074549D01*
X0163355Y0074452D01*
X0163369Y0074354D01*
X0163379Y0074255D01*
X0163385Y0074156D01*
X0163387Y0074057D01*
X0163385Y0073958D01*
X0163379Y0073859D01*
X0163369Y0073760D01*
X0163355Y0073662D01*
X0163337Y0073565D01*
X0163315Y0073468D01*
X0163290Y0073372D01*
X0163260Y0073278D01*
X0163227Y0073184D01*
X0163190Y0073092D01*
X0163149Y0073002D01*
X0163105Y0072913D01*
X0163057Y0072827D01*
X0163006Y0072742D01*
X0162951Y0072659D01*
X0162893Y0072579D01*
X0162832Y0072501D01*
X0162768Y0072425D01*
X0162701Y0072352D01*
X0162631Y0072282D01*
X0162558Y0072215D01*
X0162482Y0072151D01*
X0162404Y0072090D01*
X0162324Y0072032D01*
X0162241Y0071977D01*
X0162157Y0071926D01*
X0162070Y0071878D01*
X0161981Y0071834D01*
X0161891Y0071793D01*
X0161799Y0071756D01*
X0161705Y0071723D01*
X0161611Y0071693D01*
X0161515Y0071668D01*
X0161418Y0071646D01*
X0161321Y0071628D01*
X0161223Y0071614D01*
X0161124Y0071604D01*
X0161025Y0071598D01*
X0160926Y0071596D01*
X0160827Y0071598D01*
X0160728Y0071604D01*
X0160629Y0071614D01*
X0160531Y0071628D01*
X0160434Y0071646D01*
X0160337Y0071668D01*
X0160241Y0071693D01*
X0160147Y0071723D01*
X0160053Y0071756D01*
X0159961Y0071793D01*
X0159871Y0071834D01*
X0159782Y0071878D01*
X0159696Y0071926D01*
X0159611Y0071977D01*
X0159528Y0072032D01*
X0159448Y0072090D01*
X0159370Y0072151D01*
X0159294Y0072215D01*
X0159221Y0072282D01*
X0159151Y0072352D01*
X0159084Y0072425D01*
X0159020Y0072501D01*
X0158959Y0072579D01*
X0158901Y0072659D01*
X0158846Y0072742D01*
X0158795Y0072826D01*
X0158747Y0072913D01*
X0158703Y0073002D01*
X0158662Y0073092D01*
X0158625Y0073184D01*
X0158592Y0073278D01*
X0158562Y0073372D01*
X0158537Y0073468D01*
X0158515Y0073565D01*
X0158497Y0073662D01*
X0158483Y0073760D01*
X0158473Y0073859D01*
X0158467Y0073958D01*
X0158465Y0074057D01*
X0160926Y0070057D02*
X0160926Y0078057D01*
X0131309Y0084156D02*
X0131311Y0084242D01*
X0131317Y0084329D01*
X0131327Y0084414D01*
X0131341Y0084500D01*
X0131359Y0084584D01*
X0131380Y0084668D01*
X0131406Y0084750D01*
X0131435Y0084832D01*
X0131468Y0084911D01*
X0131505Y0084990D01*
X0131545Y0085066D01*
X0131589Y0085140D01*
X0131636Y0085213D01*
X0131687Y0085283D01*
X0131740Y0085351D01*
X0131797Y0085416D01*
X0131857Y0085478D01*
X0131919Y0085538D01*
X0131984Y0085595D01*
X0132052Y0085648D01*
X0132122Y0085699D01*
X0132195Y0085746D01*
X0132269Y0085790D01*
X0132345Y0085830D01*
X0132424Y0085867D01*
X0132503Y0085900D01*
X0132585Y0085929D01*
X0132667Y0085955D01*
X0132751Y0085976D01*
X0132835Y0085994D01*
X0132921Y0086008D01*
X0133006Y0086018D01*
X0133093Y0086024D01*
X0133179Y0086026D01*
X0133265Y0086024D01*
X0133352Y0086018D01*
X0133437Y0086008D01*
X0133523Y0085994D01*
X0133607Y0085976D01*
X0133691Y0085955D01*
X0133773Y0085929D01*
X0133855Y0085900D01*
X0133934Y0085867D01*
X0134013Y0085830D01*
X0134089Y0085790D01*
X0134163Y0085746D01*
X0134236Y0085699D01*
X0134306Y0085648D01*
X0134374Y0085595D01*
X0134439Y0085538D01*
X0134501Y0085478D01*
X0134561Y0085416D01*
X0134618Y0085351D01*
X0134671Y0085283D01*
X0134722Y0085213D01*
X0134769Y0085140D01*
X0134813Y0085066D01*
X0134853Y0084990D01*
X0134890Y0084911D01*
X0134923Y0084832D01*
X0134952Y0084750D01*
X0134978Y0084668D01*
X0134999Y0084584D01*
X0135017Y0084500D01*
X0135031Y0084414D01*
X0135041Y0084329D01*
X0135047Y0084242D01*
X0135049Y0084156D01*
X0135047Y0084070D01*
X0135041Y0083983D01*
X0135031Y0083898D01*
X0135017Y0083812D01*
X0134999Y0083728D01*
X0134978Y0083644D01*
X0134952Y0083562D01*
X0134923Y0083480D01*
X0134890Y0083401D01*
X0134853Y0083322D01*
X0134813Y0083246D01*
X0134769Y0083172D01*
X0134722Y0083099D01*
X0134671Y0083029D01*
X0134618Y0082961D01*
X0134561Y0082896D01*
X0134501Y0082834D01*
X0134439Y0082774D01*
X0134374Y0082717D01*
X0134306Y0082664D01*
X0134236Y0082613D01*
X0134163Y0082566D01*
X0134089Y0082522D01*
X0134013Y0082482D01*
X0133934Y0082445D01*
X0133855Y0082412D01*
X0133773Y0082383D01*
X0133691Y0082357D01*
X0133607Y0082336D01*
X0133523Y0082318D01*
X0133437Y0082304D01*
X0133352Y0082294D01*
X0133265Y0082288D01*
X0133179Y0082286D01*
X0133093Y0082288D01*
X0133006Y0082294D01*
X0132921Y0082304D01*
X0132835Y0082318D01*
X0132751Y0082336D01*
X0132667Y0082357D01*
X0132585Y0082383D01*
X0132503Y0082412D01*
X0132424Y0082445D01*
X0132345Y0082482D01*
X0132269Y0082522D01*
X0132195Y0082566D01*
X0132122Y0082613D01*
X0132052Y0082664D01*
X0131984Y0082717D01*
X0131919Y0082774D01*
X0131857Y0082834D01*
X0131797Y0082896D01*
X0131740Y0082961D01*
X0131687Y0083029D01*
X0131636Y0083099D01*
X0131589Y0083172D01*
X0131545Y0083246D01*
X0131505Y0083322D01*
X0131468Y0083401D01*
X0131435Y0083480D01*
X0131406Y0083562D01*
X0131380Y0083644D01*
X0131359Y0083728D01*
X0131341Y0083812D01*
X0131327Y0083898D01*
X0131317Y0083983D01*
X0131311Y0084070D01*
X0131309Y0084156D01*
X0095151Y0076766D02*
X0095153Y0076924D01*
X0095159Y0077082D01*
X0095169Y0077240D01*
X0095183Y0077398D01*
X0095201Y0077555D01*
X0095222Y0077712D01*
X0095248Y0077868D01*
X0095278Y0078024D01*
X0095311Y0078179D01*
X0095349Y0078332D01*
X0095390Y0078485D01*
X0095435Y0078637D01*
X0095484Y0078788D01*
X0095537Y0078937D01*
X0095593Y0079085D01*
X0095653Y0079231D01*
X0095717Y0079376D01*
X0095785Y0079519D01*
X0095856Y0079661D01*
X0095930Y0079801D01*
X0096008Y0079938D01*
X0096090Y0080074D01*
X0096174Y0080208D01*
X0096263Y0080339D01*
X0096354Y0080468D01*
X0096449Y0080595D01*
X0096546Y0080720D01*
X0096647Y0080842D01*
X0096751Y0080961D01*
X0096858Y0081078D01*
X0096968Y0081192D01*
X0097081Y0081303D01*
X0097196Y0081412D01*
X0097314Y0081517D01*
X0097435Y0081619D01*
X0097558Y0081719D01*
X0097684Y0081815D01*
X0097812Y0081908D01*
X0097942Y0081998D01*
X0098075Y0082084D01*
X0098210Y0082168D01*
X0098346Y0082247D01*
X0098485Y0082324D01*
X0098626Y0082396D01*
X0098768Y0082466D01*
X0098912Y0082531D01*
X0099058Y0082593D01*
X0099205Y0082651D01*
X0099354Y0082706D01*
X0099504Y0082757D01*
X0099655Y0082804D01*
X0099807Y0082847D01*
X0099960Y0082886D01*
X0100115Y0082922D01*
X0100270Y0082953D01*
X0100426Y0082981D01*
X0100582Y0083005D01*
X0100739Y0083025D01*
X0100897Y0083041D01*
X0101054Y0083053D01*
X0101213Y0083061D01*
X0101371Y0083065D01*
X0101529Y0083065D01*
X0101687Y0083061D01*
X0101846Y0083053D01*
X0102003Y0083041D01*
X0102161Y0083025D01*
X0102318Y0083005D01*
X0102474Y0082981D01*
X0102630Y0082953D01*
X0102785Y0082922D01*
X0102940Y0082886D01*
X0103093Y0082847D01*
X0103245Y0082804D01*
X0103396Y0082757D01*
X0103546Y0082706D01*
X0103695Y0082651D01*
X0103842Y0082593D01*
X0103988Y0082531D01*
X0104132Y0082466D01*
X0104274Y0082396D01*
X0104415Y0082324D01*
X0104554Y0082247D01*
X0104690Y0082168D01*
X0104825Y0082084D01*
X0104958Y0081998D01*
X0105088Y0081908D01*
X0105216Y0081815D01*
X0105342Y0081719D01*
X0105465Y0081619D01*
X0105586Y0081517D01*
X0105704Y0081412D01*
X0105819Y0081303D01*
X0105932Y0081192D01*
X0106042Y0081078D01*
X0106149Y0080961D01*
X0106253Y0080842D01*
X0106354Y0080720D01*
X0106451Y0080595D01*
X0106546Y0080468D01*
X0106637Y0080339D01*
X0106726Y0080208D01*
X0106810Y0080074D01*
X0106892Y0079938D01*
X0106970Y0079801D01*
X0107044Y0079661D01*
X0107115Y0079519D01*
X0107183Y0079376D01*
X0107247Y0079231D01*
X0107307Y0079085D01*
X0107363Y0078937D01*
X0107416Y0078788D01*
X0107465Y0078637D01*
X0107510Y0078485D01*
X0107551Y0078332D01*
X0107589Y0078179D01*
X0107622Y0078024D01*
X0107652Y0077868D01*
X0107678Y0077712D01*
X0107699Y0077555D01*
X0107717Y0077398D01*
X0107731Y0077240D01*
X0107741Y0077082D01*
X0107747Y0076924D01*
X0107749Y0076766D01*
X0107747Y0076608D01*
X0107741Y0076450D01*
X0107731Y0076292D01*
X0107717Y0076134D01*
X0107699Y0075977D01*
X0107678Y0075820D01*
X0107652Y0075664D01*
X0107622Y0075508D01*
X0107589Y0075353D01*
X0107551Y0075200D01*
X0107510Y0075047D01*
X0107465Y0074895D01*
X0107416Y0074744D01*
X0107363Y0074595D01*
X0107307Y0074447D01*
X0107247Y0074301D01*
X0107183Y0074156D01*
X0107115Y0074013D01*
X0107044Y0073871D01*
X0106970Y0073731D01*
X0106892Y0073594D01*
X0106810Y0073458D01*
X0106726Y0073324D01*
X0106637Y0073193D01*
X0106546Y0073064D01*
X0106451Y0072937D01*
X0106354Y0072812D01*
X0106253Y0072690D01*
X0106149Y0072571D01*
X0106042Y0072454D01*
X0105932Y0072340D01*
X0105819Y0072229D01*
X0105704Y0072120D01*
X0105586Y0072015D01*
X0105465Y0071913D01*
X0105342Y0071813D01*
X0105216Y0071717D01*
X0105088Y0071624D01*
X0104958Y0071534D01*
X0104825Y0071448D01*
X0104690Y0071364D01*
X0104554Y0071285D01*
X0104415Y0071208D01*
X0104274Y0071136D01*
X0104132Y0071066D01*
X0103988Y0071001D01*
X0103842Y0070939D01*
X0103695Y0070881D01*
X0103546Y0070826D01*
X0103396Y0070775D01*
X0103245Y0070728D01*
X0103093Y0070685D01*
X0102940Y0070646D01*
X0102785Y0070610D01*
X0102630Y0070579D01*
X0102474Y0070551D01*
X0102318Y0070527D01*
X0102161Y0070507D01*
X0102003Y0070491D01*
X0101846Y0070479D01*
X0101687Y0070471D01*
X0101529Y0070467D01*
X0101371Y0070467D01*
X0101213Y0070471D01*
X0101054Y0070479D01*
X0100897Y0070491D01*
X0100739Y0070507D01*
X0100582Y0070527D01*
X0100426Y0070551D01*
X0100270Y0070579D01*
X0100115Y0070610D01*
X0099960Y0070646D01*
X0099807Y0070685D01*
X0099655Y0070728D01*
X0099504Y0070775D01*
X0099354Y0070826D01*
X0099205Y0070881D01*
X0099058Y0070939D01*
X0098912Y0071001D01*
X0098768Y0071066D01*
X0098626Y0071136D01*
X0098485Y0071208D01*
X0098346Y0071285D01*
X0098210Y0071364D01*
X0098075Y0071448D01*
X0097942Y0071534D01*
X0097812Y0071624D01*
X0097684Y0071717D01*
X0097558Y0071813D01*
X0097435Y0071913D01*
X0097314Y0072015D01*
X0097196Y0072120D01*
X0097081Y0072229D01*
X0096968Y0072340D01*
X0096858Y0072454D01*
X0096751Y0072571D01*
X0096647Y0072690D01*
X0096546Y0072812D01*
X0096449Y0072937D01*
X0096354Y0073064D01*
X0096263Y0073193D01*
X0096174Y0073324D01*
X0096090Y0073458D01*
X0096008Y0073594D01*
X0095930Y0073731D01*
X0095856Y0073871D01*
X0095785Y0074013D01*
X0095717Y0074156D01*
X0095653Y0074301D01*
X0095593Y0074447D01*
X0095537Y0074595D01*
X0095484Y0074744D01*
X0095435Y0074895D01*
X0095390Y0075047D01*
X0095349Y0075200D01*
X0095311Y0075353D01*
X0095278Y0075508D01*
X0095248Y0075664D01*
X0095222Y0075820D01*
X0095201Y0075977D01*
X0095183Y0076134D01*
X0095169Y0076292D01*
X0095159Y0076450D01*
X0095153Y0076608D01*
X0095151Y0076766D01*
X0082753Y0084107D02*
X0074753Y0084107D01*
X0078753Y0080107D02*
X0078753Y0088107D01*
X0063464Y0084097D02*
X0057739Y0084097D01*
X0060601Y0081235D02*
X0060601Y0086960D01*
X0047734Y0084853D02*
X0047736Y0084934D01*
X0047742Y0085016D01*
X0047752Y0085097D01*
X0047766Y0085177D01*
X0047783Y0085256D01*
X0047805Y0085335D01*
X0047830Y0085412D01*
X0047859Y0085489D01*
X0047892Y0085563D01*
X0047929Y0085636D01*
X0047968Y0085707D01*
X0048012Y0085776D01*
X0048058Y0085843D01*
X0048108Y0085907D01*
X0048161Y0085969D01*
X0048217Y0086029D01*
X0048275Y0086085D01*
X0048337Y0086139D01*
X0048401Y0086190D01*
X0048467Y0086237D01*
X0048535Y0086281D01*
X0048606Y0086322D01*
X0048678Y0086359D01*
X0048753Y0086393D01*
X0048828Y0086423D01*
X0048906Y0086449D01*
X0048984Y0086472D01*
X0049063Y0086490D01*
X0049143Y0086505D01*
X0049224Y0086516D01*
X0049305Y0086523D01*
X0049387Y0086526D01*
X0049468Y0086525D01*
X0049549Y0086520D01*
X0049630Y0086511D01*
X0049711Y0086498D01*
X0049791Y0086481D01*
X0049869Y0086461D01*
X0049947Y0086436D01*
X0050024Y0086408D01*
X0050099Y0086376D01*
X0050172Y0086341D01*
X0050243Y0086302D01*
X0050313Y0086259D01*
X0050380Y0086214D01*
X0050446Y0086165D01*
X0050508Y0086113D01*
X0050568Y0086057D01*
X0050625Y0085999D01*
X0050680Y0085939D01*
X0050731Y0085875D01*
X0050779Y0085810D01*
X0050824Y0085742D01*
X0050866Y0085672D01*
X0050904Y0085600D01*
X0050939Y0085526D01*
X0050970Y0085451D01*
X0050997Y0085374D01*
X0051020Y0085296D01*
X0051040Y0085217D01*
X0051056Y0085137D01*
X0051068Y0085056D01*
X0051076Y0084975D01*
X0051080Y0084894D01*
X0051080Y0084812D01*
X0051076Y0084731D01*
X0051068Y0084650D01*
X0051056Y0084569D01*
X0051040Y0084489D01*
X0051020Y0084410D01*
X0050997Y0084332D01*
X0050970Y0084255D01*
X0050939Y0084180D01*
X0050904Y0084106D01*
X0050866Y0084034D01*
X0050824Y0083964D01*
X0050779Y0083896D01*
X0050731Y0083831D01*
X0050680Y0083767D01*
X0050625Y0083707D01*
X0050568Y0083649D01*
X0050508Y0083593D01*
X0050446Y0083541D01*
X0050380Y0083492D01*
X0050313Y0083447D01*
X0050244Y0083404D01*
X0050172Y0083365D01*
X0050099Y0083330D01*
X0050024Y0083298D01*
X0049947Y0083270D01*
X0049869Y0083245D01*
X0049791Y0083225D01*
X0049711Y0083208D01*
X0049630Y0083195D01*
X0049549Y0083186D01*
X0049468Y0083181D01*
X0049387Y0083180D01*
X0049305Y0083183D01*
X0049224Y0083190D01*
X0049143Y0083201D01*
X0049063Y0083216D01*
X0048984Y0083234D01*
X0048906Y0083257D01*
X0048828Y0083283D01*
X0048753Y0083313D01*
X0048678Y0083347D01*
X0048606Y0083384D01*
X0048535Y0083425D01*
X0048467Y0083469D01*
X0048401Y0083516D01*
X0048337Y0083567D01*
X0048275Y0083621D01*
X0048217Y0083677D01*
X0048161Y0083737D01*
X0048108Y0083799D01*
X0048058Y0083863D01*
X0048012Y0083930D01*
X0047968Y0083999D01*
X0047929Y0084070D01*
X0047892Y0084143D01*
X0047859Y0084217D01*
X0047830Y0084294D01*
X0047805Y0084371D01*
X0047783Y0084450D01*
X0047766Y0084529D01*
X0047752Y0084609D01*
X0047742Y0084690D01*
X0047736Y0084772D01*
X0047734Y0084853D01*
X0040745Y0088333D02*
X0040745Y0096333D01*
X0048225Y0098633D02*
X0050585Y0098633D01*
X0047734Y0099814D02*
X0047736Y0099895D01*
X0047742Y0099977D01*
X0047752Y0100058D01*
X0047766Y0100138D01*
X0047783Y0100217D01*
X0047805Y0100296D01*
X0047830Y0100373D01*
X0047859Y0100450D01*
X0047892Y0100524D01*
X0047929Y0100597D01*
X0047968Y0100668D01*
X0048012Y0100737D01*
X0048058Y0100804D01*
X0048108Y0100868D01*
X0048161Y0100930D01*
X0048217Y0100990D01*
X0048275Y0101046D01*
X0048337Y0101100D01*
X0048401Y0101151D01*
X0048467Y0101198D01*
X0048535Y0101242D01*
X0048606Y0101283D01*
X0048678Y0101320D01*
X0048753Y0101354D01*
X0048828Y0101384D01*
X0048906Y0101410D01*
X0048984Y0101433D01*
X0049063Y0101451D01*
X0049143Y0101466D01*
X0049224Y0101477D01*
X0049305Y0101484D01*
X0049387Y0101487D01*
X0049468Y0101486D01*
X0049549Y0101481D01*
X0049630Y0101472D01*
X0049711Y0101459D01*
X0049791Y0101442D01*
X0049869Y0101422D01*
X0049947Y0101397D01*
X0050024Y0101369D01*
X0050099Y0101337D01*
X0050172Y0101302D01*
X0050243Y0101263D01*
X0050313Y0101220D01*
X0050380Y0101175D01*
X0050446Y0101126D01*
X0050508Y0101074D01*
X0050568Y0101018D01*
X0050625Y0100960D01*
X0050680Y0100900D01*
X0050731Y0100836D01*
X0050779Y0100771D01*
X0050824Y0100703D01*
X0050866Y0100633D01*
X0050904Y0100561D01*
X0050939Y0100487D01*
X0050970Y0100412D01*
X0050997Y0100335D01*
X0051020Y0100257D01*
X0051040Y0100178D01*
X0051056Y0100098D01*
X0051068Y0100017D01*
X0051076Y0099936D01*
X0051080Y0099855D01*
X0051080Y0099773D01*
X0051076Y0099692D01*
X0051068Y0099611D01*
X0051056Y0099530D01*
X0051040Y0099450D01*
X0051020Y0099371D01*
X0050997Y0099293D01*
X0050970Y0099216D01*
X0050939Y0099141D01*
X0050904Y0099067D01*
X0050866Y0098995D01*
X0050824Y0098925D01*
X0050779Y0098857D01*
X0050731Y0098792D01*
X0050680Y0098728D01*
X0050625Y0098668D01*
X0050568Y0098610D01*
X0050508Y0098554D01*
X0050446Y0098502D01*
X0050380Y0098453D01*
X0050313Y0098408D01*
X0050244Y0098365D01*
X0050172Y0098326D01*
X0050099Y0098291D01*
X0050024Y0098259D01*
X0049947Y0098231D01*
X0049869Y0098206D01*
X0049791Y0098186D01*
X0049711Y0098169D01*
X0049630Y0098156D01*
X0049549Y0098147D01*
X0049468Y0098142D01*
X0049387Y0098141D01*
X0049305Y0098144D01*
X0049224Y0098151D01*
X0049143Y0098162D01*
X0049063Y0098177D01*
X0048984Y0098195D01*
X0048906Y0098218D01*
X0048828Y0098244D01*
X0048753Y0098274D01*
X0048678Y0098308D01*
X0048606Y0098345D01*
X0048535Y0098386D01*
X0048467Y0098430D01*
X0048401Y0098477D01*
X0048337Y0098528D01*
X0048275Y0098582D01*
X0048217Y0098638D01*
X0048161Y0098698D01*
X0048108Y0098760D01*
X0048058Y0098824D01*
X0048012Y0098891D01*
X0047968Y0098960D01*
X0047929Y0099031D01*
X0047892Y0099104D01*
X0047859Y0099178D01*
X0047830Y0099255D01*
X0047805Y0099332D01*
X0047783Y0099411D01*
X0047766Y0099490D01*
X0047752Y0099570D01*
X0047742Y0099651D01*
X0047736Y0099733D01*
X0047734Y0099814D01*
X0044745Y0092333D02*
X0036745Y0092333D01*
X0064092Y0100676D02*
X0072092Y0100676D01*
X0078878Y0101057D02*
X0085878Y0101057D01*
X0082378Y0097557D02*
X0082378Y0104557D01*
X0095825Y0104359D02*
X0103825Y0104359D01*
X0099825Y0100359D02*
X0099825Y0108359D01*
X0102095Y0112033D02*
X0101995Y0112199D01*
X0114849Y0106136D02*
X0122846Y0106136D01*
X0118847Y0110134D02*
X0118847Y0102137D01*
X0124195Y0112233D02*
X0124395Y0112233D01*
X0168413Y0106733D02*
X0174730Y0106733D01*
X0171572Y0103574D02*
X0171572Y0109891D01*
X0182688Y0104502D02*
X0190688Y0104502D01*
X0186688Y0100502D02*
X0186688Y0108502D01*
X0198454Y0104941D02*
X0205983Y0104941D01*
X0202219Y0101177D02*
X0202219Y0108706D01*
X0222637Y0101457D02*
X0222639Y0101538D01*
X0222645Y0101620D01*
X0222655Y0101701D01*
X0222669Y0101781D01*
X0222686Y0101860D01*
X0222708Y0101939D01*
X0222733Y0102016D01*
X0222762Y0102093D01*
X0222795Y0102167D01*
X0222832Y0102240D01*
X0222871Y0102311D01*
X0222915Y0102380D01*
X0222961Y0102447D01*
X0223011Y0102511D01*
X0223064Y0102573D01*
X0223120Y0102633D01*
X0223178Y0102689D01*
X0223240Y0102743D01*
X0223304Y0102794D01*
X0223370Y0102841D01*
X0223438Y0102885D01*
X0223509Y0102926D01*
X0223581Y0102963D01*
X0223656Y0102997D01*
X0223731Y0103027D01*
X0223809Y0103053D01*
X0223887Y0103076D01*
X0223966Y0103094D01*
X0224046Y0103109D01*
X0224127Y0103120D01*
X0224208Y0103127D01*
X0224290Y0103130D01*
X0224371Y0103129D01*
X0224452Y0103124D01*
X0224533Y0103115D01*
X0224614Y0103102D01*
X0224694Y0103085D01*
X0224772Y0103065D01*
X0224850Y0103040D01*
X0224927Y0103012D01*
X0225002Y0102980D01*
X0225075Y0102945D01*
X0225146Y0102906D01*
X0225216Y0102863D01*
X0225283Y0102818D01*
X0225349Y0102769D01*
X0225411Y0102717D01*
X0225471Y0102661D01*
X0225528Y0102603D01*
X0225583Y0102543D01*
X0225634Y0102479D01*
X0225682Y0102414D01*
X0225727Y0102346D01*
X0225769Y0102276D01*
X0225807Y0102204D01*
X0225842Y0102130D01*
X0225873Y0102055D01*
X0225900Y0101978D01*
X0225923Y0101900D01*
X0225943Y0101821D01*
X0225959Y0101741D01*
X0225971Y0101660D01*
X0225979Y0101579D01*
X0225983Y0101498D01*
X0225983Y0101416D01*
X0225979Y0101335D01*
X0225971Y0101254D01*
X0225959Y0101173D01*
X0225943Y0101093D01*
X0225923Y0101014D01*
X0225900Y0100936D01*
X0225873Y0100859D01*
X0225842Y0100784D01*
X0225807Y0100710D01*
X0225769Y0100638D01*
X0225727Y0100568D01*
X0225682Y0100500D01*
X0225634Y0100435D01*
X0225583Y0100371D01*
X0225528Y0100311D01*
X0225471Y0100253D01*
X0225411Y0100197D01*
X0225349Y0100145D01*
X0225283Y0100096D01*
X0225216Y0100051D01*
X0225147Y0100008D01*
X0225075Y0099969D01*
X0225002Y0099934D01*
X0224927Y0099902D01*
X0224850Y0099874D01*
X0224772Y0099849D01*
X0224694Y0099829D01*
X0224614Y0099812D01*
X0224533Y0099799D01*
X0224452Y0099790D01*
X0224371Y0099785D01*
X0224290Y0099784D01*
X0224208Y0099787D01*
X0224127Y0099794D01*
X0224046Y0099805D01*
X0223966Y0099820D01*
X0223887Y0099838D01*
X0223809Y0099861D01*
X0223731Y0099887D01*
X0223656Y0099917D01*
X0223581Y0099951D01*
X0223509Y0099988D01*
X0223438Y0100029D01*
X0223370Y0100073D01*
X0223304Y0100120D01*
X0223240Y0100171D01*
X0223178Y0100225D01*
X0223120Y0100281D01*
X0223064Y0100341D01*
X0223011Y0100403D01*
X0222961Y0100467D01*
X0222915Y0100534D01*
X0222871Y0100603D01*
X0222832Y0100674D01*
X0222795Y0100747D01*
X0222762Y0100821D01*
X0222733Y0100898D01*
X0222708Y0100975D01*
X0222686Y0101054D01*
X0222669Y0101133D01*
X0222655Y0101213D01*
X0222645Y0101294D01*
X0222639Y0101376D01*
X0222637Y0101457D01*
X0224310Y0099551D02*
X0224310Y0091551D01*
X0222637Y0089646D02*
X0222639Y0089727D01*
X0222645Y0089809D01*
X0222655Y0089890D01*
X0222669Y0089970D01*
X0222686Y0090049D01*
X0222708Y0090128D01*
X0222733Y0090205D01*
X0222762Y0090282D01*
X0222795Y0090356D01*
X0222832Y0090429D01*
X0222871Y0090500D01*
X0222915Y0090569D01*
X0222961Y0090636D01*
X0223011Y0090700D01*
X0223064Y0090762D01*
X0223120Y0090822D01*
X0223178Y0090878D01*
X0223240Y0090932D01*
X0223304Y0090983D01*
X0223370Y0091030D01*
X0223438Y0091074D01*
X0223509Y0091115D01*
X0223581Y0091152D01*
X0223656Y0091186D01*
X0223731Y0091216D01*
X0223809Y0091242D01*
X0223887Y0091265D01*
X0223966Y0091283D01*
X0224046Y0091298D01*
X0224127Y0091309D01*
X0224208Y0091316D01*
X0224290Y0091319D01*
X0224371Y0091318D01*
X0224452Y0091313D01*
X0224533Y0091304D01*
X0224614Y0091291D01*
X0224694Y0091274D01*
X0224772Y0091254D01*
X0224850Y0091229D01*
X0224927Y0091201D01*
X0225002Y0091169D01*
X0225075Y0091134D01*
X0225146Y0091095D01*
X0225216Y0091052D01*
X0225283Y0091007D01*
X0225349Y0090958D01*
X0225411Y0090906D01*
X0225471Y0090850D01*
X0225528Y0090792D01*
X0225583Y0090732D01*
X0225634Y0090668D01*
X0225682Y0090603D01*
X0225727Y0090535D01*
X0225769Y0090465D01*
X0225807Y0090393D01*
X0225842Y0090319D01*
X0225873Y0090244D01*
X0225900Y0090167D01*
X0225923Y0090089D01*
X0225943Y0090010D01*
X0225959Y0089930D01*
X0225971Y0089849D01*
X0225979Y0089768D01*
X0225983Y0089687D01*
X0225983Y0089605D01*
X0225979Y0089524D01*
X0225971Y0089443D01*
X0225959Y0089362D01*
X0225943Y0089282D01*
X0225923Y0089203D01*
X0225900Y0089125D01*
X0225873Y0089048D01*
X0225842Y0088973D01*
X0225807Y0088899D01*
X0225769Y0088827D01*
X0225727Y0088757D01*
X0225682Y0088689D01*
X0225634Y0088624D01*
X0225583Y0088560D01*
X0225528Y0088500D01*
X0225471Y0088442D01*
X0225411Y0088386D01*
X0225349Y0088334D01*
X0225283Y0088285D01*
X0225216Y0088240D01*
X0225147Y0088197D01*
X0225075Y0088158D01*
X0225002Y0088123D01*
X0224927Y0088091D01*
X0224850Y0088063D01*
X0224772Y0088038D01*
X0224694Y0088018D01*
X0224614Y0088001D01*
X0224533Y0087988D01*
X0224452Y0087979D01*
X0224371Y0087974D01*
X0224290Y0087973D01*
X0224208Y0087976D01*
X0224127Y0087983D01*
X0224046Y0087994D01*
X0223966Y0088009D01*
X0223887Y0088027D01*
X0223809Y0088050D01*
X0223731Y0088076D01*
X0223656Y0088106D01*
X0223581Y0088140D01*
X0223509Y0088177D01*
X0223438Y0088218D01*
X0223370Y0088262D01*
X0223304Y0088309D01*
X0223240Y0088360D01*
X0223178Y0088414D01*
X0223120Y0088470D01*
X0223064Y0088530D01*
X0223011Y0088592D01*
X0222961Y0088656D01*
X0222915Y0088723D01*
X0222871Y0088792D01*
X0222832Y0088863D01*
X0222795Y0088936D01*
X0222762Y0089010D01*
X0222733Y0089087D01*
X0222708Y0089164D01*
X0222686Y0089243D01*
X0222669Y0089322D01*
X0222655Y0089402D01*
X0222645Y0089483D01*
X0222639Y0089565D01*
X0222637Y0089646D01*
X0220310Y0095551D02*
X0228310Y0095551D01*
X0207305Y0091509D02*
X0200857Y0091509D01*
X0204081Y0094732D02*
X0204081Y0088285D01*
X0196320Y0088409D02*
X0188320Y0088409D01*
X0192320Y0084409D02*
X0192320Y0092409D01*
X0246420Y0100395D02*
X0254420Y0100395D01*
X0250420Y0096395D02*
X0250420Y0104395D01*
X0287798Y0086547D02*
X0293798Y0086547D01*
X0290798Y0083547D02*
X0290798Y0089547D01*
X0308306Y0100182D02*
X0316306Y0100182D01*
X0312306Y0096182D02*
X0312306Y0104182D01*
X0317495Y0112033D02*
X0325860Y0112199D01*
X0338235Y0107144D02*
X0338235Y0099144D01*
X0334235Y0103144D02*
X0342235Y0103144D01*
X0348983Y0103144D02*
X0354983Y0103144D01*
X0356732Y0103244D02*
X0363058Y0103244D01*
X0365015Y0103144D02*
X0372186Y0103144D01*
X0368601Y0099559D02*
X0368601Y0106730D01*
X0359895Y0106407D02*
X0359895Y0100081D01*
X0351983Y0100144D02*
X0351983Y0106144D01*
X0337870Y0091296D02*
X0337870Y0083296D01*
X0333870Y0087296D02*
X0341870Y0087296D01*
X0351057Y0076766D02*
X0351059Y0076924D01*
X0351065Y0077082D01*
X0351075Y0077240D01*
X0351089Y0077398D01*
X0351107Y0077555D01*
X0351128Y0077712D01*
X0351154Y0077868D01*
X0351184Y0078024D01*
X0351217Y0078179D01*
X0351255Y0078332D01*
X0351296Y0078485D01*
X0351341Y0078637D01*
X0351390Y0078788D01*
X0351443Y0078937D01*
X0351499Y0079085D01*
X0351559Y0079231D01*
X0351623Y0079376D01*
X0351691Y0079519D01*
X0351762Y0079661D01*
X0351836Y0079801D01*
X0351914Y0079938D01*
X0351996Y0080074D01*
X0352080Y0080208D01*
X0352169Y0080339D01*
X0352260Y0080468D01*
X0352355Y0080595D01*
X0352452Y0080720D01*
X0352553Y0080842D01*
X0352657Y0080961D01*
X0352764Y0081078D01*
X0352874Y0081192D01*
X0352987Y0081303D01*
X0353102Y0081412D01*
X0353220Y0081517D01*
X0353341Y0081619D01*
X0353464Y0081719D01*
X0353590Y0081815D01*
X0353718Y0081908D01*
X0353848Y0081998D01*
X0353981Y0082084D01*
X0354116Y0082168D01*
X0354252Y0082247D01*
X0354391Y0082324D01*
X0354532Y0082396D01*
X0354674Y0082466D01*
X0354818Y0082531D01*
X0354964Y0082593D01*
X0355111Y0082651D01*
X0355260Y0082706D01*
X0355410Y0082757D01*
X0355561Y0082804D01*
X0355713Y0082847D01*
X0355866Y0082886D01*
X0356021Y0082922D01*
X0356176Y0082953D01*
X0356332Y0082981D01*
X0356488Y0083005D01*
X0356645Y0083025D01*
X0356803Y0083041D01*
X0356960Y0083053D01*
X0357119Y0083061D01*
X0357277Y0083065D01*
X0357435Y0083065D01*
X0357593Y0083061D01*
X0357752Y0083053D01*
X0357909Y0083041D01*
X0358067Y0083025D01*
X0358224Y0083005D01*
X0358380Y0082981D01*
X0358536Y0082953D01*
X0358691Y0082922D01*
X0358846Y0082886D01*
X0358999Y0082847D01*
X0359151Y0082804D01*
X0359302Y0082757D01*
X0359452Y0082706D01*
X0359601Y0082651D01*
X0359748Y0082593D01*
X0359894Y0082531D01*
X0360038Y0082466D01*
X0360180Y0082396D01*
X0360321Y0082324D01*
X0360460Y0082247D01*
X0360596Y0082168D01*
X0360731Y0082084D01*
X0360864Y0081998D01*
X0360994Y0081908D01*
X0361122Y0081815D01*
X0361248Y0081719D01*
X0361371Y0081619D01*
X0361492Y0081517D01*
X0361610Y0081412D01*
X0361725Y0081303D01*
X0361838Y0081192D01*
X0361948Y0081078D01*
X0362055Y0080961D01*
X0362159Y0080842D01*
X0362260Y0080720D01*
X0362357Y0080595D01*
X0362452Y0080468D01*
X0362543Y0080339D01*
X0362632Y0080208D01*
X0362716Y0080074D01*
X0362798Y0079938D01*
X0362876Y0079801D01*
X0362950Y0079661D01*
X0363021Y0079519D01*
X0363089Y0079376D01*
X0363153Y0079231D01*
X0363213Y0079085D01*
X0363269Y0078937D01*
X0363322Y0078788D01*
X0363371Y0078637D01*
X0363416Y0078485D01*
X0363457Y0078332D01*
X0363495Y0078179D01*
X0363528Y0078024D01*
X0363558Y0077868D01*
X0363584Y0077712D01*
X0363605Y0077555D01*
X0363623Y0077398D01*
X0363637Y0077240D01*
X0363647Y0077082D01*
X0363653Y0076924D01*
X0363655Y0076766D01*
X0363653Y0076608D01*
X0363647Y0076450D01*
X0363637Y0076292D01*
X0363623Y0076134D01*
X0363605Y0075977D01*
X0363584Y0075820D01*
X0363558Y0075664D01*
X0363528Y0075508D01*
X0363495Y0075353D01*
X0363457Y0075200D01*
X0363416Y0075047D01*
X0363371Y0074895D01*
X0363322Y0074744D01*
X0363269Y0074595D01*
X0363213Y0074447D01*
X0363153Y0074301D01*
X0363089Y0074156D01*
X0363021Y0074013D01*
X0362950Y0073871D01*
X0362876Y0073731D01*
X0362798Y0073594D01*
X0362716Y0073458D01*
X0362632Y0073324D01*
X0362543Y0073193D01*
X0362452Y0073064D01*
X0362357Y0072937D01*
X0362260Y0072812D01*
X0362159Y0072690D01*
X0362055Y0072571D01*
X0361948Y0072454D01*
X0361838Y0072340D01*
X0361725Y0072229D01*
X0361610Y0072120D01*
X0361492Y0072015D01*
X0361371Y0071913D01*
X0361248Y0071813D01*
X0361122Y0071717D01*
X0360994Y0071624D01*
X0360864Y0071534D01*
X0360731Y0071448D01*
X0360596Y0071364D01*
X0360460Y0071285D01*
X0360321Y0071208D01*
X0360180Y0071136D01*
X0360038Y0071066D01*
X0359894Y0071001D01*
X0359748Y0070939D01*
X0359601Y0070881D01*
X0359452Y0070826D01*
X0359302Y0070775D01*
X0359151Y0070728D01*
X0358999Y0070685D01*
X0358846Y0070646D01*
X0358691Y0070610D01*
X0358536Y0070579D01*
X0358380Y0070551D01*
X0358224Y0070527D01*
X0358067Y0070507D01*
X0357909Y0070491D01*
X0357752Y0070479D01*
X0357593Y0070471D01*
X0357435Y0070467D01*
X0357277Y0070467D01*
X0357119Y0070471D01*
X0356960Y0070479D01*
X0356803Y0070491D01*
X0356645Y0070507D01*
X0356488Y0070527D01*
X0356332Y0070551D01*
X0356176Y0070579D01*
X0356021Y0070610D01*
X0355866Y0070646D01*
X0355713Y0070685D01*
X0355561Y0070728D01*
X0355410Y0070775D01*
X0355260Y0070826D01*
X0355111Y0070881D01*
X0354964Y0070939D01*
X0354818Y0071001D01*
X0354674Y0071066D01*
X0354532Y0071136D01*
X0354391Y0071208D01*
X0354252Y0071285D01*
X0354116Y0071364D01*
X0353981Y0071448D01*
X0353848Y0071534D01*
X0353718Y0071624D01*
X0353590Y0071717D01*
X0353464Y0071813D01*
X0353341Y0071913D01*
X0353220Y0072015D01*
X0353102Y0072120D01*
X0352987Y0072229D01*
X0352874Y0072340D01*
X0352764Y0072454D01*
X0352657Y0072571D01*
X0352553Y0072690D01*
X0352452Y0072812D01*
X0352355Y0072937D01*
X0352260Y0073064D01*
X0352169Y0073193D01*
X0352080Y0073324D01*
X0351996Y0073458D01*
X0351914Y0073594D01*
X0351836Y0073731D01*
X0351762Y0073871D01*
X0351691Y0074013D01*
X0351623Y0074156D01*
X0351559Y0074301D01*
X0351499Y0074447D01*
X0351443Y0074595D01*
X0351390Y0074744D01*
X0351341Y0074895D01*
X0351296Y0075047D01*
X0351255Y0075200D01*
X0351217Y0075353D01*
X0351184Y0075508D01*
X0351154Y0075664D01*
X0351128Y0075820D01*
X0351107Y0075977D01*
X0351089Y0076134D01*
X0351075Y0076292D01*
X0351065Y0076450D01*
X0351059Y0076608D01*
X0351057Y0076766D01*
X0355309Y0061630D02*
X0355309Y0054863D01*
X0353279Y0056277D02*
X0353279Y0048277D01*
X0350601Y0049764D02*
X0350601Y0041764D01*
X0346601Y0045764D02*
X0354601Y0045764D01*
X0360838Y0048898D02*
X0367838Y0048898D01*
X0364338Y0045398D02*
X0364338Y0052398D01*
X0357279Y0052277D02*
X0349279Y0052277D01*
X0351925Y0058247D02*
X0358692Y0058247D01*
X0340070Y0051170D02*
X0332070Y0051170D01*
X0336070Y0047170D02*
X0336070Y0055170D01*
X0315886Y0065336D02*
X0307886Y0065336D01*
X0311886Y0061336D02*
X0311886Y0069336D01*
X0417944Y0090833D02*
X0425944Y0090833D01*
X0421944Y0086833D02*
X0421944Y0094833D01*
X0436473Y0080800D02*
X0436473Y0072800D01*
X0432473Y0076800D02*
X0440473Y0076800D01*
X0068092Y0096676D02*
X0068092Y0104676D01*
D11*
X0068195Y0103433D02*
X0068195Y0107633D01*
X0068092Y0107762D01*
X0073998Y0107762D02*
X0074795Y0106733D01*
X0068795Y0100733D01*
X0061295Y0100733D01*
X0058595Y0103433D01*
X0048095Y0103433D01*
X0045695Y0101033D01*
X0045695Y0079433D01*
X0068795Y0056333D01*
X0083195Y0056333D01*
X0083324Y0056085D01*
X0083495Y0063833D02*
X0083324Y0063959D01*
X0083495Y0063833D02*
X0087995Y0063833D01*
X0105695Y0046133D01*
X0105695Y0045533D01*
X0105964Y0045300D01*
X0105695Y0046433D01*
X0111695Y0046433D01*
X0118295Y0053033D01*
X0125795Y0053033D01*
X0131195Y0058433D01*
X0138995Y0058433D01*
X0181295Y0100733D01*
X0187295Y0100733D01*
X0203495Y0100733D01*
X0221945Y0082283D01*
X0221795Y0082133D01*
X0221795Y0080933D01*
X0221795Y0076433D01*
X0221891Y0076198D01*
X0222695Y0078533D02*
X0211295Y0078533D01*
X0205895Y0083933D01*
X0205895Y0085733D01*
X0203795Y0087833D01*
X0204081Y0088162D01*
X0203795Y0088133D01*
X0195695Y0088133D01*
X0195667Y0088409D01*
X0192095Y0086333D02*
X0192095Y0090833D01*
X0191495Y0091433D01*
X0186395Y0091433D01*
X0185795Y0090833D01*
X0185795Y0071333D01*
X0186695Y0070433D01*
X0186695Y0068633D01*
X0189995Y0065333D01*
X0190233Y0065093D01*
X0189995Y0065033D01*
X0187595Y0062633D01*
X0186095Y0062633D01*
X0169295Y0045833D01*
X0169295Y0046133D01*
X0105995Y0046133D01*
X0062195Y0089933D01*
X0062195Y0103133D01*
X0062195Y0107633D01*
X0062186Y0107762D01*
X0068195Y0103433D02*
X0068495Y0103433D01*
X0074195Y0097733D01*
X0076895Y0095033D01*
X0108995Y0095033D01*
X0110495Y0096533D01*
X0110495Y0104033D01*
X0136895Y0104033D01*
X0136895Y0082433D01*
X0132395Y0077933D01*
X0132395Y0061733D01*
X0133595Y0060533D01*
X0133595Y0057533D01*
X0127595Y0051533D01*
X0127595Y0046133D01*
X0127479Y0045845D01*
X0127295Y0045833D01*
X0116795Y0045833D01*
X0116495Y0045533D01*
X0116211Y0045328D01*
X0116211Y0049807D02*
X0117786Y0053744D01*
X0114636Y0053744D01*
X0116211Y0049807D01*
X0107539Y0053716D02*
X0104390Y0053716D01*
X0105964Y0049779D01*
X0107539Y0053716D01*
X0108095Y0056033D02*
X0078995Y0085133D01*
X0078995Y0086333D01*
X0074795Y0090533D01*
X0058895Y0090533D01*
X0054695Y0094733D01*
X0051395Y0094733D01*
X0051375Y0094892D01*
X0051375Y0092333D02*
X0053795Y0092333D01*
X0056195Y0089933D01*
X0102695Y0043433D01*
X0170195Y0043433D01*
X0184595Y0057833D01*
X0186695Y0059933D01*
X0189995Y0059933D01*
X0190233Y0060093D01*
X0189995Y0055133D02*
X0183695Y0055133D01*
X0180995Y0057833D01*
X0150395Y0057833D01*
X0140195Y0057833D01*
X0138395Y0056033D01*
X0108095Y0056033D01*
X0109895Y0058133D02*
X0105995Y0058133D01*
X0105964Y0058194D01*
X0102395Y0057233D02*
X0102395Y0056033D01*
X0104195Y0054233D01*
X0121595Y0054233D01*
X0131495Y0064133D01*
X0133295Y0064133D01*
X0134795Y0062633D01*
X0134795Y0046733D01*
X0134195Y0046133D01*
X0134172Y0045845D01*
X0143513Y0045622D02*
X0143795Y0045833D01*
X0144995Y0045833D01*
X0149645Y0050483D01*
X0147995Y0052133D01*
X0147995Y0098933D01*
X0174395Y0098933D01*
X0179795Y0104333D01*
X0181295Y0104333D01*
X0181570Y0104502D01*
X0178295Y0104633D02*
X0178295Y0106133D01*
X0180395Y0108233D01*
X0181295Y0108233D01*
X0181570Y0108242D01*
X0178295Y0104633D02*
X0174995Y0101333D01*
X0134495Y0101333D01*
X0120695Y0087533D01*
X0067895Y0087533D01*
X0060695Y0087533D01*
X0060601Y0087444D01*
X0060601Y0080751D02*
X0060695Y0080633D01*
X0068495Y0080633D01*
X0082295Y0066833D01*
X0092795Y0066833D01*
X0102395Y0057233D01*
X0109895Y0058133D02*
X0112595Y0055433D01*
X0118895Y0055433D01*
X0119795Y0056333D01*
X0119795Y0074333D01*
X0105095Y0089033D01*
X0105095Y0104333D01*
X0104825Y0104359D01*
X0099825Y0106859D02*
X0099825Y0101859D01*
X0102325Y0099359D01*
X0107325Y0099359D01*
X0109825Y0101859D01*
X0109825Y0106859D01*
X0107325Y0109359D01*
X0102325Y0109359D01*
X0099825Y0106859D01*
X0097325Y0109359D01*
X0092325Y0109359D01*
X0089825Y0106859D01*
X0089825Y0101859D01*
X0092325Y0099359D01*
X0097325Y0099359D01*
X0099825Y0101859D01*
X0096095Y0104333D02*
X0102995Y0097433D01*
X0108095Y0097433D01*
X0115595Y0097433D01*
X0115595Y0103133D01*
X0124895Y0103133D01*
X0125495Y0103733D01*
X0132095Y0103733D01*
X0132095Y0100433D01*
X0133595Y0098933D01*
X0147995Y0098933D01*
X0136895Y0104033D02*
X0187295Y0104033D01*
X0192995Y0109733D01*
X0313295Y0109733D01*
X0316295Y0106733D01*
X0316295Y0105533D01*
X0322295Y0099533D01*
X0322295Y0095333D01*
X0322306Y0095182D01*
X0318395Y0095633D02*
X0318395Y0096833D01*
X0320795Y0099233D01*
X0329195Y0099233D01*
X0381695Y0099233D01*
X0384995Y0095933D01*
X0389795Y0091133D01*
X0389795Y0089333D01*
X0389857Y0089062D01*
X0390995Y0087533D02*
X0391895Y0088433D01*
X0422495Y0088433D01*
X0424295Y0086633D01*
X0431195Y0086633D01*
X0431473Y0086800D01*
X0435395Y0088433D02*
X0435395Y0085133D01*
X0432995Y0082733D01*
X0426995Y0082733D01*
X0425495Y0081233D01*
X0425495Y0077933D01*
X0418895Y0084533D01*
X0408095Y0084533D01*
X0387995Y0064433D01*
X0368795Y0064433D01*
X0359795Y0055433D01*
X0332795Y0055433D01*
X0330095Y0055433D01*
X0328895Y0056633D01*
X0327395Y0056633D01*
X0327176Y0056727D01*
X0329195Y0059033D02*
X0329404Y0058954D01*
X0329195Y0059033D02*
X0329195Y0059633D01*
X0326945Y0061883D01*
X0330695Y0065633D01*
X0347495Y0065633D01*
X0385895Y0065633D01*
X0391895Y0071633D01*
X0420695Y0071633D01*
X0429095Y0071633D01*
X0432095Y0071633D01*
X0437495Y0077033D01*
X0437495Y0082733D01*
X0441395Y0086633D01*
X0441473Y0086800D01*
X0441395Y0086933D01*
X0436295Y0092033D01*
X0430595Y0092033D01*
X0424295Y0098333D01*
X0400895Y0098333D01*
X0394295Y0091733D01*
X0394295Y0089333D01*
X0394188Y0089062D01*
X0392495Y0087233D02*
X0387395Y0082133D01*
X0363695Y0082133D01*
X0352295Y0093533D01*
X0327995Y0093533D01*
X0324095Y0089633D01*
X0318995Y0089633D01*
X0317195Y0089633D01*
X0305795Y0078233D01*
X0306395Y0077333D01*
X0306395Y0078833D01*
X0279095Y0106133D01*
X0275495Y0106133D01*
X0275495Y0099533D01*
X0275795Y0099233D01*
X0275795Y0097433D01*
X0273395Y0095033D01*
X0273395Y0092033D01*
X0273395Y0073133D01*
X0273695Y0073133D01*
X0278495Y0073133D01*
X0280295Y0074933D01*
X0280375Y0074993D01*
X0279095Y0075233D02*
X0268595Y0064733D01*
X0253295Y0064733D01*
X0245495Y0072533D01*
X0235595Y0072533D01*
X0231995Y0076133D01*
X0231995Y0078533D01*
X0229295Y0081233D01*
X0228095Y0081233D01*
X0225395Y0081233D01*
X0222695Y0078533D01*
X0226895Y0079133D02*
X0226895Y0071633D01*
X0234695Y0063833D01*
X0234695Y0063533D01*
X0237995Y0060233D01*
X0240095Y0060233D01*
X0240375Y0059993D01*
X0240695Y0059933D01*
X0242795Y0062033D01*
X0246995Y0062033D01*
X0249245Y0059783D01*
X0250595Y0061133D01*
X0258395Y0061133D01*
X0261695Y0064433D01*
X0261695Y0070733D01*
X0261695Y0081833D01*
X0266195Y0086333D01*
X0266195Y0086933D01*
X0266383Y0087003D01*
X0266195Y0087233D01*
X0262595Y0090833D01*
X0262295Y0090833D01*
X0258695Y0094433D01*
X0258695Y0096533D01*
X0262745Y0100583D01*
X0257645Y0105683D01*
X0262295Y0110333D01*
X0285095Y0110333D01*
X0287195Y0108233D01*
X0287546Y0108082D01*
X0287795Y0108233D01*
X0288695Y0109133D01*
X0325595Y0109133D01*
X0327695Y0107033D01*
X0431195Y0107033D01*
X0431473Y0106800D01*
X0431195Y0106733D01*
X0417695Y0093233D01*
X0420395Y0090533D01*
X0420395Y0088733D01*
X0420566Y0088668D01*
X0420395Y0088433D01*
X0420395Y0086633D01*
X0407795Y0074033D01*
X0389495Y0074033D01*
X0385595Y0070133D01*
X0385595Y0058133D01*
X0420695Y0058133D01*
X0421747Y0058747D01*
X0421595Y0058733D01*
X0420695Y0057833D01*
X0420695Y0053033D01*
X0420566Y0052841D01*
X0426473Y0054300D02*
X0428973Y0051800D01*
X0426473Y0049300D01*
X0426473Y0044300D01*
X0428973Y0041800D01*
X0443973Y0041800D01*
X0446473Y0044300D01*
X0446473Y0049300D01*
X0443973Y0051800D01*
X0428973Y0051800D01*
X0426473Y0054300D02*
X0426473Y0059300D01*
X0428973Y0061800D01*
X0443973Y0061800D01*
X0446473Y0059300D01*
X0446473Y0054300D01*
X0443973Y0051800D01*
X0441395Y0051233D02*
X0435395Y0057233D01*
X0435395Y0058433D01*
X0435395Y0050933D01*
X0431495Y0047033D01*
X0431473Y0046800D01*
X0441395Y0047033D02*
X0441395Y0051233D01*
X0441395Y0047033D02*
X0441473Y0046800D01*
X0431473Y0056800D02*
X0431195Y0056633D01*
X0383795Y0056633D01*
X0375395Y0048233D01*
X0339095Y0048233D01*
X0336695Y0045833D01*
X0314495Y0045833D01*
X0311495Y0048833D01*
X0310295Y0048833D01*
X0300395Y0058733D01*
X0300395Y0062633D01*
X0297695Y0065333D01*
X0295895Y0065333D01*
X0294395Y0066833D01*
X0294395Y0068633D01*
X0297545Y0071783D01*
X0299195Y0070133D01*
X0302495Y0070133D01*
X0304895Y0072533D01*
X0304895Y0074633D01*
X0301295Y0078233D01*
X0301049Y0078400D01*
X0303395Y0080333D02*
X0303276Y0080627D01*
X0303395Y0080333D02*
X0306395Y0077333D01*
X0308795Y0077633D02*
X0308795Y0074633D01*
X0299495Y0065333D01*
X0287195Y0065333D01*
X0285095Y0067433D01*
X0269795Y0067433D01*
X0269495Y0067133D01*
X0256595Y0067133D01*
X0249995Y0073733D01*
X0249995Y0075233D01*
X0247595Y0077633D01*
X0247317Y0077906D01*
X0240395Y0080333D02*
X0240395Y0065333D01*
X0242945Y0062783D01*
X0238895Y0058733D01*
X0233795Y0058733D01*
X0228695Y0053633D01*
X0228557Y0053557D01*
X0232895Y0051533D02*
X0258995Y0051533D01*
X0277295Y0069833D01*
X0287495Y0069833D01*
X0290795Y0073133D01*
X0292895Y0073133D01*
X0294095Y0071933D01*
X0294368Y0071719D01*
X0293795Y0069233D02*
X0295295Y0067733D01*
X0296795Y0067733D01*
X0298595Y0067733D01*
X0308495Y0057833D01*
X0311795Y0054533D01*
X0312095Y0054533D01*
X0313295Y0054533D01*
X0317195Y0050633D01*
X0337895Y0050633D01*
X0341495Y0054233D01*
X0379595Y0054233D01*
X0408695Y0083333D01*
X0416795Y0083333D01*
X0424595Y0075533D01*
X0429995Y0075533D01*
X0431195Y0076733D01*
X0431473Y0076800D01*
X0435395Y0078533D02*
X0435395Y0074933D01*
X0431495Y0071033D01*
X0431495Y0066833D01*
X0431473Y0066800D01*
X0426473Y0064300D02*
X0428973Y0061800D01*
X0428195Y0060833D02*
X0432995Y0060833D01*
X0435395Y0058433D01*
X0431195Y0062633D01*
X0429995Y0062633D01*
X0423095Y0069533D01*
X0423095Y0084233D01*
X0425195Y0086333D01*
X0425195Y0089033D01*
X0423695Y0089033D01*
X0419195Y0093533D01*
X0399395Y0093533D01*
X0393695Y0099233D01*
X0392195Y0099233D01*
X0381395Y0110033D01*
X0332795Y0110033D01*
X0323795Y0101033D01*
X0293795Y0101033D01*
X0287495Y0101033D01*
X0279995Y0108533D01*
X0244595Y0108533D01*
X0231095Y0095033D01*
X0234995Y0095033D01*
X0235295Y0095333D01*
X0235432Y0095551D01*
X0234095Y0092633D02*
X0226295Y0092633D01*
X0216695Y0102233D01*
X0210695Y0102233D01*
X0208895Y0104033D01*
X0208895Y0107033D01*
X0207995Y0107933D01*
X0196295Y0107933D01*
X0195095Y0106733D01*
X0195095Y0099233D01*
X0188495Y0092633D01*
X0185795Y0092633D01*
X0176195Y0083033D01*
X0176195Y0068633D01*
X0176094Y0068536D01*
X0190233Y0070093D02*
X0190295Y0069833D01*
X0194795Y0069833D01*
X0214595Y0069833D01*
X0232895Y0051533D01*
X0233795Y0053333D02*
X0233795Y0053933D01*
X0254495Y0053933D01*
X0273695Y0073133D01*
X0279095Y0075233D02*
X0286895Y0075233D01*
X0292595Y0075233D01*
X0301595Y0084233D01*
X0302795Y0084233D01*
X0303995Y0083033D01*
X0305495Y0083033D01*
X0305503Y0082854D01*
X0306095Y0085133D02*
X0304895Y0086333D01*
X0300995Y0086333D01*
X0294695Y0080033D01*
X0287495Y0080033D01*
X0285095Y0082433D01*
X0265595Y0082433D01*
X0261995Y0082433D01*
X0247595Y0068033D01*
X0247317Y0067906D01*
X0248795Y0067433D02*
X0258695Y0057533D01*
X0292895Y0057533D01*
X0294095Y0058733D01*
X0294368Y0058954D01*
X0294995Y0056633D02*
X0293495Y0055133D01*
X0280595Y0055133D01*
X0280375Y0054993D01*
X0280595Y0054833D01*
X0280595Y0050033D01*
X0280375Y0049993D01*
X0280595Y0049733D01*
X0280595Y0045233D01*
X0280375Y0044993D01*
X0280295Y0045233D01*
X0240695Y0045233D01*
X0240375Y0044993D01*
X0240095Y0044933D01*
X0238595Y0043433D01*
X0218795Y0043433D01*
X0214895Y0047333D01*
X0210095Y0047333D01*
X0205595Y0051833D01*
X0197195Y0051833D01*
X0197045Y0051983D01*
X0197195Y0052133D01*
X0197195Y0073433D01*
X0190595Y0080033D01*
X0190233Y0080093D01*
X0190295Y0080033D01*
X0190233Y0080093D02*
X0189995Y0080333D01*
X0189095Y0081233D01*
X0189095Y0088133D01*
X0188974Y0088409D01*
X0192095Y0086333D02*
X0198095Y0080333D01*
X0212195Y0080333D01*
X0212280Y0080093D01*
X0208957Y0081093D02*
X0208957Y0044093D01*
X0208955Y0044017D01*
X0208949Y0043941D01*
X0208940Y0043866D01*
X0208926Y0043791D01*
X0208909Y0043717D01*
X0208888Y0043644D01*
X0208864Y0043572D01*
X0208835Y0043501D01*
X0208804Y0043432D01*
X0208769Y0043365D01*
X0208730Y0043300D01*
X0208688Y0043236D01*
X0208643Y0043175D01*
X0208595Y0043116D01*
X0208544Y0043060D01*
X0208490Y0043006D01*
X0208434Y0042955D01*
X0208375Y0042907D01*
X0208314Y0042862D01*
X0208250Y0042820D01*
X0208185Y0042781D01*
X0208118Y0042746D01*
X0208049Y0042715D01*
X0207978Y0042686D01*
X0207906Y0042662D01*
X0207833Y0042641D01*
X0207759Y0042624D01*
X0207684Y0042610D01*
X0207609Y0042601D01*
X0207533Y0042595D01*
X0207457Y0042593D01*
X0195057Y0042593D01*
X0194981Y0042595D01*
X0194905Y0042601D01*
X0194830Y0042610D01*
X0194755Y0042624D01*
X0194681Y0042641D01*
X0194608Y0042662D01*
X0194536Y0042686D01*
X0194465Y0042715D01*
X0194396Y0042746D01*
X0194329Y0042781D01*
X0194264Y0042820D01*
X0194200Y0042862D01*
X0194139Y0042907D01*
X0194080Y0042955D01*
X0194024Y0043006D01*
X0193970Y0043060D01*
X0193919Y0043116D01*
X0193871Y0043175D01*
X0193826Y0043236D01*
X0193784Y0043300D01*
X0193745Y0043365D01*
X0193710Y0043432D01*
X0193679Y0043501D01*
X0193650Y0043572D01*
X0193626Y0043644D01*
X0193605Y0043717D01*
X0193588Y0043791D01*
X0193574Y0043866D01*
X0193565Y0043941D01*
X0193559Y0044017D01*
X0193557Y0044093D01*
X0193557Y0081093D01*
X0193559Y0081169D01*
X0193565Y0081245D01*
X0193574Y0081320D01*
X0193588Y0081395D01*
X0193605Y0081469D01*
X0193626Y0081542D01*
X0193650Y0081614D01*
X0193679Y0081685D01*
X0193710Y0081754D01*
X0193745Y0081821D01*
X0193784Y0081886D01*
X0193826Y0081950D01*
X0193871Y0082011D01*
X0193919Y0082070D01*
X0193970Y0082126D01*
X0194024Y0082180D01*
X0194080Y0082231D01*
X0194139Y0082279D01*
X0194200Y0082324D01*
X0194264Y0082366D01*
X0194329Y0082405D01*
X0194396Y0082440D01*
X0194465Y0082471D01*
X0194536Y0082500D01*
X0194608Y0082524D01*
X0194681Y0082545D01*
X0194755Y0082562D01*
X0194830Y0082576D01*
X0194905Y0082585D01*
X0194981Y0082591D01*
X0195057Y0082593D01*
X0199257Y0082593D01*
X0203257Y0082593D01*
X0207457Y0082593D01*
X0207533Y0082591D01*
X0207609Y0082585D01*
X0207684Y0082576D01*
X0207759Y0082562D01*
X0207833Y0082545D01*
X0207906Y0082524D01*
X0207978Y0082500D01*
X0208049Y0082471D01*
X0208118Y0082440D01*
X0208185Y0082405D01*
X0208250Y0082366D01*
X0208314Y0082324D01*
X0208375Y0082279D01*
X0208434Y0082231D01*
X0208490Y0082180D01*
X0208544Y0082126D01*
X0208595Y0082070D01*
X0208643Y0082011D01*
X0208688Y0081950D01*
X0208730Y0081886D01*
X0208769Y0081821D01*
X0208804Y0081754D01*
X0208835Y0081685D01*
X0208864Y0081614D01*
X0208888Y0081542D01*
X0208909Y0081469D01*
X0208926Y0081395D01*
X0208940Y0081320D01*
X0208949Y0081245D01*
X0208955Y0081169D01*
X0208957Y0081093D01*
X0210395Y0082733D02*
X0207095Y0086033D01*
X0207095Y0091733D01*
X0204095Y0094733D01*
X0204081Y0094855D01*
X0203795Y0095033D01*
X0198995Y0099833D01*
X0198995Y0104933D01*
X0198872Y0104941D01*
X0205565Y0104941D02*
X0205595Y0104933D01*
X0205595Y0098933D01*
X0209795Y0094733D01*
X0209795Y0093233D01*
X0214295Y0088733D01*
X0217295Y0088733D01*
X0226895Y0079133D01*
X0229491Y0076198D02*
X0229595Y0076133D01*
X0229595Y0073433D01*
X0235595Y0067433D01*
X0248795Y0067433D01*
X0245195Y0065033D02*
X0253595Y0065033D01*
X0259295Y0070733D01*
X0259295Y0071933D01*
X0266495Y0079133D01*
X0279695Y0079133D01*
X0280295Y0079733D01*
X0280375Y0079993D01*
X0280595Y0079733D01*
X0282695Y0077633D01*
X0291695Y0077633D01*
X0297545Y0071783D01*
X0293795Y0069233D02*
X0292295Y0069233D01*
X0292141Y0069492D01*
X0289895Y0069533D02*
X0289895Y0076133D01*
X0276695Y0089333D01*
X0276695Y0092033D01*
X0274745Y0093983D01*
X0280295Y0099533D01*
X0280295Y0101333D01*
X0278795Y0102833D01*
X0261095Y0102833D01*
X0261095Y0095633D01*
X0263495Y0093233D01*
X0266795Y0093233D01*
X0267074Y0093082D01*
X0267095Y0093233D01*
X0268295Y0094433D02*
X0256895Y0083033D01*
X0255695Y0083033D01*
X0251795Y0086933D01*
X0251691Y0087096D01*
X0251495Y0087233D01*
X0248495Y0090233D01*
X0246095Y0090233D01*
X0245495Y0090833D01*
X0245495Y0091133D01*
X0237995Y0098633D01*
X0236495Y0098633D01*
X0231995Y0103133D01*
X0231995Y0107633D01*
X0232895Y0108533D01*
X0237995Y0108533D01*
X0238895Y0107633D01*
X0244295Y0107633D01*
X0244514Y0107481D01*
X0241895Y0105233D02*
X0243095Y0104033D01*
X0246995Y0104033D01*
X0250295Y0107333D01*
X0250420Y0107481D01*
X0250595Y0107333D01*
X0255395Y0102533D01*
X0255395Y0095933D01*
X0259595Y0091733D01*
X0259595Y0087233D01*
X0259690Y0087003D01*
X0254195Y0085433D02*
X0245495Y0085433D01*
X0240395Y0080333D01*
X0242495Y0083933D02*
X0238895Y0087533D01*
X0238895Y0087833D01*
X0234095Y0092633D01*
X0231095Y0091433D02*
X0231095Y0095033D01*
X0231095Y0091433D02*
X0221945Y0082283D01*
X0215795Y0081533D02*
X0214595Y0082733D01*
X0210395Y0082733D01*
X0215795Y0081533D02*
X0215795Y0077633D01*
X0219995Y0073433D01*
X0220295Y0073433D01*
X0225395Y0068333D01*
X0225691Y0068198D01*
X0222995Y0068033D02*
X0219095Y0071933D01*
X0214295Y0071933D01*
X0212495Y0070133D01*
X0212280Y0070093D01*
X0218195Y0069533D02*
X0219695Y0069533D01*
X0231995Y0081833D01*
X0231995Y0081233D01*
X0237995Y0075233D01*
X0240095Y0075233D01*
X0240375Y0074993D01*
X0231391Y0073698D02*
X0231391Y0070698D01*
X0219991Y0070698D01*
X0219991Y0073698D01*
X0231391Y0073698D01*
X0222995Y0068033D02*
X0222995Y0066233D01*
X0223895Y0065333D01*
X0224495Y0065333D01*
X0227795Y0062033D01*
X0228995Y0062033D01*
X0229063Y0061885D01*
X0222370Y0061885D02*
X0222095Y0062033D01*
X0222095Y0065333D01*
X0220595Y0066833D01*
X0220595Y0067133D01*
X0240695Y0087233D01*
X0240695Y0089333D01*
X0242795Y0089333D01*
X0244895Y0087233D01*
X0244998Y0087096D01*
X0245195Y0086933D01*
X0249095Y0083033D01*
X0253595Y0083033D01*
X0266195Y0095633D01*
X0273995Y0095633D01*
X0277895Y0099533D01*
X0277895Y0100433D01*
X0277895Y0095933D01*
X0282995Y0090833D01*
X0292295Y0090833D01*
X0293795Y0092333D01*
X0296195Y0092333D01*
X0298295Y0092333D01*
X0298445Y0092483D01*
X0308795Y0082133D01*
X0308795Y0076433D01*
X0305795Y0073433D01*
X0302495Y0073433D01*
X0299795Y0076133D01*
X0298895Y0076133D01*
X0298822Y0076173D01*
X0308795Y0077633D02*
X0315995Y0084833D01*
X0316041Y0085081D01*
X0318395Y0084533D02*
X0318395Y0083033D01*
X0318268Y0082854D01*
X0318395Y0084533D02*
X0331595Y0097733D01*
X0331595Y0101033D01*
X0333695Y0103133D01*
X0354095Y0103133D01*
X0356795Y0100433D01*
X0356795Y0097433D01*
X0364295Y0089933D01*
X0367895Y0089933D01*
X0372395Y0085433D01*
X0372395Y0085133D01*
X0376595Y0080933D01*
X0409595Y0080933D01*
X0409595Y0079433D01*
X0428195Y0060833D01*
X0426473Y0064300D02*
X0426473Y0069300D01*
X0428973Y0071800D01*
X0443973Y0071800D01*
X0446473Y0069300D01*
X0446473Y0064300D01*
X0443973Y0061800D01*
X0443973Y0071800D02*
X0446473Y0074300D01*
X0446473Y0079300D01*
X0443973Y0081800D01*
X0428973Y0081800D01*
X0426473Y0079300D01*
X0426473Y0074300D01*
X0428973Y0071800D01*
X0437495Y0080933D02*
X0441395Y0077033D01*
X0441473Y0076800D01*
X0435395Y0078533D02*
X0431195Y0082733D01*
X0424295Y0082733D01*
X0419795Y0087233D01*
X0392495Y0087233D01*
X0390995Y0087533D02*
X0381995Y0087533D01*
X0380795Y0086333D01*
X0366395Y0086333D01*
X0336395Y0086333D01*
X0335495Y0085433D01*
X0335495Y0083033D01*
X0333395Y0080933D01*
X0330095Y0080933D01*
X0321995Y0072833D01*
X0315995Y0072833D01*
X0307295Y0064133D01*
X0296495Y0064133D01*
X0293795Y0061433D01*
X0292295Y0061433D01*
X0292141Y0061181D01*
X0295295Y0064133D02*
X0289895Y0069533D01*
X0293359Y0066325D02*
X0293359Y0064348D01*
X0311886Y0045821D01*
X0331401Y0065336D01*
X0311886Y0084852D01*
X0293359Y0066325D01*
X0295198Y0065336D02*
X0295200Y0065411D01*
X0295206Y0065485D01*
X0295216Y0065559D01*
X0295229Y0065632D01*
X0295247Y0065705D01*
X0295268Y0065776D01*
X0295293Y0065847D01*
X0295322Y0065916D01*
X0295355Y0065983D01*
X0295391Y0066048D01*
X0295430Y0066112D01*
X0295472Y0066173D01*
X0295518Y0066232D01*
X0295567Y0066289D01*
X0295619Y0066342D01*
X0295673Y0066393D01*
X0295730Y0066442D01*
X0295790Y0066486D01*
X0295852Y0066528D01*
X0295916Y0066567D01*
X0295982Y0066602D01*
X0296049Y0066633D01*
X0296119Y0066661D01*
X0296189Y0066685D01*
X0296261Y0066706D01*
X0296334Y0066722D01*
X0296407Y0066735D01*
X0296482Y0066744D01*
X0296556Y0066749D01*
X0296631Y0066750D01*
X0296705Y0066747D01*
X0296780Y0066740D01*
X0296853Y0066729D01*
X0296927Y0066715D01*
X0296999Y0066696D01*
X0297070Y0066674D01*
X0297140Y0066648D01*
X0297209Y0066618D01*
X0297275Y0066585D01*
X0297340Y0066548D01*
X0297403Y0066508D01*
X0297464Y0066464D01*
X0297522Y0066418D01*
X0297578Y0066368D01*
X0297631Y0066316D01*
X0297682Y0066261D01*
X0297729Y0066203D01*
X0297773Y0066143D01*
X0297814Y0066080D01*
X0297852Y0066016D01*
X0297886Y0065950D01*
X0297917Y0065881D01*
X0297944Y0065812D01*
X0297967Y0065741D01*
X0297986Y0065669D01*
X0298002Y0065596D01*
X0298014Y0065522D01*
X0298022Y0065448D01*
X0298026Y0065373D01*
X0298026Y0065299D01*
X0298022Y0065224D01*
X0298014Y0065150D01*
X0298002Y0065076D01*
X0297986Y0065003D01*
X0297967Y0064931D01*
X0297944Y0064860D01*
X0297917Y0064791D01*
X0297886Y0064722D01*
X0297852Y0064656D01*
X0297814Y0064592D01*
X0297773Y0064529D01*
X0297729Y0064469D01*
X0297682Y0064411D01*
X0297631Y0064356D01*
X0297578Y0064304D01*
X0297522Y0064254D01*
X0297464Y0064208D01*
X0297403Y0064164D01*
X0297340Y0064124D01*
X0297275Y0064087D01*
X0297209Y0064054D01*
X0297140Y0064024D01*
X0297070Y0063998D01*
X0296999Y0063976D01*
X0296927Y0063957D01*
X0296853Y0063943D01*
X0296780Y0063932D01*
X0296705Y0063925D01*
X0296631Y0063922D01*
X0296556Y0063923D01*
X0296482Y0063928D01*
X0296407Y0063937D01*
X0296334Y0063950D01*
X0296261Y0063966D01*
X0296189Y0063987D01*
X0296119Y0064011D01*
X0296049Y0064039D01*
X0295982Y0064070D01*
X0295916Y0064105D01*
X0295852Y0064144D01*
X0295790Y0064186D01*
X0295730Y0064230D01*
X0295673Y0064279D01*
X0295619Y0064330D01*
X0295567Y0064383D01*
X0295518Y0064440D01*
X0295472Y0064499D01*
X0295430Y0064560D01*
X0295391Y0064624D01*
X0295355Y0064689D01*
X0295322Y0064756D01*
X0295293Y0064825D01*
X0295268Y0064896D01*
X0295247Y0064967D01*
X0295229Y0065040D01*
X0295216Y0065113D01*
X0295206Y0065187D01*
X0295200Y0065261D01*
X0295198Y0065336D01*
X0295295Y0064133D02*
X0295595Y0064133D01*
X0297995Y0061733D01*
X0299495Y0060233D01*
X0304895Y0060233D01*
X0305045Y0060083D01*
X0304895Y0059933D01*
X0304895Y0053033D01*
X0303395Y0051533D01*
X0303395Y0050333D01*
X0303276Y0050046D01*
X0303095Y0050033D01*
X0301595Y0048533D01*
X0299795Y0048533D01*
X0297395Y0050933D01*
X0297395Y0051533D01*
X0298595Y0052733D01*
X0298595Y0054233D01*
X0298822Y0054500D01*
X0301295Y0053933D02*
X0302495Y0055133D01*
X0302495Y0055733D01*
X0300095Y0058133D01*
X0297995Y0058133D01*
X0296795Y0056933D01*
X0296595Y0056727D01*
X0296495Y0056633D01*
X0294995Y0056633D01*
X0301295Y0053933D02*
X0301295Y0052433D01*
X0301049Y0052273D01*
X0305795Y0049733D02*
X0306995Y0050933D01*
X0306995Y0056033D01*
X0306095Y0056933D01*
X0306095Y0059333D01*
X0309695Y0062933D01*
X0318395Y0062933D01*
X0330395Y0062933D01*
X0333095Y0065633D01*
X0334895Y0065633D01*
X0336395Y0064133D01*
X0336395Y0062333D01*
X0330395Y0056333D01*
X0330395Y0053033D01*
X0330395Y0050033D01*
X0332495Y0047933D01*
X0332729Y0047829D01*
X0337295Y0048233D02*
X0326795Y0048233D01*
X0322895Y0052133D01*
X0322722Y0052273D01*
X0323795Y0053033D02*
X0333995Y0063233D01*
X0333995Y0062333D01*
X0339395Y0056933D01*
X0339395Y0054533D01*
X0339411Y0054510D01*
X0336995Y0057833D02*
X0335195Y0057833D01*
X0331895Y0061133D01*
X0331631Y0061181D01*
X0326945Y0061883D02*
X0323495Y0065333D01*
X0320495Y0065333D01*
X0315395Y0070433D01*
X0315395Y0092033D01*
X0312395Y0095033D01*
X0312306Y0095182D01*
X0313895Y0099233D02*
X0316595Y0096533D01*
X0316595Y0088733D01*
X0318095Y0087233D01*
X0331895Y0087233D01*
X0339695Y0079433D01*
X0339695Y0075233D01*
X0341195Y0075233D01*
X0351695Y0064733D01*
X0351695Y0058433D01*
X0351962Y0058247D01*
X0358595Y0058133D02*
X0358595Y0054233D01*
X0356795Y0052433D01*
X0356625Y0052277D01*
X0358595Y0053933D01*
X0360095Y0052433D01*
X0364295Y0052433D01*
X0364338Y0052244D01*
X0364295Y0052733D01*
X0364295Y0056633D01*
X0365195Y0056633D01*
X0369695Y0061133D01*
X0374795Y0061133D01*
X0377345Y0058583D01*
X0377795Y0059033D01*
X0379595Y0059033D01*
X0380495Y0058133D01*
X0385595Y0058133D01*
X0380195Y0055133D02*
X0378695Y0056633D01*
X0368495Y0056633D01*
X0367595Y0056633D01*
X0357995Y0066233D01*
X0351995Y0066233D01*
X0340595Y0077633D01*
X0326195Y0077633D01*
X0324995Y0076433D01*
X0324949Y0076173D01*
X0322895Y0077033D02*
X0319595Y0073733D01*
X0319595Y0069533D01*
X0321095Y0068033D01*
X0321095Y0062033D01*
X0315395Y0056333D01*
X0315395Y0050633D01*
X0318095Y0047933D01*
X0318268Y0047819D01*
X0320495Y0050046D02*
X0320195Y0050333D01*
X0320195Y0051833D01*
X0317795Y0054233D01*
X0317795Y0055433D01*
X0312995Y0060233D01*
X0312995Y0075233D01*
X0309995Y0078233D01*
X0309995Y0084233D01*
X0305195Y0089033D01*
X0311795Y0089033D01*
X0318395Y0095633D01*
X0317795Y0094133D02*
X0317795Y0099533D01*
X0312395Y0104933D01*
X0312306Y0105182D01*
X0307306Y0107682D02*
X0304806Y0110182D01*
X0299806Y0110182D01*
X0297306Y0107682D01*
X0297306Y0092682D01*
X0299806Y0090182D01*
X0304806Y0090182D01*
X0307306Y0092682D01*
X0307306Y0107682D01*
X0309806Y0110182D01*
X0314806Y0110182D01*
X0317306Y0107682D01*
X0317306Y0092682D01*
X0314806Y0090182D01*
X0309806Y0090182D01*
X0307306Y0092682D01*
X0307295Y0094433D02*
X0299495Y0086633D01*
X0294395Y0086633D01*
X0294144Y0086547D01*
X0291395Y0082433D02*
X0287495Y0086333D01*
X0287451Y0086547D01*
X0291395Y0082433D02*
X0291395Y0081233D01*
X0310595Y0062033D01*
X0310595Y0060533D01*
X0315995Y0060533D01*
X0318695Y0060533D01*
X0321395Y0057833D01*
X0324695Y0054533D01*
X0324949Y0054500D01*
X0323795Y0053033D02*
X0316595Y0053033D01*
X0315095Y0054533D01*
X0315095Y0054833D01*
X0312995Y0056933D01*
X0311195Y0056933D01*
X0309695Y0055433D01*
X0309695Y0053633D01*
X0311195Y0052133D01*
X0311195Y0051233D01*
X0311195Y0050633D01*
X0307895Y0047333D01*
X0307895Y0045833D01*
X0307730Y0045591D01*
X0305795Y0047933D02*
X0305503Y0047819D01*
X0305795Y0047933D02*
X0305795Y0049733D01*
X0311795Y0045233D02*
X0249995Y0045233D01*
X0247595Y0047633D01*
X0247317Y0047906D01*
X0240395Y0049733D02*
X0240395Y0045233D01*
X0240375Y0044993D01*
X0240395Y0049733D02*
X0240375Y0049993D01*
X0240395Y0050033D01*
X0240395Y0054833D01*
X0240375Y0054993D01*
X0240395Y0055133D01*
X0240395Y0059933D01*
X0240375Y0059993D01*
X0242945Y0062783D02*
X0245195Y0065033D01*
X0249245Y0059783D02*
X0247595Y0058133D01*
X0247317Y0057906D01*
X0258395Y0061133D02*
X0280595Y0061133D01*
X0280375Y0059993D01*
X0280595Y0060233D01*
X0280595Y0061133D01*
X0280595Y0064733D01*
X0280375Y0064993D01*
X0280295Y0069833D02*
X0270395Y0069833D01*
X0268895Y0068333D01*
X0259295Y0068333D01*
X0243695Y0083933D01*
X0242495Y0083933D01*
X0238295Y0088133D02*
X0238295Y0090233D01*
X0250895Y0102833D01*
X0261095Y0102833D01*
X0262745Y0100583D02*
X0264995Y0098333D01*
X0266795Y0098333D01*
X0267074Y0098082D01*
X0267095Y0098333D02*
X0254195Y0085433D01*
X0261175Y0079783D02*
X0261177Y0079855D01*
X0261183Y0079927D01*
X0261193Y0079998D01*
X0261206Y0080069D01*
X0261224Y0080139D01*
X0261245Y0080208D01*
X0261270Y0080276D01*
X0261299Y0080342D01*
X0261331Y0080406D01*
X0261367Y0080469D01*
X0261406Y0080529D01*
X0261449Y0080588D01*
X0261494Y0080644D01*
X0261543Y0080697D01*
X0261594Y0080748D01*
X0261648Y0080795D01*
X0261705Y0080840D01*
X0261764Y0080882D01*
X0261825Y0080920D01*
X0261888Y0080955D01*
X0261953Y0080986D01*
X0262019Y0081014D01*
X0262087Y0081038D01*
X0262156Y0081059D01*
X0262226Y0081075D01*
X0262297Y0081088D01*
X0262369Y0081097D01*
X0262441Y0081102D01*
X0262513Y0081103D01*
X0262585Y0081100D01*
X0262657Y0081093D01*
X0262728Y0081082D01*
X0262799Y0081068D01*
X0262868Y0081049D01*
X0262937Y0081027D01*
X0263004Y0081001D01*
X0263070Y0080971D01*
X0263134Y0080938D01*
X0263196Y0080901D01*
X0263256Y0080861D01*
X0263314Y0080818D01*
X0263369Y0080772D01*
X0263422Y0080723D01*
X0263472Y0080671D01*
X0263519Y0080616D01*
X0263563Y0080559D01*
X0263604Y0080499D01*
X0263641Y0080438D01*
X0263675Y0080374D01*
X0263706Y0080309D01*
X0263733Y0080242D01*
X0263756Y0080174D01*
X0263775Y0080104D01*
X0263791Y0080034D01*
X0263803Y0079963D01*
X0263811Y0079891D01*
X0263815Y0079819D01*
X0263815Y0079747D01*
X0263811Y0079675D01*
X0263803Y0079603D01*
X0263791Y0079532D01*
X0263775Y0079462D01*
X0263756Y0079392D01*
X0263733Y0079324D01*
X0263706Y0079257D01*
X0263675Y0079192D01*
X0263641Y0079128D01*
X0263604Y0079067D01*
X0263563Y0079007D01*
X0263519Y0078950D01*
X0263472Y0078895D01*
X0263422Y0078843D01*
X0263369Y0078794D01*
X0263314Y0078748D01*
X0263256Y0078705D01*
X0263196Y0078665D01*
X0263134Y0078628D01*
X0263070Y0078595D01*
X0263004Y0078565D01*
X0262937Y0078539D01*
X0262868Y0078517D01*
X0262799Y0078498D01*
X0262728Y0078484D01*
X0262657Y0078473D01*
X0262585Y0078466D01*
X0262513Y0078463D01*
X0262441Y0078464D01*
X0262369Y0078469D01*
X0262297Y0078478D01*
X0262226Y0078491D01*
X0262156Y0078507D01*
X0262087Y0078528D01*
X0262019Y0078552D01*
X0261953Y0078580D01*
X0261888Y0078611D01*
X0261825Y0078646D01*
X0261764Y0078684D01*
X0261705Y0078726D01*
X0261648Y0078771D01*
X0261594Y0078818D01*
X0261543Y0078869D01*
X0261494Y0078922D01*
X0261449Y0078978D01*
X0261406Y0079037D01*
X0261367Y0079097D01*
X0261331Y0079160D01*
X0261299Y0079224D01*
X0261270Y0079290D01*
X0261245Y0079358D01*
X0261224Y0079427D01*
X0261206Y0079497D01*
X0261193Y0079568D01*
X0261183Y0079639D01*
X0261177Y0079711D01*
X0261175Y0079783D01*
X0266383Y0087003D02*
X0266495Y0087233D01*
X0273095Y0087233D01*
X0273289Y0087003D01*
X0276695Y0092033D02*
X0279695Y0089033D01*
X0279695Y0087233D01*
X0279982Y0087003D01*
X0274745Y0093983D02*
X0274295Y0094433D01*
X0268295Y0094433D01*
X0267095Y0098333D02*
X0273395Y0098333D01*
X0273395Y0098633D01*
X0269195Y0102833D01*
X0267095Y0102833D01*
X0267074Y0103082D01*
X0268895Y0106133D02*
X0267095Y0107933D01*
X0267074Y0108082D01*
X0268895Y0106133D02*
X0275495Y0106133D01*
X0287495Y0107933D02*
X0287495Y0103133D01*
X0287546Y0103082D01*
X0287495Y0102833D01*
X0287495Y0098333D01*
X0287546Y0098082D01*
X0287495Y0098033D01*
X0287495Y0095333D01*
X0302195Y0095333D01*
X0302306Y0095182D01*
X0302495Y0095033D01*
X0312995Y0084533D01*
X0312995Y0078533D01*
X0314495Y0077033D01*
X0319895Y0077033D01*
X0321095Y0078233D01*
X0322595Y0078233D01*
X0322722Y0078400D01*
X0322895Y0078533D01*
X0322895Y0077033D02*
X0322895Y0084833D01*
X0334295Y0096233D01*
X0334295Y0098933D01*
X0334335Y0099144D01*
X0332435Y0101644D02*
X0332435Y0104644D01*
X0343835Y0104644D01*
X0343835Y0101644D01*
X0332435Y0101644D01*
X0341795Y0098933D02*
X0341935Y0099144D01*
X0341795Y0098933D02*
X0334295Y0091433D01*
X0334170Y0091296D01*
X0333995Y0091133D01*
X0333995Y0084833D01*
X0332495Y0083333D01*
X0332495Y0074933D01*
X0334295Y0073133D01*
X0330695Y0073133D01*
X0329495Y0071933D01*
X0329404Y0071719D01*
X0329195Y0071633D01*
X0327995Y0070433D01*
X0315395Y0070433D01*
X0305045Y0060083D01*
X0280375Y0069993D02*
X0280295Y0069833D01*
X0306095Y0085133D02*
X0307595Y0085133D01*
X0307730Y0085081D01*
X0317306Y0092682D02*
X0319806Y0090182D01*
X0324806Y0090182D01*
X0327306Y0092682D01*
X0327306Y0107682D01*
X0324806Y0110182D01*
X0319806Y0110182D01*
X0317306Y0107682D01*
X0322306Y0105182D02*
X0322595Y0104933D01*
X0376595Y0104933D01*
X0379895Y0101633D01*
X0387395Y0101633D01*
X0387395Y0095033D01*
X0382295Y0089933D01*
X0381395Y0089933D01*
X0379895Y0088433D01*
X0379895Y0083633D01*
X0381395Y0082133D01*
X0400295Y0082133D01*
X0401795Y0083633D01*
X0403895Y0083633D01*
X0408695Y0083633D01*
X0411395Y0086333D01*
X0411395Y0089033D01*
X0411511Y0089062D01*
X0415595Y0089033D02*
X0415645Y0089062D01*
X0415595Y0089033D02*
X0415595Y0083633D01*
X0410495Y0078533D01*
X0377195Y0078533D01*
X0371195Y0084533D01*
X0371195Y0084833D01*
X0367295Y0088733D01*
X0363695Y0088733D01*
X0352895Y0099533D01*
X0351995Y0099533D01*
X0351983Y0099798D01*
X0351695Y0095933D02*
X0344795Y0095933D01*
X0328595Y0095933D01*
X0323795Y0091133D01*
X0320795Y0091133D01*
X0317795Y0094133D01*
X0310595Y0099233D02*
X0307295Y0095933D01*
X0307295Y0094433D01*
X0310595Y0099233D02*
X0313895Y0099233D01*
X0302195Y0104933D02*
X0302306Y0105182D01*
X0302195Y0104933D02*
X0298295Y0101033D01*
X0298295Y0092633D01*
X0298445Y0092483D01*
X0287546Y0093082D02*
X0287495Y0093233D01*
X0287495Y0095333D01*
X0285521Y0093533D02*
X0285523Y0093598D01*
X0285529Y0093664D01*
X0285539Y0093728D01*
X0285553Y0093792D01*
X0285571Y0093856D01*
X0285592Y0093917D01*
X0285617Y0093978D01*
X0285646Y0094037D01*
X0285679Y0094093D01*
X0285715Y0094148D01*
X0285754Y0094201D01*
X0285796Y0094251D01*
X0285841Y0094298D01*
X0285889Y0094343D01*
X0285940Y0094384D01*
X0285993Y0094423D01*
X0286049Y0094458D01*
X0286106Y0094489D01*
X0286165Y0094517D01*
X0286226Y0094542D01*
X0286288Y0094562D01*
X0286351Y0094579D01*
X0286416Y0094592D01*
X0286481Y0094601D01*
X0286546Y0094606D01*
X0286611Y0094607D01*
X0286677Y0094604D01*
X0286742Y0094597D01*
X0286807Y0094586D01*
X0286870Y0094571D01*
X0286933Y0094552D01*
X0286995Y0094530D01*
X0287055Y0094504D01*
X0287113Y0094474D01*
X0287169Y0094441D01*
X0287224Y0094404D01*
X0287276Y0094364D01*
X0287325Y0094321D01*
X0287372Y0094275D01*
X0287415Y0094226D01*
X0287456Y0094175D01*
X0287494Y0094121D01*
X0287528Y0094065D01*
X0287559Y0094007D01*
X0287586Y0093948D01*
X0287609Y0093887D01*
X0287629Y0093824D01*
X0287645Y0093761D01*
X0287657Y0093696D01*
X0287665Y0093631D01*
X0287669Y0093566D01*
X0287669Y0093500D01*
X0287665Y0093435D01*
X0287657Y0093370D01*
X0287645Y0093305D01*
X0287629Y0093242D01*
X0287609Y0093179D01*
X0287586Y0093118D01*
X0287559Y0093059D01*
X0287528Y0093001D01*
X0287494Y0092945D01*
X0287456Y0092891D01*
X0287415Y0092840D01*
X0287372Y0092791D01*
X0287325Y0092745D01*
X0287276Y0092702D01*
X0287224Y0092662D01*
X0287169Y0092625D01*
X0287113Y0092592D01*
X0287055Y0092562D01*
X0286995Y0092536D01*
X0286933Y0092514D01*
X0286870Y0092495D01*
X0286807Y0092480D01*
X0286742Y0092469D01*
X0286677Y0092462D01*
X0286611Y0092459D01*
X0286546Y0092460D01*
X0286481Y0092465D01*
X0286416Y0092474D01*
X0286351Y0092487D01*
X0286288Y0092504D01*
X0286226Y0092524D01*
X0286165Y0092549D01*
X0286106Y0092577D01*
X0286049Y0092608D01*
X0285993Y0092643D01*
X0285940Y0092682D01*
X0285889Y0092723D01*
X0285841Y0092768D01*
X0285796Y0092815D01*
X0285754Y0092865D01*
X0285715Y0092918D01*
X0285679Y0092973D01*
X0285646Y0093029D01*
X0285617Y0093088D01*
X0285592Y0093149D01*
X0285571Y0093210D01*
X0285553Y0093274D01*
X0285539Y0093338D01*
X0285529Y0093402D01*
X0285523Y0093468D01*
X0285521Y0093533D01*
X0257645Y0105683D02*
X0256595Y0106733D01*
X0256595Y0107333D01*
X0256325Y0107481D01*
X0241895Y0105233D02*
X0235595Y0105233D01*
X0235432Y0105394D01*
X0238295Y0088133D02*
X0231995Y0081833D01*
X0218195Y0069533D02*
X0218195Y0060533D01*
X0221795Y0056933D01*
X0221795Y0053633D01*
X0221864Y0053557D01*
X0221795Y0053333D01*
X0221795Y0046433D01*
X0221564Y0046364D01*
X0228257Y0046364D02*
X0228395Y0046433D01*
X0228395Y0047933D01*
X0233795Y0053333D01*
X0197045Y0051983D02*
X0192995Y0047933D01*
X0181595Y0047933D01*
X0178895Y0050633D01*
X0177695Y0050633D01*
X0177407Y0050662D01*
X0177395Y0050633D01*
X0149795Y0050633D01*
X0149645Y0050483D01*
X0150395Y0045833D02*
X0150206Y0045622D01*
X0150395Y0045833D02*
X0169295Y0045833D01*
X0177407Y0045938D02*
X0177695Y0045833D01*
X0178295Y0045233D01*
X0189995Y0045233D01*
X0190233Y0045093D01*
X0190233Y0050093D02*
X0189995Y0050333D01*
X0183995Y0050333D01*
X0179195Y0055133D01*
X0177695Y0055133D01*
X0177407Y0055387D01*
X0189995Y0055133D02*
X0190233Y0055093D01*
X0191695Y0084733D02*
X0191732Y0084801D01*
X0191772Y0084867D01*
X0191815Y0084931D01*
X0191861Y0084992D01*
X0191911Y0085051D01*
X0191963Y0085108D01*
X0192018Y0085162D01*
X0192076Y0085213D01*
X0192136Y0085261D01*
X0192199Y0085307D01*
X0192264Y0085348D01*
X0192330Y0085387D01*
X0192399Y0085422D01*
X0192469Y0085454D01*
X0192541Y0085482D01*
X0192614Y0085507D01*
X0192688Y0085528D01*
X0192763Y0085545D01*
X0192839Y0085559D01*
X0192916Y0085568D01*
X0192993Y0085574D01*
X0193070Y0085576D01*
X0193147Y0085574D01*
X0193224Y0085568D01*
X0193301Y0085559D01*
X0193377Y0085545D01*
X0193452Y0085528D01*
X0193526Y0085507D01*
X0193599Y0085482D01*
X0193671Y0085454D01*
X0193741Y0085422D01*
X0193810Y0085387D01*
X0193876Y0085348D01*
X0193941Y0085307D01*
X0194004Y0085261D01*
X0194064Y0085213D01*
X0194122Y0085162D01*
X0194177Y0085108D01*
X0194229Y0085051D01*
X0194279Y0084992D01*
X0194325Y0084931D01*
X0194368Y0084867D01*
X0194408Y0084801D01*
X0194445Y0084733D01*
X0199257Y0082593D02*
X0199259Y0082505D01*
X0199265Y0082416D01*
X0199275Y0082328D01*
X0199288Y0082241D01*
X0199306Y0082154D01*
X0199327Y0082068D01*
X0199352Y0081983D01*
X0199381Y0081900D01*
X0199414Y0081817D01*
X0199450Y0081737D01*
X0199489Y0081658D01*
X0199532Y0081580D01*
X0199579Y0081505D01*
X0199629Y0081432D01*
X0199682Y0081361D01*
X0199738Y0081292D01*
X0199797Y0081226D01*
X0199859Y0081163D01*
X0199923Y0081103D01*
X0199990Y0081045D01*
X0200060Y0080991D01*
X0200132Y0080939D01*
X0200206Y0080891D01*
X0200283Y0080846D01*
X0200361Y0080805D01*
X0200441Y0080767D01*
X0200522Y0080733D01*
X0200605Y0080702D01*
X0200690Y0080675D01*
X0200775Y0080652D01*
X0200861Y0080633D01*
X0200949Y0080617D01*
X0201036Y0080605D01*
X0201124Y0080597D01*
X0201213Y0080593D01*
X0201301Y0080593D01*
X0201390Y0080597D01*
X0201478Y0080605D01*
X0201565Y0080617D01*
X0201653Y0080633D01*
X0201739Y0080652D01*
X0201824Y0080675D01*
X0201909Y0080702D01*
X0201992Y0080733D01*
X0202073Y0080767D01*
X0202153Y0080805D01*
X0202231Y0080846D01*
X0202308Y0080891D01*
X0202382Y0080939D01*
X0202454Y0080991D01*
X0202524Y0081045D01*
X0202591Y0081103D01*
X0202655Y0081163D01*
X0202717Y0081226D01*
X0202776Y0081292D01*
X0202832Y0081361D01*
X0202885Y0081432D01*
X0202935Y0081505D01*
X0202982Y0081580D01*
X0203025Y0081658D01*
X0203064Y0081737D01*
X0203100Y0081817D01*
X0203133Y0081900D01*
X0203162Y0081983D01*
X0203187Y0082068D01*
X0203208Y0082154D01*
X0203226Y0082241D01*
X0203239Y0082328D01*
X0203249Y0082416D01*
X0203255Y0082505D01*
X0203257Y0082593D01*
X0191807Y0100762D02*
X0191795Y0101033D01*
X0190295Y0101033D01*
X0187295Y0104033D01*
X0187295Y0100733D02*
X0181595Y0100733D01*
X0181570Y0100762D01*
X0173495Y0106433D02*
X0170795Y0103733D01*
X0132095Y0103733D01*
X0122194Y0106136D02*
X0121895Y0106433D01*
X0120695Y0106433D01*
X0117995Y0109133D01*
X0112895Y0109133D01*
X0110495Y0106733D01*
X0110495Y0104033D01*
X0115595Y0103133D02*
X0115595Y0106133D01*
X0115501Y0106136D01*
X0115595Y0097433D02*
X0115595Y0091133D01*
X0116495Y0090233D01*
X0116679Y0090161D01*
X0096095Y0104333D02*
X0094895Y0104333D01*
X0094825Y0104359D01*
X0094595Y0104333D01*
X0082595Y0104333D01*
X0082378Y0104403D01*
X0082295Y0104633D01*
X0077195Y0104633D01*
X0074195Y0107633D01*
X0073998Y0107762D01*
X0074195Y0097733D02*
X0082295Y0097733D01*
X0082378Y0097710D01*
X0084352Y0084107D02*
X0084395Y0083933D01*
X0084395Y0082133D01*
X0097895Y0068633D01*
X0101195Y0068633D01*
X0111395Y0058433D01*
X0116195Y0058433D01*
X0116211Y0058222D01*
X0168225Y0106733D02*
X0168395Y0106733D01*
X0169295Y0106733D01*
X0172895Y0110333D01*
X0189995Y0110333D01*
X0191795Y0108533D01*
X0191807Y0108242D01*
X0174918Y0106733D02*
X0174695Y0106433D01*
X0173495Y0106433D01*
X0287495Y0107933D02*
X0287546Y0108082D01*
X0287495Y0108233D01*
X0332270Y0088796D02*
X0332270Y0085796D01*
X0343670Y0085796D01*
X0343670Y0088796D01*
X0332270Y0088796D01*
X0341795Y0091133D02*
X0341770Y0091296D01*
X0341795Y0091133D02*
X0342995Y0091133D01*
X0345395Y0088733D01*
X0345395Y0076133D01*
X0345395Y0075233D01*
X0353195Y0067433D01*
X0360995Y0067433D01*
X0370895Y0057533D01*
X0370895Y0054233D01*
X0368495Y0051833D01*
X0340895Y0051833D01*
X0337295Y0048233D01*
X0336095Y0050933D02*
X0336070Y0051170D01*
X0336095Y0050933D02*
X0339695Y0050933D01*
X0341495Y0049133D01*
X0354095Y0049133D01*
X0354095Y0045833D01*
X0353948Y0045764D01*
X0354095Y0049133D02*
X0354095Y0049733D01*
X0356495Y0052133D01*
X0356625Y0052277D01*
X0349932Y0052277D02*
X0349895Y0052433D01*
X0339095Y0063233D01*
X0339095Y0068333D01*
X0334295Y0073133D01*
X0331895Y0069533D02*
X0331631Y0069492D01*
X0331895Y0069533D02*
X0342095Y0069533D01*
X0347795Y0075233D01*
X0347795Y0091133D01*
X0347795Y0092933D01*
X0344795Y0095933D01*
X0351695Y0095933D02*
X0363695Y0083933D01*
X0367295Y0083933D01*
X0367895Y0084533D01*
X0382295Y0084533D01*
X0382895Y0083933D01*
X0400295Y0083933D01*
X0402695Y0086333D01*
X0402695Y0089033D01*
X0402849Y0089062D01*
X0402995Y0089333D01*
X0402995Y0091733D01*
X0407195Y0095933D01*
X0424895Y0095933D01*
X0429995Y0090833D01*
X0432995Y0090833D01*
X0437495Y0086333D01*
X0437495Y0080933D01*
X0436595Y0084533D02*
X0432995Y0080933D01*
X0428495Y0080933D01*
X0427895Y0080333D01*
X0424895Y0080333D01*
X0419195Y0086033D01*
X0396095Y0086033D01*
X0381095Y0071033D01*
X0370145Y0060083D01*
X0361595Y0068633D01*
X0353795Y0068633D01*
X0348995Y0073433D01*
X0348995Y0075833D01*
X0341795Y0083033D01*
X0338195Y0083033D01*
X0337970Y0083296D01*
X0360095Y0099833D02*
X0366695Y0093233D01*
X0381395Y0093233D01*
X0385295Y0089333D01*
X0385527Y0089062D01*
X0376078Y0088668D02*
X0374795Y0090233D01*
X0382895Y0098333D01*
X0391295Y0098333D01*
X0392795Y0096833D01*
X0394595Y0096833D01*
X0399095Y0101333D01*
X0399095Y0104933D01*
X0400595Y0106433D01*
X0402395Y0106433D01*
X0409595Y0099233D01*
X0409595Y0093533D01*
X0407195Y0091133D01*
X0407195Y0089333D01*
X0407180Y0089062D01*
X0398795Y0089333D02*
X0398519Y0089062D01*
X0398795Y0089333D02*
X0398795Y0092933D01*
X0403295Y0097433D01*
X0403295Y0102233D01*
X0401495Y0104033D01*
X0380795Y0104033D01*
X0371195Y0104033D01*
X0368795Y0106433D01*
X0368601Y0106491D01*
X0368495Y0106433D01*
X0360095Y0106433D01*
X0359895Y0106591D01*
X0359795Y0106733D01*
X0351995Y0106733D01*
X0351983Y0106491D01*
X0351695Y0106733D01*
X0351395Y0107033D01*
X0338195Y0107033D01*
X0338135Y0107144D01*
X0359895Y0099898D02*
X0360095Y0099833D01*
X0368601Y0099798D02*
X0368795Y0099533D01*
X0368795Y0095933D01*
X0375995Y0088733D01*
X0376078Y0088668D01*
X0387395Y0101633D02*
X0436595Y0101633D01*
X0441395Y0096833D01*
X0441473Y0096800D01*
X0446473Y0094300D02*
X0443973Y0091800D01*
X0428973Y0091800D01*
X0426473Y0089300D01*
X0426473Y0084300D01*
X0428973Y0081800D01*
X0436595Y0084533D02*
X0436595Y0089033D01*
X0431495Y0094133D01*
X0431495Y0096533D01*
X0431473Y0096800D01*
X0429995Y0092633D02*
X0427295Y0095333D01*
X0427295Y0098333D01*
X0431795Y0102833D01*
X0437495Y0102833D01*
X0441395Y0106733D01*
X0441473Y0106800D01*
X0446473Y0104300D02*
X0443973Y0101800D01*
X0428973Y0101800D01*
X0426473Y0099300D01*
X0426473Y0094300D01*
X0428973Y0091800D01*
X0429995Y0092633D02*
X0431195Y0092633D01*
X0435395Y0088433D01*
X0443973Y0091800D02*
X0446473Y0089300D01*
X0446473Y0084300D01*
X0443973Y0081800D01*
X0417695Y0093233D02*
X0417395Y0093533D01*
X0409595Y0093533D01*
X0426473Y0104300D02*
X0428973Y0101800D01*
X0426473Y0104300D02*
X0426473Y0109300D01*
X0428973Y0111800D01*
X0443973Y0111800D01*
X0446473Y0109300D01*
X0446473Y0104300D01*
X0443973Y0101800D02*
X0446473Y0099300D01*
X0446473Y0094300D01*
X0403895Y0083633D02*
X0400595Y0083633D01*
X0385595Y0068633D01*
X0347195Y0068633D01*
X0345095Y0066533D01*
X0345095Y0065933D01*
X0336995Y0057833D01*
X0358595Y0058133D02*
X0358655Y0058247D01*
X0370145Y0060083D02*
X0372095Y0058133D01*
X0372095Y0052133D01*
X0365795Y0045833D01*
X0364595Y0045833D01*
X0364338Y0045551D01*
X0375095Y0047633D02*
X0375995Y0046733D01*
X0376275Y0046542D01*
X0376295Y0045833D02*
X0380195Y0049733D01*
X0380195Y0055133D01*
X0377345Y0058583D02*
X0375095Y0056333D01*
X0374897Y0056188D01*
X0375095Y0056033D01*
X0375095Y0047633D01*
X0376295Y0045833D02*
X0342995Y0045833D01*
X0347195Y0045833D01*
X0347255Y0045764D01*
X0316041Y0045591D02*
X0315995Y0045533D01*
X0312095Y0045533D01*
X0311795Y0045233D01*
D12*
X0303192Y0044585D02*
X0302192Y0044585D01*
X0302692Y0044585D02*
X0302692Y0043083D01*
X0301719Y0043334D02*
X0301469Y0043083D01*
X0300969Y0043083D01*
X0300718Y0043334D01*
X0300718Y0044334D01*
X0300969Y0044585D01*
X0301469Y0044585D01*
X0301719Y0044334D01*
X0300246Y0044084D02*
X0300246Y0043083D01*
X0300246Y0043834D02*
X0299245Y0043834D01*
X0299245Y0044084D02*
X0299746Y0044585D01*
X0300246Y0044084D01*
X0299245Y0044084D02*
X0299245Y0043083D01*
X0334322Y0069733D02*
X0334322Y0071234D01*
X0335073Y0071234D01*
X0335323Y0070984D01*
X0335323Y0070484D01*
X0335073Y0070233D01*
X0334322Y0070233D01*
X0333849Y0070484D02*
X0333599Y0070233D01*
X0333099Y0070233D01*
X0332849Y0070484D01*
X0332849Y0070734D01*
X0333099Y0070984D01*
X0333599Y0070984D01*
X0333849Y0070734D01*
X0333849Y0070484D01*
X0333599Y0070984D02*
X0333849Y0071234D01*
X0333849Y0071484D01*
X0333599Y0071735D01*
X0333099Y0071735D01*
X0332849Y0071484D01*
X0332849Y0071234D01*
X0333099Y0070984D01*
X0332376Y0071234D02*
X0332376Y0071484D01*
X0332126Y0071735D01*
X0331626Y0071735D01*
X0331375Y0071484D01*
X0330903Y0071484D02*
X0330903Y0071234D01*
X0330653Y0070984D01*
X0330903Y0070734D01*
X0330903Y0070484D01*
X0330653Y0070233D01*
X0330152Y0070233D01*
X0329902Y0070484D01*
X0330403Y0070984D02*
X0330653Y0070984D01*
X0330903Y0071484D02*
X0330653Y0071735D01*
X0330152Y0071735D01*
X0329902Y0071484D01*
X0331375Y0070233D02*
X0332376Y0071234D01*
X0332376Y0070233D02*
X0331375Y0070233D01*
X0368145Y0047861D02*
X0368145Y0047360D01*
X0368395Y0047110D01*
X0368395Y0046638D02*
X0369396Y0046638D01*
X0369646Y0046387D01*
X0369646Y0045637D01*
X0368145Y0045637D01*
X0368145Y0046387D01*
X0368395Y0046638D01*
X0368896Y0047110D02*
X0369146Y0047610D01*
X0369146Y0047861D01*
X0368896Y0048111D01*
X0368395Y0048111D01*
X0368145Y0047861D01*
X0368896Y0047110D02*
X0369646Y0047110D01*
X0369646Y0048111D01*
X0287517Y0106133D02*
X0287517Y0106884D01*
X0287266Y0107134D01*
X0287016Y0106884D01*
X0287016Y0106133D01*
X0286516Y0106133D02*
X0286516Y0107134D01*
X0286766Y0107134D01*
X0287016Y0106884D01*
X0286043Y0106884D02*
X0285793Y0107134D01*
X0285293Y0107134D01*
X0285043Y0106884D01*
X0285043Y0106384D01*
X0285293Y0106133D01*
X0285793Y0106133D01*
X0286043Y0106384D01*
X0286043Y0106884D01*
X0284566Y0107134D02*
X0284315Y0107134D01*
X0283815Y0106634D01*
X0283815Y0107134D02*
X0283815Y0106133D01*
X0283342Y0106384D02*
X0283092Y0106133D01*
X0282342Y0106133D01*
X0282342Y0105633D02*
X0282342Y0107134D01*
X0283092Y0107134D01*
X0283342Y0106884D01*
X0283342Y0106384D01*
X0281869Y0106634D02*
X0280868Y0106634D01*
X0280868Y0106884D02*
X0281119Y0107134D01*
X0281619Y0107134D01*
X0281869Y0106884D01*
X0281869Y0106634D01*
X0281619Y0106133D02*
X0281119Y0106133D01*
X0280868Y0106384D01*
X0280868Y0106884D01*
X0280396Y0106884D02*
X0280396Y0106634D01*
X0279395Y0106634D01*
X0279395Y0106884D02*
X0279645Y0107134D01*
X0280146Y0107134D01*
X0280396Y0106884D01*
X0280146Y0106133D02*
X0279645Y0106133D01*
X0279395Y0106384D01*
X0279395Y0106884D01*
X0223419Y0109433D02*
X0223419Y0110935D01*
X0222418Y0110935D02*
X0223419Y0109433D01*
X0222418Y0109433D02*
X0222418Y0110935D01*
X0221946Y0110684D02*
X0221696Y0110935D01*
X0221195Y0110935D01*
X0220945Y0110684D01*
X0220945Y0109684D01*
X0221195Y0109433D01*
X0221696Y0109433D01*
X0221946Y0109684D01*
X0221946Y0110684D01*
X0195395Y0092711D02*
X0195395Y0091710D01*
X0194394Y0092711D01*
X0194144Y0092711D01*
X0193894Y0092461D01*
X0193894Y0091960D01*
X0194144Y0091710D01*
X0194144Y0091238D02*
X0193894Y0090987D01*
X0193894Y0090487D01*
X0194144Y0090237D01*
X0195145Y0090237D01*
X0195395Y0090487D01*
X0195395Y0090987D01*
X0195145Y0091238D01*
X0195395Y0089755D02*
X0195395Y0089255D01*
X0195395Y0089505D02*
X0193894Y0089505D01*
X0193894Y0089255D02*
X0193894Y0089755D01*
X0226395Y0072335D02*
X0226395Y0070833D01*
X0227146Y0070833D01*
X0227396Y0071084D01*
X0227396Y0071584D01*
X0227146Y0071834D01*
X0226395Y0071834D01*
X0227868Y0071084D02*
X0228119Y0071334D01*
X0228869Y0071334D01*
X0228869Y0071584D02*
X0228869Y0070833D01*
X0228119Y0070833D01*
X0227868Y0071084D01*
X0228119Y0071834D02*
X0228619Y0071834D01*
X0228869Y0071584D01*
X0229342Y0071834D02*
X0229842Y0071834D01*
X0229592Y0072084D02*
X0229592Y0071084D01*
X0229842Y0070833D01*
X0230574Y0071084D02*
X0230824Y0070833D01*
X0230574Y0071084D02*
X0230574Y0072084D01*
X0230324Y0071834D02*
X0230824Y0071834D01*
X0231306Y0071834D02*
X0232057Y0071834D01*
X0232307Y0071584D01*
X0232307Y0071084D01*
X0232057Y0070833D01*
X0231306Y0070833D01*
X0231306Y0070333D02*
X0231306Y0071834D01*
X0232779Y0071834D02*
X0232779Y0071084D01*
X0233029Y0070833D01*
X0233280Y0071084D01*
X0233530Y0070833D01*
X0233780Y0071084D01*
X0233780Y0071834D01*
X0234252Y0071834D02*
X0234252Y0070833D01*
X0234252Y0071334D02*
X0234753Y0071834D01*
X0235003Y0071834D01*
X0216445Y0066300D02*
X0216445Y0065800D01*
X0216195Y0065550D01*
X0215194Y0065550D01*
X0214944Y0065800D01*
X0214944Y0066300D01*
X0215194Y0066550D01*
X0215695Y0066550D02*
X0215695Y0066050D01*
X0215695Y0066550D02*
X0216195Y0066550D01*
X0216445Y0066300D01*
X0216195Y0065077D02*
X0216445Y0064827D01*
X0216445Y0064327D01*
X0216195Y0064076D01*
X0215194Y0065077D01*
X0216195Y0065077D01*
X0216195Y0064076D02*
X0215194Y0064076D01*
X0214944Y0064327D01*
X0214944Y0064827D01*
X0215194Y0065077D01*
X0215695Y0063604D02*
X0215695Y0062603D01*
X0214944Y0063354D01*
X0216445Y0063354D01*
X0216195Y0062131D02*
X0216445Y0061880D01*
X0216445Y0061380D01*
X0216195Y0061130D01*
X0216445Y0060657D02*
X0214944Y0060657D01*
X0215194Y0061130D02*
X0214944Y0061380D01*
X0214944Y0061880D01*
X0215194Y0062131D01*
X0215444Y0062131D01*
X0215695Y0061880D01*
X0215945Y0062131D01*
X0216195Y0062131D01*
X0215695Y0061880D02*
X0215695Y0061630D01*
X0215695Y0060657D02*
X0215695Y0059657D01*
X0216195Y0059184D02*
X0216445Y0058934D01*
X0216445Y0058434D01*
X0216195Y0058183D01*
X0215194Y0058183D01*
X0214944Y0058434D01*
X0214944Y0058934D01*
X0215194Y0059184D01*
X0214944Y0059657D02*
X0216445Y0059657D01*
D13*
X0196095Y0049115D02*
X0196095Y0047180D01*
X0194160Y0049115D01*
X0193676Y0049115D01*
X0193193Y0048631D01*
X0193193Y0047664D01*
X0193676Y0047180D01*
X0193193Y0046168D02*
X0196095Y0044233D01*
X0196095Y0046168D02*
X0193193Y0044233D01*
D14*
X0194957Y0042593D02*
X0194957Y0082593D01*
X0241445Y0082234D02*
X0241745Y0081933D01*
X0242346Y0081933D01*
X0242646Y0082234D01*
X0242646Y0083435D01*
X0242346Y0083735D01*
X0241745Y0083735D01*
X0241445Y0083435D01*
X0241445Y0082234D01*
X0243287Y0081933D02*
X0243287Y0083735D01*
X0244488Y0083735D01*
X0245128Y0083735D02*
X0246329Y0083735D01*
X0245729Y0082834D02*
X0245128Y0082834D01*
X0245128Y0081933D02*
X0245128Y0083735D01*
X0243887Y0082834D02*
X0243287Y0082834D01*
X0242702Y0107783D02*
X0244170Y0107783D01*
X0244170Y0109985D01*
X0242702Y0109985D01*
X0243436Y0108884D02*
X0244170Y0108884D01*
X0244912Y0107783D02*
X0246380Y0107783D01*
X0246380Y0109985D01*
X0247122Y0109985D02*
X0248590Y0109985D01*
X0248590Y0107783D01*
X0248590Y0108884D02*
X0247856Y0108884D01*
X0249332Y0109985D02*
X0250800Y0109985D01*
X0250800Y0107783D01*
X0251539Y0107783D02*
X0252273Y0107783D01*
X0251906Y0107783D02*
X0251906Y0109985D01*
X0252273Y0109985D02*
X0251539Y0109985D01*
X0250800Y0108884D02*
X0250066Y0108884D01*
X0253015Y0108884D02*
X0253382Y0108517D01*
X0254483Y0108517D01*
X0254483Y0107783D02*
X0254483Y0109985D01*
X0253382Y0109985D01*
X0253015Y0109618D01*
X0253015Y0108884D01*
X0253749Y0108517D02*
X0253015Y0107783D01*
X0241960Y0108884D02*
X0240492Y0108884D01*
X0239750Y0108150D02*
X0239384Y0107783D01*
X0238650Y0107783D01*
X0238283Y0108150D01*
X0238283Y0108517D01*
X0238650Y0108884D01*
X0239017Y0108884D01*
X0238650Y0108884D02*
X0238283Y0109251D01*
X0238283Y0109618D01*
X0238650Y0109985D01*
X0239384Y0109985D01*
X0239750Y0109618D01*
X0237541Y0109618D02*
X0237174Y0109985D01*
X0236440Y0109985D01*
X0236073Y0109618D01*
X0236073Y0109251D01*
X0237541Y0107783D01*
X0236073Y0107783D01*
X0235331Y0108150D02*
X0235331Y0108517D01*
X0234964Y0108884D01*
X0234230Y0108884D01*
X0233863Y0108517D01*
X0233863Y0108150D01*
X0234230Y0107783D01*
X0234964Y0107783D01*
X0235331Y0108150D01*
X0234964Y0108884D02*
X0235331Y0109251D01*
X0235331Y0109618D01*
X0234964Y0109985D01*
X0234230Y0109985D01*
X0233863Y0109618D01*
X0233863Y0109251D01*
X0234230Y0108884D01*
X0233121Y0109251D02*
X0232020Y0109251D01*
X0231653Y0108884D01*
X0231653Y0108150D01*
X0232020Y0107783D01*
X0233121Y0107783D01*
X0233121Y0107049D02*
X0233121Y0109251D01*
X0228701Y0109251D02*
X0227967Y0107783D01*
X0227233Y0109251D01*
X0226491Y0108884D02*
X0226124Y0109251D01*
X0225390Y0109251D01*
X0225023Y0108884D01*
X0225023Y0108517D01*
X0226491Y0108517D01*
X0226491Y0108150D02*
X0226491Y0108884D01*
X0226491Y0108150D02*
X0226124Y0107783D01*
X0225390Y0107783D01*
X0224281Y0107783D02*
X0224281Y0109251D01*
X0224281Y0108517D02*
X0223547Y0109251D01*
X0223180Y0109251D01*
X0220230Y0109618D02*
X0219863Y0109985D01*
X0219129Y0109985D01*
X0218762Y0109618D01*
X0220230Y0108150D01*
X0219863Y0107783D01*
X0219129Y0107783D01*
X0218762Y0108150D01*
X0218762Y0109618D01*
X0220230Y0109618D02*
X0220230Y0108150D01*
X0218020Y0108150D02*
X0217653Y0108150D01*
X0217653Y0107783D01*
X0218020Y0107783D01*
X0218020Y0108150D01*
X0216915Y0108150D02*
X0216548Y0107783D01*
X0215814Y0107783D01*
X0215447Y0108150D01*
X0215447Y0109618D01*
X0215814Y0109985D01*
X0216548Y0109985D01*
X0216915Y0109618D01*
X0216915Y0109251D01*
X0216548Y0108884D01*
X0215447Y0108884D01*
X0214705Y0108884D02*
X0213971Y0109251D01*
X0213604Y0109251D01*
X0213237Y0108884D01*
X0213237Y0108150D01*
X0213604Y0107783D01*
X0214338Y0107783D01*
X0214705Y0108150D01*
X0214705Y0108884D02*
X0214705Y0109985D01*
X0213237Y0109985D01*
X0302295Y0102135D02*
X0302295Y0099833D01*
X0302295Y0100601D02*
X0303446Y0100601D01*
X0303830Y0100984D01*
X0303830Y0101752D01*
X0303446Y0102135D01*
X0302295Y0102135D01*
X0303062Y0100601D02*
X0303830Y0099833D01*
X0304597Y0100217D02*
X0304981Y0099833D01*
X0305748Y0099833D01*
X0306132Y0100217D01*
X0306132Y0100601D01*
X0305748Y0100984D01*
X0304981Y0100984D01*
X0304597Y0101368D01*
X0304597Y0101752D01*
X0304981Y0102135D01*
X0305748Y0102135D01*
X0306132Y0101752D01*
X0306899Y0102135D02*
X0308434Y0102135D01*
X0307666Y0102135D02*
X0307666Y0099833D01*
X0311945Y0100067D02*
X0312329Y0099683D01*
X0313096Y0099683D01*
X0313480Y0100067D01*
X0313480Y0100451D01*
X0313096Y0100834D01*
X0312329Y0100834D01*
X0311945Y0101218D01*
X0311945Y0101602D01*
X0312329Y0101985D01*
X0313096Y0101985D01*
X0313480Y0101602D01*
X0314247Y0101602D02*
X0314247Y0100067D01*
X0314631Y0099683D01*
X0315398Y0099683D01*
X0315782Y0100067D01*
X0316549Y0100451D02*
X0318084Y0101985D01*
X0316549Y0101985D02*
X0316549Y0099683D01*
X0316933Y0100834D02*
X0318084Y0099683D01*
X0315782Y0101602D02*
X0315398Y0101985D01*
X0314631Y0101985D01*
X0314247Y0101602D01*
X0321195Y0102085D02*
X0321195Y0099783D01*
X0322730Y0099783D02*
X0322730Y0102085D01*
X0321962Y0101318D01*
X0321195Y0102085D01*
X0323497Y0102085D02*
X0324264Y0102085D01*
X0323881Y0102085D02*
X0323881Y0099783D01*
X0324264Y0099783D02*
X0323497Y0099783D01*
X0325032Y0100167D02*
X0325415Y0099783D01*
X0326183Y0099783D01*
X0326566Y0100167D01*
X0326566Y0100551D01*
X0326183Y0100934D01*
X0325415Y0100934D01*
X0325032Y0101318D01*
X0325032Y0101702D01*
X0325415Y0102085D01*
X0326183Y0102085D01*
X0326566Y0101702D01*
X0327334Y0101702D02*
X0327334Y0100167D01*
X0327717Y0099783D01*
X0328485Y0099783D01*
X0328868Y0100167D01*
X0328868Y0101702D01*
X0328485Y0102085D01*
X0327717Y0102085D01*
X0327334Y0101702D01*
X0331715Y0093592D02*
X0331290Y0093167D01*
X0331290Y0092743D01*
X0331502Y0092531D01*
X0331927Y0092531D01*
X0332352Y0092955D01*
X0332776Y0092955D01*
X0332989Y0092743D01*
X0332989Y0092318D01*
X0332564Y0091894D01*
X0332139Y0091894D01*
X0331686Y0091441D02*
X0330625Y0092502D01*
X0329776Y0091653D02*
X0330837Y0090591D01*
X0331262Y0090591D01*
X0331686Y0091016D01*
X0331686Y0091441D01*
X0330384Y0090138D02*
X0330384Y0089714D01*
X0329747Y0089077D01*
X0328473Y0090351D01*
X0329110Y0090988D01*
X0329535Y0090988D01*
X0329747Y0090775D01*
X0329747Y0090351D01*
X0329110Y0089714D01*
X0328870Y0089049D02*
X0328021Y0089898D01*
X0328870Y0089049D02*
X0328870Y0088199D01*
X0328021Y0088199D01*
X0327171Y0089049D01*
X0329747Y0090351D02*
X0330172Y0090351D01*
X0330384Y0090138D01*
X0331715Y0093592D02*
X0332139Y0093592D01*
X0318470Y0090385D02*
X0317870Y0090385D01*
X0318170Y0090385D02*
X0318170Y0088583D01*
X0317870Y0088583D02*
X0318470Y0088583D01*
X0317229Y0088884D02*
X0316929Y0088583D01*
X0316329Y0088583D01*
X0316028Y0088884D01*
X0315388Y0088884D02*
X0315388Y0090085D01*
X0315087Y0090385D01*
X0314487Y0090385D01*
X0314187Y0090085D01*
X0314187Y0088884D01*
X0314487Y0088583D01*
X0315087Y0088583D01*
X0315388Y0088884D01*
X0316028Y0089784D02*
X0316329Y0089484D01*
X0316929Y0089484D01*
X0317229Y0089184D01*
X0317229Y0088884D01*
X0317229Y0090085D02*
X0316929Y0090385D01*
X0316329Y0090385D01*
X0316028Y0090085D01*
X0316028Y0089784D01*
X0313546Y0090385D02*
X0313546Y0088583D01*
X0312345Y0088583D02*
X0312345Y0090385D01*
X0312946Y0089784D01*
X0313546Y0090385D01*
X0308434Y0090452D02*
X0308434Y0088917D01*
X0308050Y0088533D01*
X0306899Y0088533D01*
X0306899Y0090835D01*
X0308050Y0090835D01*
X0308434Y0090452D01*
X0306132Y0090835D02*
X0306132Y0088533D01*
X0304597Y0090835D01*
X0304597Y0088533D01*
X0303830Y0088917D02*
X0303830Y0089684D01*
X0303062Y0089684D01*
X0302295Y0088917D02*
X0302679Y0088533D01*
X0303446Y0088533D01*
X0303830Y0088917D01*
X0303830Y0090452D02*
X0303446Y0090835D01*
X0302679Y0090835D01*
X0302295Y0090452D01*
X0302295Y0088917D01*
X0298056Y0047353D02*
X0298056Y0046886D01*
X0298056Y0045952D02*
X0298056Y0044083D01*
X0298523Y0044083D02*
X0297589Y0044083D01*
X0296682Y0044083D02*
X0296682Y0046886D01*
X0298056Y0045952D02*
X0298523Y0045952D01*
X0299417Y0045952D02*
X0299417Y0044550D01*
X0299884Y0044083D01*
X0300352Y0044550D01*
X0300819Y0044083D01*
X0301286Y0044550D01*
X0301286Y0045952D01*
X0302180Y0046886D02*
X0304048Y0044083D01*
X0304942Y0044083D02*
X0306343Y0044083D01*
X0306810Y0044550D01*
X0306810Y0045485D01*
X0306343Y0045952D01*
X0304942Y0045952D01*
X0304942Y0043616D01*
X0305409Y0043149D01*
X0305876Y0043149D01*
X0307711Y0045952D02*
X0308178Y0045952D01*
X0309112Y0045017D01*
X0309112Y0044083D02*
X0309112Y0045952D01*
X0310006Y0045485D02*
X0310474Y0045952D01*
X0311408Y0045952D01*
X0311875Y0045485D01*
X0311875Y0044550D01*
X0311408Y0044083D01*
X0310474Y0044083D01*
X0310006Y0044550D01*
X0310006Y0045485D01*
X0312789Y0044550D02*
X0312789Y0044083D01*
X0313256Y0044083D01*
X0313256Y0044550D01*
X0312789Y0044550D01*
X0314150Y0044550D02*
X0314617Y0044083D01*
X0316018Y0044083D01*
X0316018Y0046886D01*
X0316018Y0045952D02*
X0314617Y0045952D01*
X0314150Y0045485D01*
X0314150Y0044550D01*
X0316912Y0044083D02*
X0316912Y0045485D01*
X0317379Y0045952D01*
X0318314Y0045952D01*
X0318314Y0045017D02*
X0316912Y0045017D01*
X0316912Y0044083D02*
X0318314Y0044083D01*
X0318781Y0044550D01*
X0318314Y0045017D01*
X0319688Y0044083D02*
X0320622Y0044083D01*
X0320155Y0044083D02*
X0320155Y0046886D01*
X0320622Y0046886D01*
X0321516Y0045952D02*
X0322917Y0045952D01*
X0323385Y0045485D01*
X0323385Y0044550D01*
X0322917Y0044083D01*
X0321516Y0044083D01*
X0324292Y0044083D02*
X0325226Y0044083D01*
X0324759Y0044083D02*
X0324759Y0045952D01*
X0325226Y0045952D01*
X0324759Y0046886D02*
X0324759Y0047353D01*
X0326601Y0046886D02*
X0326601Y0044083D01*
X0327068Y0044083D02*
X0326134Y0044083D01*
X0327962Y0044550D02*
X0327962Y0045485D01*
X0328429Y0045952D01*
X0329830Y0045952D01*
X0330724Y0045952D02*
X0330724Y0044083D01*
X0332125Y0044083D01*
X0332592Y0044550D01*
X0332592Y0045952D01*
X0333486Y0045485D02*
X0333486Y0044550D01*
X0333954Y0044083D01*
X0335355Y0044083D01*
X0335355Y0043149D02*
X0335355Y0045952D01*
X0333954Y0045952D01*
X0333486Y0045485D01*
X0329830Y0046886D02*
X0329830Y0044083D01*
X0328429Y0044083D01*
X0327962Y0044550D01*
X0327068Y0046886D02*
X0326601Y0046886D01*
X0296682Y0045017D02*
X0295281Y0045952D01*
X0294380Y0045952D02*
X0293913Y0045952D01*
X0293913Y0044083D01*
X0294380Y0044083D02*
X0293446Y0044083D01*
X0292538Y0044083D02*
X0290670Y0046886D01*
X0289776Y0045952D02*
X0289776Y0044083D01*
X0289776Y0045017D02*
X0288842Y0045952D01*
X0288375Y0045952D01*
X0287474Y0045952D02*
X0287007Y0045952D01*
X0287007Y0044083D01*
X0287474Y0044083D02*
X0286540Y0044083D01*
X0285165Y0044083D02*
X0285165Y0046419D01*
X0284698Y0046886D01*
X0284698Y0045485D02*
X0285632Y0045485D01*
X0283791Y0045485D02*
X0282857Y0045485D01*
X0283324Y0046419D02*
X0283324Y0044083D01*
X0281949Y0044083D02*
X0281015Y0044083D01*
X0281482Y0044083D02*
X0281482Y0046886D01*
X0281949Y0046886D01*
X0282857Y0046886D02*
X0283324Y0046419D01*
X0280108Y0045485D02*
X0279641Y0045952D01*
X0278706Y0045952D01*
X0278239Y0045485D01*
X0278239Y0045017D01*
X0280108Y0045017D01*
X0280108Y0044550D02*
X0280108Y0045485D01*
X0280108Y0044550D02*
X0279641Y0044083D01*
X0278706Y0044083D01*
X0287007Y0046886D02*
X0287007Y0047353D01*
X0293913Y0047353D02*
X0293913Y0046886D01*
X0295281Y0044083D02*
X0296682Y0045017D01*
D15*
X0298395Y0045283D02*
X0303595Y0045283D01*
X0303595Y0042283D01*
X0298395Y0042283D01*
X0298395Y0045283D01*
D16*
X0329249Y0047968D02*
X0332868Y0044349D01*
X0342890Y0054371D02*
X0339271Y0057990D01*
X0259475Y0095277D02*
X0241364Y0095277D01*
X0241364Y0105513D01*
X0259475Y0105513D01*
X0259475Y0095277D01*
X0231200Y0081378D02*
X0231200Y0109725D01*
X0217420Y0109725D01*
X0217420Y0081378D01*
X0231200Y0081378D01*
X0188379Y0098902D02*
X0184998Y0098902D01*
X0184998Y0110102D02*
X0188379Y0110102D01*
X0077147Y0105794D02*
X0077147Y0095558D01*
X0059037Y0095558D01*
X0059037Y0105794D01*
X0077147Y0105794D01*
X0174848Y0057749D02*
X0179966Y0057749D01*
X0179966Y0043576D02*
X0174848Y0043576D01*
D17*
X0181570Y0100762D03*
X0181570Y0100762D03*
X0181570Y0104502D03*
X0181570Y0104502D03*
X0181570Y0108242D03*
X0181570Y0108242D03*
X0191807Y0108242D03*
X0191807Y0108242D03*
X0191807Y0104502D03*
X0191807Y0104502D03*
X0191807Y0100762D03*
X0191807Y0100762D03*
D18*
X0246375Y0082993D02*
X0274375Y0082993D01*
X0274375Y0041993D01*
X0246375Y0041993D01*
X0246375Y0082993D01*
X0248572Y0079493D02*
X0248574Y0079578D01*
X0248580Y0079662D01*
X0248590Y0079746D01*
X0248604Y0079829D01*
X0248621Y0079912D01*
X0248643Y0079994D01*
X0248668Y0080074D01*
X0248697Y0080154D01*
X0248730Y0080231D01*
X0248767Y0080308D01*
X0248807Y0080382D01*
X0248850Y0080455D01*
X0248897Y0080525D01*
X0248947Y0080593D01*
X0249000Y0080659D01*
X0249056Y0080722D01*
X0249115Y0080783D01*
X0249177Y0080840D01*
X0249241Y0080895D01*
X0249308Y0080947D01*
X0249378Y0080995D01*
X0249449Y0081040D01*
X0249523Y0081082D01*
X0249598Y0081120D01*
X0249675Y0081155D01*
X0249754Y0081186D01*
X0249834Y0081213D01*
X0249915Y0081236D01*
X0249997Y0081256D01*
X0250080Y0081272D01*
X0250164Y0081284D01*
X0250248Y0081292D01*
X0250333Y0081296D01*
X0250417Y0081296D01*
X0250502Y0081292D01*
X0250586Y0081284D01*
X0250670Y0081272D01*
X0250753Y0081256D01*
X0250835Y0081236D01*
X0250916Y0081213D01*
X0250996Y0081186D01*
X0251075Y0081155D01*
X0251152Y0081120D01*
X0251227Y0081082D01*
X0251301Y0081040D01*
X0251372Y0080995D01*
X0251442Y0080947D01*
X0251509Y0080895D01*
X0251573Y0080840D01*
X0251635Y0080783D01*
X0251694Y0080722D01*
X0251750Y0080659D01*
X0251803Y0080593D01*
X0251853Y0080525D01*
X0251900Y0080455D01*
X0251943Y0080382D01*
X0251983Y0080308D01*
X0252020Y0080231D01*
X0252053Y0080154D01*
X0252082Y0080074D01*
X0252107Y0079994D01*
X0252129Y0079912D01*
X0252146Y0079829D01*
X0252160Y0079746D01*
X0252170Y0079662D01*
X0252176Y0079578D01*
X0252178Y0079493D01*
X0252176Y0079408D01*
X0252170Y0079324D01*
X0252160Y0079240D01*
X0252146Y0079157D01*
X0252129Y0079074D01*
X0252107Y0078992D01*
X0252082Y0078912D01*
X0252053Y0078832D01*
X0252020Y0078755D01*
X0251983Y0078678D01*
X0251943Y0078604D01*
X0251900Y0078531D01*
X0251853Y0078461D01*
X0251803Y0078393D01*
X0251750Y0078327D01*
X0251694Y0078264D01*
X0251635Y0078203D01*
X0251573Y0078146D01*
X0251509Y0078091D01*
X0251442Y0078039D01*
X0251372Y0077991D01*
X0251301Y0077946D01*
X0251227Y0077904D01*
X0251152Y0077866D01*
X0251075Y0077831D01*
X0250996Y0077800D01*
X0250916Y0077773D01*
X0250835Y0077750D01*
X0250753Y0077730D01*
X0250670Y0077714D01*
X0250586Y0077702D01*
X0250502Y0077694D01*
X0250417Y0077690D01*
X0250333Y0077690D01*
X0250248Y0077694D01*
X0250164Y0077702D01*
X0250080Y0077714D01*
X0249997Y0077730D01*
X0249915Y0077750D01*
X0249834Y0077773D01*
X0249754Y0077800D01*
X0249675Y0077831D01*
X0249598Y0077866D01*
X0249523Y0077904D01*
X0249449Y0077946D01*
X0249378Y0077991D01*
X0249308Y0078039D01*
X0249241Y0078091D01*
X0249177Y0078146D01*
X0249115Y0078203D01*
X0249056Y0078264D01*
X0249000Y0078327D01*
X0248947Y0078393D01*
X0248897Y0078461D01*
X0248850Y0078531D01*
X0248807Y0078604D01*
X0248767Y0078678D01*
X0248730Y0078755D01*
X0248697Y0078832D01*
X0248668Y0078912D01*
X0248643Y0078992D01*
X0248621Y0079074D01*
X0248604Y0079157D01*
X0248590Y0079240D01*
X0248580Y0079324D01*
X0248574Y0079408D01*
X0248572Y0079493D01*
X0374700Y0085518D02*
X0374700Y0059140D01*
X0374700Y0053235D02*
X0374700Y0049692D01*
X0378637Y0045558D02*
X0419975Y0045558D01*
X0419975Y0045557D02*
X0420061Y0045559D01*
X0420147Y0045564D01*
X0420232Y0045574D01*
X0420317Y0045587D01*
X0420401Y0045604D01*
X0420485Y0045624D01*
X0420567Y0045648D01*
X0420648Y0045676D01*
X0420729Y0045707D01*
X0420807Y0045741D01*
X0420884Y0045779D01*
X0420960Y0045821D01*
X0421033Y0045865D01*
X0421104Y0045913D01*
X0421174Y0045964D01*
X0421241Y0046018D01*
X0421305Y0046074D01*
X0421367Y0046134D01*
X0421427Y0046196D01*
X0421483Y0046260D01*
X0421537Y0046327D01*
X0421588Y0046397D01*
X0421636Y0046468D01*
X0421680Y0046542D01*
X0421722Y0046617D01*
X0421760Y0046694D01*
X0421794Y0046772D01*
X0421825Y0046853D01*
X0421853Y0046934D01*
X0421877Y0047016D01*
X0421897Y0047100D01*
X0421914Y0047184D01*
X0421927Y0047269D01*
X0421937Y0047354D01*
X0421942Y0047440D01*
X0421944Y0047526D01*
X0421944Y0050676D01*
X0421944Y0055007D02*
X0421944Y0055597D01*
X0421944Y0061896D02*
X0421944Y0085518D01*
X0418007Y0085715D02*
X0418005Y0085629D01*
X0418000Y0085543D01*
X0417990Y0085458D01*
X0417977Y0085373D01*
X0417960Y0085289D01*
X0417940Y0085205D01*
X0417916Y0085123D01*
X0417888Y0085042D01*
X0417857Y0084961D01*
X0417823Y0084883D01*
X0417785Y0084806D01*
X0417743Y0084731D01*
X0417699Y0084657D01*
X0417651Y0084586D01*
X0417600Y0084516D01*
X0417546Y0084449D01*
X0417490Y0084385D01*
X0417430Y0084323D01*
X0417368Y0084263D01*
X0417304Y0084207D01*
X0417237Y0084153D01*
X0417167Y0084102D01*
X0417096Y0084054D01*
X0417023Y0084010D01*
X0416947Y0083968D01*
X0416870Y0083930D01*
X0416792Y0083896D01*
X0416711Y0083865D01*
X0416630Y0083837D01*
X0416548Y0083813D01*
X0416464Y0083793D01*
X0416380Y0083776D01*
X0416295Y0083763D01*
X0416210Y0083753D01*
X0416124Y0083748D01*
X0416038Y0083746D01*
X0416038Y0083747D02*
X0380605Y0083747D01*
X0380605Y0083746D02*
X0380519Y0083748D01*
X0380433Y0083753D01*
X0380348Y0083763D01*
X0380263Y0083776D01*
X0380179Y0083793D01*
X0380095Y0083813D01*
X0380013Y0083837D01*
X0379932Y0083865D01*
X0379851Y0083896D01*
X0379773Y0083930D01*
X0379696Y0083968D01*
X0379621Y0084010D01*
X0379547Y0084054D01*
X0379476Y0084102D01*
X0379406Y0084153D01*
X0379339Y0084207D01*
X0379275Y0084263D01*
X0379213Y0084323D01*
X0379153Y0084385D01*
X0379097Y0084449D01*
X0379043Y0084516D01*
X0378992Y0084586D01*
X0378944Y0084657D01*
X0378900Y0084731D01*
X0378858Y0084806D01*
X0378820Y0084883D01*
X0378786Y0084961D01*
X0378755Y0085042D01*
X0378727Y0085123D01*
X0378703Y0085205D01*
X0378683Y0085289D01*
X0378666Y0085373D01*
X0378653Y0085458D01*
X0378643Y0085543D01*
X0378638Y0085629D01*
X0378636Y0085715D01*
X0119459Y0057090D02*
X0119459Y0046460D01*
X0112963Y0046460D01*
X0112963Y0057090D01*
X0119459Y0057090D01*
X0109212Y0057062D02*
X0109212Y0046432D01*
X0102716Y0046432D01*
X0102716Y0057062D01*
X0109212Y0057062D01*
X0086474Y0047621D02*
X0086474Y0044274D01*
X0070726Y0044274D01*
X0076631Y0047621D02*
X0086474Y0047621D01*
X0076631Y0047621D02*
X0076631Y0053133D01*
X0056946Y0051164D02*
X0056946Y0068881D01*
X0070726Y0075770D02*
X0086474Y0075770D01*
X0086474Y0072424D01*
X0076631Y0072424D01*
X0076631Y0066912D01*
D19*
X0083324Y0063959D03*
X0083324Y0063959D03*
X0083324Y0056085D03*
X0083324Y0056085D03*
D20*
X0062852Y0046636D03*
X0062852Y0046636D03*
X0062852Y0073408D03*
X0062852Y0073408D03*
D21*
X0088321Y0071007D02*
X0091590Y0071007D01*
X0089955Y0069372D02*
X0089955Y0072642D01*
X0089955Y0050142D02*
X0089955Y0046872D01*
D22*
X0213188Y0085709D03*
X0213188Y0085709D03*
X0213188Y0095551D03*
X0213188Y0095551D03*
X0213188Y0105394D03*
X0213188Y0105394D03*
X0235432Y0105394D03*
X0235432Y0105394D03*
X0235432Y0095551D03*
X0235432Y0095551D03*
X0235432Y0085709D03*
X0235432Y0085709D03*
D23*
G36*
X0294686Y0062170D02*
X0291152Y0058636D01*
X0289596Y0060192D01*
X0293130Y0063726D01*
X0294686Y0062170D01*
G37*
G36*
X0294686Y0062170D02*
X0291152Y0058636D01*
X0289596Y0060192D01*
X0293130Y0063726D01*
X0294686Y0062170D01*
G37*
G36*
X0296913Y0059943D02*
X0293379Y0056409D01*
X0291823Y0057965D01*
X0295357Y0061499D01*
X0296913Y0059943D01*
G37*
G36*
X0296913Y0059943D02*
X0293379Y0056409D01*
X0291823Y0057965D01*
X0295357Y0061499D01*
X0296913Y0059943D01*
G37*
G36*
X0299140Y0057716D02*
X0295606Y0054182D01*
X0294050Y0055738D01*
X0297584Y0059272D01*
X0299140Y0057716D01*
G37*
G36*
X0299140Y0057716D02*
X0295606Y0054182D01*
X0294050Y0055738D01*
X0297584Y0059272D01*
X0299140Y0057716D01*
G37*
G36*
X0301367Y0055489D02*
X0297833Y0051955D01*
X0296277Y0053511D01*
X0299811Y0057045D01*
X0301367Y0055489D01*
G37*
G36*
X0301367Y0055489D02*
X0297833Y0051955D01*
X0296277Y0053511D01*
X0299811Y0057045D01*
X0301367Y0055489D01*
G37*
G36*
X0303594Y0053262D02*
X0300060Y0049728D01*
X0298504Y0051284D01*
X0302038Y0054818D01*
X0303594Y0053262D01*
G37*
G36*
X0303594Y0053262D02*
X0300060Y0049728D01*
X0298504Y0051284D01*
X0302038Y0054818D01*
X0303594Y0053262D01*
G37*
G36*
X0305821Y0051035D02*
X0302287Y0047501D01*
X0300731Y0049057D01*
X0304265Y0052591D01*
X0305821Y0051035D01*
G37*
G36*
X0305821Y0051035D02*
X0302287Y0047501D01*
X0300731Y0049057D01*
X0304265Y0052591D01*
X0305821Y0051035D01*
G37*
G36*
X0308048Y0048808D02*
X0304514Y0045274D01*
X0302958Y0046830D01*
X0306492Y0050364D01*
X0308048Y0048808D01*
G37*
G36*
X0308048Y0048808D02*
X0304514Y0045274D01*
X0302958Y0046830D01*
X0306492Y0050364D01*
X0308048Y0048808D01*
G37*
G36*
X0310275Y0046580D02*
X0306741Y0043046D01*
X0305185Y0044602D01*
X0308719Y0048136D01*
X0310275Y0046580D01*
G37*
G36*
X0310275Y0046580D02*
X0306741Y0043046D01*
X0305185Y0044602D01*
X0308719Y0048136D01*
X0310275Y0046580D01*
G37*
G36*
X0334176Y0070481D02*
X0330642Y0066947D01*
X0329086Y0068503D01*
X0332620Y0072037D01*
X0334176Y0070481D01*
G37*
G36*
X0334176Y0070481D02*
X0330642Y0066947D01*
X0329086Y0068503D01*
X0332620Y0072037D01*
X0334176Y0070481D01*
G37*
G36*
X0331949Y0072708D02*
X0328415Y0069174D01*
X0326859Y0070730D01*
X0330393Y0074264D01*
X0331949Y0072708D01*
G37*
G36*
X0331949Y0072708D02*
X0328415Y0069174D01*
X0326859Y0070730D01*
X0330393Y0074264D01*
X0331949Y0072708D01*
G37*
G36*
X0329721Y0074935D02*
X0326187Y0071401D01*
X0324631Y0072957D01*
X0328165Y0076491D01*
X0329721Y0074935D01*
G37*
G36*
X0329721Y0074935D02*
X0326187Y0071401D01*
X0324631Y0072957D01*
X0328165Y0076491D01*
X0329721Y0074935D01*
G37*
G36*
X0327494Y0077162D02*
X0323960Y0073628D01*
X0322404Y0075184D01*
X0325938Y0078718D01*
X0327494Y0077162D01*
G37*
G36*
X0327494Y0077162D02*
X0323960Y0073628D01*
X0322404Y0075184D01*
X0325938Y0078718D01*
X0327494Y0077162D01*
G37*
G36*
X0325267Y0079389D02*
X0321733Y0075855D01*
X0320177Y0077411D01*
X0323711Y0080945D01*
X0325267Y0079389D01*
G37*
G36*
X0325267Y0079389D02*
X0321733Y0075855D01*
X0320177Y0077411D01*
X0323711Y0080945D01*
X0325267Y0079389D01*
G37*
G36*
X0323040Y0081616D02*
X0319506Y0078082D01*
X0317950Y0079638D01*
X0321484Y0083172D01*
X0323040Y0081616D01*
G37*
G36*
X0323040Y0081616D02*
X0319506Y0078082D01*
X0317950Y0079638D01*
X0321484Y0083172D01*
X0323040Y0081616D01*
G37*
G36*
X0320813Y0083843D02*
X0317279Y0080309D01*
X0315723Y0081865D01*
X0319257Y0085399D01*
X0320813Y0083843D01*
G37*
G36*
X0320813Y0083843D02*
X0317279Y0080309D01*
X0315723Y0081865D01*
X0319257Y0085399D01*
X0320813Y0083843D01*
G37*
G36*
X0318586Y0086070D02*
X0315052Y0082536D01*
X0313496Y0084092D01*
X0317030Y0087626D01*
X0318586Y0086070D01*
G37*
G36*
X0318586Y0086070D02*
X0315052Y0082536D01*
X0313496Y0084092D01*
X0317030Y0087626D01*
X0318586Y0086070D01*
G37*
D24*
G36*
X0310275Y0084092D02*
X0308719Y0082536D01*
X0305185Y0086070D01*
X0306741Y0087626D01*
X0310275Y0084092D01*
G37*
G36*
X0310275Y0084092D02*
X0308719Y0082536D01*
X0305185Y0086070D01*
X0306741Y0087626D01*
X0310275Y0084092D01*
G37*
G36*
X0308048Y0081865D02*
X0306492Y0080309D01*
X0302958Y0083843D01*
X0304514Y0085399D01*
X0308048Y0081865D01*
G37*
G36*
X0308048Y0081865D02*
X0306492Y0080309D01*
X0302958Y0083843D01*
X0304514Y0085399D01*
X0308048Y0081865D01*
G37*
G36*
X0305821Y0079638D02*
X0304265Y0078082D01*
X0300731Y0081616D01*
X0302287Y0083172D01*
X0305821Y0079638D01*
G37*
G36*
X0305821Y0079638D02*
X0304265Y0078082D01*
X0300731Y0081616D01*
X0302287Y0083172D01*
X0305821Y0079638D01*
G37*
G36*
X0303594Y0077411D02*
X0302038Y0075855D01*
X0298504Y0079389D01*
X0300060Y0080945D01*
X0303594Y0077411D01*
G37*
G36*
X0303594Y0077411D02*
X0302038Y0075855D01*
X0298504Y0079389D01*
X0300060Y0080945D01*
X0303594Y0077411D01*
G37*
G36*
X0301367Y0075184D02*
X0299811Y0073628D01*
X0296277Y0077162D01*
X0297833Y0078718D01*
X0301367Y0075184D01*
G37*
G36*
X0301367Y0075184D02*
X0299811Y0073628D01*
X0296277Y0077162D01*
X0297833Y0078718D01*
X0301367Y0075184D01*
G37*
G36*
X0299140Y0072957D02*
X0297584Y0071401D01*
X0294050Y0074935D01*
X0295606Y0076491D01*
X0299140Y0072957D01*
G37*
G36*
X0299140Y0072957D02*
X0297584Y0071401D01*
X0294050Y0074935D01*
X0295606Y0076491D01*
X0299140Y0072957D01*
G37*
G36*
X0296913Y0070730D02*
X0295357Y0069174D01*
X0291823Y0072708D01*
X0293379Y0074264D01*
X0296913Y0070730D01*
G37*
G36*
X0296913Y0070730D02*
X0295357Y0069174D01*
X0291823Y0072708D01*
X0293379Y0074264D01*
X0296913Y0070730D01*
G37*
G36*
X0294686Y0068503D02*
X0293130Y0066947D01*
X0289596Y0070481D01*
X0291152Y0072037D01*
X0294686Y0068503D01*
G37*
G36*
X0294686Y0068503D02*
X0293130Y0066947D01*
X0289596Y0070481D01*
X0291152Y0072037D01*
X0294686Y0068503D01*
G37*
G36*
X0327494Y0053511D02*
X0325938Y0051955D01*
X0322404Y0055489D01*
X0323960Y0057045D01*
X0327494Y0053511D01*
G37*
G36*
X0327494Y0053511D02*
X0325938Y0051955D01*
X0322404Y0055489D01*
X0323960Y0057045D01*
X0327494Y0053511D01*
G37*
G36*
X0325267Y0051284D02*
X0323711Y0049728D01*
X0320177Y0053262D01*
X0321733Y0054818D01*
X0325267Y0051284D01*
G37*
G36*
X0325267Y0051284D02*
X0323711Y0049728D01*
X0320177Y0053262D01*
X0321733Y0054818D01*
X0325267Y0051284D01*
G37*
G36*
X0323040Y0049057D02*
X0321484Y0047501D01*
X0317950Y0051035D01*
X0319506Y0052591D01*
X0323040Y0049057D01*
G37*
G36*
X0323040Y0049057D02*
X0321484Y0047501D01*
X0317950Y0051035D01*
X0319506Y0052591D01*
X0323040Y0049057D01*
G37*
G36*
X0320813Y0046830D02*
X0319257Y0045274D01*
X0315723Y0048808D01*
X0317279Y0050364D01*
X0320813Y0046830D01*
G37*
G36*
X0320813Y0046830D02*
X0319257Y0045274D01*
X0315723Y0048808D01*
X0317279Y0050364D01*
X0320813Y0046830D01*
G37*
G36*
X0318586Y0044602D02*
X0317030Y0043046D01*
X0313496Y0046580D01*
X0315052Y0048136D01*
X0318586Y0044602D01*
G37*
G36*
X0318586Y0044602D02*
X0317030Y0043046D01*
X0313496Y0046580D01*
X0315052Y0048136D01*
X0318586Y0044602D01*
G37*
G36*
X0329721Y0055738D02*
X0328165Y0054182D01*
X0324631Y0057716D01*
X0326187Y0059272D01*
X0329721Y0055738D01*
G37*
G36*
X0329721Y0055738D02*
X0328165Y0054182D01*
X0324631Y0057716D01*
X0326187Y0059272D01*
X0329721Y0055738D01*
G37*
G36*
X0331949Y0057965D02*
X0330393Y0056409D01*
X0326859Y0059943D01*
X0328415Y0061499D01*
X0331949Y0057965D01*
G37*
G36*
X0331949Y0057965D02*
X0330393Y0056409D01*
X0326859Y0059943D01*
X0328415Y0061499D01*
X0331949Y0057965D01*
G37*
G36*
X0334176Y0060192D02*
X0332620Y0058636D01*
X0329086Y0062170D01*
X0330642Y0063726D01*
X0334176Y0060192D01*
G37*
G36*
X0334176Y0060192D02*
X0332620Y0058636D01*
X0329086Y0062170D01*
X0330642Y0063726D01*
X0334176Y0060192D01*
G37*
D25*
X0256325Y0107481D03*
X0256325Y0107481D03*
X0250420Y0107481D03*
X0250420Y0107481D03*
X0244514Y0107481D03*
X0244514Y0107481D03*
X0073998Y0107762D03*
X0073998Y0107762D03*
X0068092Y0107762D03*
X0068092Y0107762D03*
X0062186Y0107762D03*
X0062186Y0107762D03*
D26*
X0068092Y0095558D03*
X0068092Y0095558D03*
X0250420Y0095277D03*
X0250420Y0095277D03*
D27*
X0302306Y0095182D03*
X0312306Y0095182D03*
X0322306Y0095182D03*
X0322306Y0105182D03*
X0312306Y0105182D03*
X0302306Y0105182D03*
X0431473Y0106800D03*
X0441473Y0106800D03*
X0441473Y0096800D03*
X0431473Y0096800D03*
X0431473Y0086800D03*
X0441473Y0086800D03*
X0441473Y0076800D03*
X0431473Y0076800D03*
X0431473Y0066800D03*
X0441473Y0066800D03*
X0441473Y0056800D03*
X0431473Y0056800D03*
X0431473Y0046800D03*
X0441473Y0046800D03*
D28*
X0212280Y0045093D03*
X0212280Y0045093D03*
X0212280Y0050093D03*
X0212280Y0050093D03*
X0212280Y0055093D03*
X0212280Y0055093D03*
X0212280Y0060093D03*
X0212280Y0060093D03*
X0212280Y0065093D03*
X0212280Y0065093D03*
X0212280Y0070093D03*
X0212280Y0070093D03*
X0212280Y0075093D03*
X0212280Y0075093D03*
X0212280Y0080093D03*
X0212280Y0080093D03*
X0190233Y0080093D03*
X0190233Y0080093D03*
X0190233Y0075093D03*
X0190233Y0075093D03*
X0190233Y0070093D03*
X0190233Y0070093D03*
X0190233Y0065093D03*
X0190233Y0065093D03*
X0190233Y0060093D03*
X0190233Y0060093D03*
X0190233Y0055093D03*
X0190233Y0055093D03*
X0190233Y0050093D03*
X0190233Y0050093D03*
X0190233Y0045093D03*
X0190233Y0045093D03*
D29*
X0177407Y0045938D03*
X0177407Y0045938D03*
X0177407Y0050662D03*
X0177407Y0050662D03*
X0177407Y0055387D03*
X0177407Y0055387D03*
D30*
X0267074Y0093082D03*
X0267074Y0093082D03*
X0267074Y0098082D03*
X0267074Y0098082D03*
X0267074Y0103082D03*
X0267074Y0103082D03*
X0267074Y0108082D03*
X0267074Y0108082D03*
X0287546Y0108082D03*
X0287546Y0108082D03*
X0287546Y0103082D03*
X0287546Y0103082D03*
X0287546Y0098082D03*
X0287546Y0098082D03*
X0287546Y0093082D03*
X0287546Y0093082D03*
D31*
X0276250Y0081118D02*
X0276250Y0078868D01*
X0276250Y0081118D02*
X0284500Y0081118D01*
X0284500Y0078868D01*
X0276250Y0078868D01*
X0276250Y0079617D02*
X0284500Y0079617D01*
X0284500Y0080366D02*
X0276250Y0080366D01*
X0276250Y0081115D02*
X0284500Y0081115D01*
X0276250Y0081118D02*
X0276250Y0078868D01*
X0276250Y0081118D02*
X0284500Y0081118D01*
X0284500Y0078868D01*
X0276250Y0078868D01*
X0276250Y0079617D02*
X0284500Y0079617D01*
X0284500Y0080366D02*
X0276250Y0080366D01*
X0276250Y0081115D02*
X0284500Y0081115D01*
X0276250Y0076118D02*
X0276250Y0073868D01*
X0276250Y0076118D02*
X0284500Y0076118D01*
X0284500Y0073868D01*
X0276250Y0073868D01*
X0276250Y0074617D02*
X0284500Y0074617D01*
X0284500Y0075366D02*
X0276250Y0075366D01*
X0276250Y0076115D02*
X0284500Y0076115D01*
X0276250Y0076118D02*
X0276250Y0073868D01*
X0276250Y0076118D02*
X0284500Y0076118D01*
X0284500Y0073868D01*
X0276250Y0073868D01*
X0276250Y0074617D02*
X0284500Y0074617D01*
X0284500Y0075366D02*
X0276250Y0075366D01*
X0276250Y0076115D02*
X0284500Y0076115D01*
X0276250Y0071118D02*
X0276250Y0068868D01*
X0276250Y0071118D02*
X0284500Y0071118D01*
X0284500Y0068868D01*
X0276250Y0068868D01*
X0276250Y0069617D02*
X0284500Y0069617D01*
X0284500Y0070366D02*
X0276250Y0070366D01*
X0276250Y0071115D02*
X0284500Y0071115D01*
X0276250Y0071118D02*
X0276250Y0068868D01*
X0276250Y0071118D02*
X0284500Y0071118D01*
X0284500Y0068868D01*
X0276250Y0068868D01*
X0276250Y0069617D02*
X0284500Y0069617D01*
X0284500Y0070366D02*
X0276250Y0070366D01*
X0276250Y0071115D02*
X0284500Y0071115D01*
X0276250Y0066118D02*
X0276250Y0063868D01*
X0276250Y0066118D02*
X0284500Y0066118D01*
X0284500Y0063868D01*
X0276250Y0063868D01*
X0276250Y0064617D02*
X0284500Y0064617D01*
X0284500Y0065366D02*
X0276250Y0065366D01*
X0276250Y0066115D02*
X0284500Y0066115D01*
X0276250Y0066118D02*
X0276250Y0063868D01*
X0276250Y0066118D02*
X0284500Y0066118D01*
X0284500Y0063868D01*
X0276250Y0063868D01*
X0276250Y0064617D02*
X0284500Y0064617D01*
X0284500Y0065366D02*
X0276250Y0065366D01*
X0276250Y0066115D02*
X0284500Y0066115D01*
X0276250Y0061118D02*
X0276250Y0058868D01*
X0276250Y0061118D02*
X0284500Y0061118D01*
X0284500Y0058868D01*
X0276250Y0058868D01*
X0276250Y0059617D02*
X0284500Y0059617D01*
X0284500Y0060366D02*
X0276250Y0060366D01*
X0276250Y0061115D02*
X0284500Y0061115D01*
X0276250Y0061118D02*
X0276250Y0058868D01*
X0276250Y0061118D02*
X0284500Y0061118D01*
X0284500Y0058868D01*
X0276250Y0058868D01*
X0276250Y0059617D02*
X0284500Y0059617D01*
X0284500Y0060366D02*
X0276250Y0060366D01*
X0276250Y0061115D02*
X0284500Y0061115D01*
X0276250Y0056118D02*
X0276250Y0053868D01*
X0276250Y0056118D02*
X0284500Y0056118D01*
X0284500Y0053868D01*
X0276250Y0053868D01*
X0276250Y0054617D02*
X0284500Y0054617D01*
X0284500Y0055366D02*
X0276250Y0055366D01*
X0276250Y0056115D02*
X0284500Y0056115D01*
X0276250Y0056118D02*
X0276250Y0053868D01*
X0276250Y0056118D02*
X0284500Y0056118D01*
X0284500Y0053868D01*
X0276250Y0053868D01*
X0276250Y0054617D02*
X0284500Y0054617D01*
X0284500Y0055366D02*
X0276250Y0055366D01*
X0276250Y0056115D02*
X0284500Y0056115D01*
X0276250Y0051118D02*
X0276250Y0048868D01*
X0276250Y0051118D02*
X0284500Y0051118D01*
X0284500Y0048868D01*
X0276250Y0048868D01*
X0276250Y0049617D02*
X0284500Y0049617D01*
X0284500Y0050366D02*
X0276250Y0050366D01*
X0276250Y0051115D02*
X0284500Y0051115D01*
X0276250Y0051118D02*
X0276250Y0048868D01*
X0276250Y0051118D02*
X0284500Y0051118D01*
X0284500Y0048868D01*
X0276250Y0048868D01*
X0276250Y0049617D02*
X0284500Y0049617D01*
X0284500Y0050366D02*
X0276250Y0050366D01*
X0276250Y0051115D02*
X0284500Y0051115D01*
X0276250Y0046118D02*
X0276250Y0043868D01*
X0276250Y0046118D02*
X0284500Y0046118D01*
X0284500Y0043868D01*
X0276250Y0043868D01*
X0276250Y0044617D02*
X0284500Y0044617D01*
X0284500Y0045366D02*
X0276250Y0045366D01*
X0276250Y0046115D02*
X0284500Y0046115D01*
X0276250Y0046118D02*
X0276250Y0043868D01*
X0276250Y0046118D02*
X0284500Y0046118D01*
X0284500Y0043868D01*
X0276250Y0043868D01*
X0276250Y0044617D02*
X0284500Y0044617D01*
X0284500Y0045366D02*
X0276250Y0045366D01*
X0276250Y0046115D02*
X0284500Y0046115D01*
X0236250Y0046118D02*
X0236250Y0043868D01*
X0236250Y0046118D02*
X0244500Y0046118D01*
X0244500Y0043868D01*
X0236250Y0043868D01*
X0236250Y0044617D02*
X0244500Y0044617D01*
X0244500Y0045366D02*
X0236250Y0045366D01*
X0236250Y0046115D02*
X0244500Y0046115D01*
X0236250Y0046118D02*
X0236250Y0043868D01*
X0236250Y0046118D02*
X0244500Y0046118D01*
X0244500Y0043868D01*
X0236250Y0043868D01*
X0236250Y0044617D02*
X0244500Y0044617D01*
X0244500Y0045366D02*
X0236250Y0045366D01*
X0236250Y0046115D02*
X0244500Y0046115D01*
X0236250Y0048868D02*
X0236250Y0051118D01*
X0244500Y0051118D01*
X0244500Y0048868D01*
X0236250Y0048868D01*
X0236250Y0049617D02*
X0244500Y0049617D01*
X0244500Y0050366D02*
X0236250Y0050366D01*
X0236250Y0051115D02*
X0244500Y0051115D01*
X0236250Y0051118D02*
X0236250Y0048868D01*
X0236250Y0051118D02*
X0244500Y0051118D01*
X0244500Y0048868D01*
X0236250Y0048868D01*
X0236250Y0049617D02*
X0244500Y0049617D01*
X0244500Y0050366D02*
X0236250Y0050366D01*
X0236250Y0051115D02*
X0244500Y0051115D01*
X0236250Y0053868D02*
X0236250Y0056118D01*
X0244500Y0056118D01*
X0244500Y0053868D01*
X0236250Y0053868D01*
X0236250Y0054617D02*
X0244500Y0054617D01*
X0244500Y0055366D02*
X0236250Y0055366D01*
X0236250Y0056115D02*
X0244500Y0056115D01*
X0236250Y0056118D02*
X0236250Y0053868D01*
X0236250Y0056118D02*
X0244500Y0056118D01*
X0244500Y0053868D01*
X0236250Y0053868D01*
X0236250Y0054617D02*
X0244500Y0054617D01*
X0244500Y0055366D02*
X0236250Y0055366D01*
X0236250Y0056115D02*
X0244500Y0056115D01*
X0236250Y0058868D02*
X0236250Y0061118D01*
X0244500Y0061118D01*
X0244500Y0058868D01*
X0236250Y0058868D01*
X0236250Y0059617D02*
X0244500Y0059617D01*
X0244500Y0060366D02*
X0236250Y0060366D01*
X0236250Y0061115D02*
X0244500Y0061115D01*
X0236250Y0061118D02*
X0236250Y0058868D01*
X0236250Y0061118D02*
X0244500Y0061118D01*
X0244500Y0058868D01*
X0236250Y0058868D01*
X0236250Y0059617D02*
X0244500Y0059617D01*
X0244500Y0060366D02*
X0236250Y0060366D01*
X0236250Y0061115D02*
X0244500Y0061115D01*
X0236250Y0063868D02*
X0236250Y0066118D01*
X0244500Y0066118D01*
X0244500Y0063868D01*
X0236250Y0063868D01*
X0236250Y0064617D02*
X0244500Y0064617D01*
X0244500Y0065366D02*
X0236250Y0065366D01*
X0236250Y0066115D02*
X0244500Y0066115D01*
X0236250Y0066118D02*
X0236250Y0063868D01*
X0236250Y0066118D02*
X0244500Y0066118D01*
X0244500Y0063868D01*
X0236250Y0063868D01*
X0236250Y0064617D02*
X0244500Y0064617D01*
X0244500Y0065366D02*
X0236250Y0065366D01*
X0236250Y0066115D02*
X0244500Y0066115D01*
X0236250Y0068868D02*
X0236250Y0071118D01*
X0244500Y0071118D01*
X0244500Y0068868D01*
X0236250Y0068868D01*
X0236250Y0069617D02*
X0244500Y0069617D01*
X0244500Y0070366D02*
X0236250Y0070366D01*
X0236250Y0071115D02*
X0244500Y0071115D01*
X0236250Y0071118D02*
X0236250Y0068868D01*
X0236250Y0071118D02*
X0244500Y0071118D01*
X0244500Y0068868D01*
X0236250Y0068868D01*
X0236250Y0069617D02*
X0244500Y0069617D01*
X0244500Y0070366D02*
X0236250Y0070366D01*
X0236250Y0071115D02*
X0244500Y0071115D01*
X0236250Y0073868D02*
X0236250Y0076118D01*
X0244500Y0076118D01*
X0244500Y0073868D01*
X0236250Y0073868D01*
X0236250Y0074617D02*
X0244500Y0074617D01*
X0244500Y0075366D02*
X0236250Y0075366D01*
X0236250Y0076115D02*
X0244500Y0076115D01*
X0236250Y0076118D02*
X0236250Y0073868D01*
X0236250Y0076118D02*
X0244500Y0076118D01*
X0244500Y0073868D01*
X0236250Y0073868D01*
X0236250Y0074617D02*
X0244500Y0074617D01*
X0244500Y0075366D02*
X0236250Y0075366D01*
X0236250Y0076115D02*
X0244500Y0076115D01*
X0236250Y0078868D02*
X0236250Y0081118D01*
X0244500Y0081118D01*
X0244500Y0078868D01*
X0236250Y0078868D01*
X0236250Y0079617D02*
X0244500Y0079617D01*
X0244500Y0080366D02*
X0236250Y0080366D01*
X0236250Y0081115D02*
X0244500Y0081115D01*
X0236250Y0081118D02*
X0236250Y0078868D01*
X0236250Y0081118D02*
X0244500Y0081118D01*
X0244500Y0078868D01*
X0236250Y0078868D01*
X0236250Y0079617D02*
X0244500Y0079617D01*
X0244500Y0080366D02*
X0236250Y0080366D01*
X0236250Y0081115D02*
X0244500Y0081115D01*
D32*
G36*
X0107110Y0088617D02*
X0110342Y0097494D01*
X0126248Y0091705D01*
X0123016Y0082828D01*
X0107110Y0088617D01*
G37*
G36*
X0107110Y0088617D02*
X0110342Y0097494D01*
X0126248Y0091705D01*
X0123016Y0082828D01*
X0107110Y0088617D01*
G37*
D33*
G36*
X0166710Y0066925D02*
X0169942Y0075802D01*
X0185478Y0070147D01*
X0182246Y0061270D01*
X0166710Y0066925D01*
G37*
G36*
X0166710Y0066925D02*
X0169942Y0075802D01*
X0185478Y0070147D01*
X0182246Y0061270D01*
X0166710Y0066925D01*
G37*
D34*
G36*
X0336069Y0046438D02*
X0334120Y0044489D01*
X0329389Y0049220D01*
X0331338Y0051169D01*
X0336069Y0046438D01*
G37*
G36*
X0336069Y0046438D02*
X0334120Y0044489D01*
X0329389Y0049220D01*
X0331338Y0051169D01*
X0336069Y0046438D01*
G37*
G36*
X0339410Y0049779D02*
X0337461Y0047830D01*
X0332730Y0052561D01*
X0334679Y0054510D01*
X0339410Y0049779D01*
G37*
G36*
X0339410Y0049779D02*
X0337461Y0047830D01*
X0332730Y0052561D01*
X0334679Y0054510D01*
X0339410Y0049779D01*
G37*
G36*
X0342751Y0053119D02*
X0340802Y0051170D01*
X0336071Y0055901D01*
X0338020Y0057850D01*
X0342751Y0053119D01*
G37*
G36*
X0342751Y0053119D02*
X0340802Y0051170D01*
X0336071Y0055901D01*
X0338020Y0057850D01*
X0342751Y0053119D01*
G37*
D35*
X0337970Y0083296D03*
X0337970Y0083296D03*
X0341770Y0091296D03*
X0341770Y0091296D03*
X0334170Y0091296D03*
X0334170Y0091296D03*
X0334335Y0099144D03*
X0334335Y0099144D03*
X0341935Y0099144D03*
X0341935Y0099144D03*
X0338135Y0107144D03*
X0338135Y0107144D03*
X0229491Y0076198D03*
X0229491Y0076198D03*
X0221891Y0076198D03*
X0221891Y0076198D03*
X0225691Y0068198D03*
X0225691Y0068198D03*
D36*
X0104825Y0101359D02*
X0104825Y0107359D01*
X0094825Y0107359D02*
X0094825Y0101359D01*
D37*
X0376078Y0088668D03*
X0376078Y0088668D03*
D38*
X0420566Y0088668D03*
X0420566Y0088668D03*
D39*
X0415645Y0089062D03*
X0415645Y0089062D03*
X0411511Y0089062D03*
X0411511Y0089062D03*
X0402849Y0089062D03*
X0402849Y0089062D03*
X0394188Y0089062D03*
X0394188Y0089062D03*
X0389857Y0089062D03*
X0389857Y0089062D03*
X0385527Y0089062D03*
X0385527Y0089062D03*
D40*
X0398519Y0089062D03*
X0398519Y0089062D03*
X0407180Y0089062D03*
X0407180Y0089062D03*
D41*
X0421747Y0058747D03*
X0421747Y0058747D03*
D42*
X0420566Y0052841D03*
X0420566Y0052841D03*
D43*
X0374897Y0056188D03*
X0374897Y0056188D03*
D44*
X0376275Y0046542D03*
X0376275Y0046542D03*
D45*
X0384622Y0080759D02*
X0384955Y0080759D01*
X0384955Y0081093D01*
X0384622Y0081093D01*
X0384622Y0080759D01*
X0397296Y0081760D02*
X0398631Y0081760D01*
X0397964Y0082427D02*
X0397964Y0081093D01*
X0406155Y0081760D02*
X0407489Y0081760D01*
D46*
X0247317Y0077906D03*
X0247317Y0067906D03*
X0247317Y0057906D03*
X0247317Y0047906D03*
D47*
X0060601Y0080751D03*
X0060601Y0080751D03*
X0060601Y0087444D03*
X0060601Y0087444D03*
D48*
X0060601Y0085278D02*
X0059027Y0082916D01*
X0062176Y0082916D01*
X0060601Y0084097D01*
X0059814Y0083310D01*
X0060995Y0083703D01*
X0060601Y0084491D01*
X0060601Y0085278D02*
X0062176Y0082916D01*
X0062176Y0085278D02*
X0060601Y0085278D01*
X0059027Y0085278D01*
X0354127Y0059822D02*
X0354127Y0056672D01*
X0355309Y0058247D01*
X0354521Y0059034D01*
X0354915Y0057853D01*
X0355702Y0058247D01*
X0356490Y0058247D02*
X0354127Y0059822D01*
X0356490Y0059822D02*
X0356490Y0058247D01*
X0354127Y0056672D01*
X0356490Y0056672D02*
X0356490Y0058247D01*
D49*
X0358655Y0058247D03*
X0358655Y0058247D03*
X0351962Y0058247D03*
X0351962Y0058247D03*
D50*
X0084352Y0084107D03*
X0084352Y0084107D03*
X0073155Y0084107D03*
X0073155Y0084107D03*
D51*
X0105964Y0058194D03*
X0105964Y0058194D03*
X0116211Y0058222D03*
X0116211Y0058222D03*
X0116211Y0045328D03*
X0116211Y0045328D03*
X0105964Y0045300D03*
X0105964Y0045300D03*
D52*
X0105964Y0049385D03*
X0116211Y0049413D03*
D53*
X0127479Y0045845D03*
X0127479Y0045845D03*
X0134172Y0045845D03*
X0134172Y0045845D03*
X0143513Y0045622D03*
X0143513Y0045622D03*
X0150206Y0045622D03*
X0150206Y0045622D03*
X0221564Y0046364D03*
X0221564Y0046364D03*
X0228257Y0046364D03*
X0228257Y0046364D03*
X0228557Y0053557D03*
X0228557Y0053557D03*
X0221864Y0053557D03*
X0221864Y0053557D03*
X0222370Y0061885D03*
X0222370Y0061885D03*
X0229063Y0061885D03*
X0229063Y0061885D03*
X0244998Y0087096D03*
X0244998Y0087096D03*
X0251691Y0087096D03*
X0251691Y0087096D03*
X0259690Y0087003D03*
X0259690Y0087003D03*
X0266383Y0087003D03*
X0266383Y0087003D03*
X0273289Y0087003D03*
X0273289Y0087003D03*
X0279982Y0087003D03*
X0279982Y0087003D03*
X0287451Y0086547D03*
X0287451Y0086547D03*
X0294144Y0086547D03*
X0294144Y0086547D03*
X0349932Y0052277D03*
X0349932Y0052277D03*
X0356625Y0052277D03*
X0356625Y0052277D03*
X0353948Y0045764D03*
X0353948Y0045764D03*
X0347255Y0045764D03*
X0347255Y0045764D03*
X0205565Y0104941D03*
X0205565Y0104941D03*
X0198872Y0104941D03*
X0198872Y0104941D03*
X0174918Y0106733D03*
X0174918Y0106733D03*
X0168225Y0106733D03*
X0168225Y0106733D03*
X0188974Y0088409D03*
X0188974Y0088409D03*
X0195667Y0088409D03*
X0195667Y0088409D03*
X0122194Y0106136D03*
X0122194Y0106136D03*
X0115501Y0106136D03*
X0115501Y0106136D03*
D54*
X0082378Y0104403D03*
X0082378Y0104403D03*
X0082378Y0097710D03*
X0082378Y0097710D03*
X0204081Y0094855D03*
X0204081Y0094855D03*
X0204081Y0088162D03*
X0204081Y0088162D03*
X0351983Y0099798D03*
X0351983Y0099798D03*
X0359895Y0099898D03*
X0359895Y0099898D03*
X0368601Y0099798D03*
X0368601Y0099798D03*
X0368601Y0106491D03*
X0368601Y0106491D03*
X0359895Y0106591D03*
X0359895Y0106591D03*
X0351983Y0106491D03*
X0351983Y0106491D03*
X0364338Y0052244D03*
X0364338Y0052244D03*
X0364338Y0045551D03*
X0364338Y0045551D03*
D55*
X0364218Y0048898D02*
X0364459Y0048898D01*
X0353279Y0052157D02*
X0353279Y0052397D01*
X0350601Y0045884D02*
X0350601Y0045644D01*
X0276635Y0086883D02*
X0276635Y0087123D01*
X0263037Y0087123D02*
X0263037Y0086883D01*
X0225716Y0062005D02*
X0225716Y0061765D01*
X0146860Y0045742D02*
X0146860Y0045502D01*
X0082498Y0101057D02*
X0082258Y0101057D01*
X0118847Y0106016D02*
X0118847Y0106256D01*
X0202219Y0105061D02*
X0202219Y0104821D01*
X0368481Y0103144D02*
X0368721Y0103144D01*
D56*
X0040745Y0106837D03*
X0040745Y0106837D03*
X0040745Y0077829D03*
X0040745Y0077829D03*
D57*
X0040745Y0092333D03*
X0040745Y0092333D03*
D58*
X0051375Y0092333D03*
X0051375Y0092333D03*
X0051375Y0094892D03*
X0051375Y0094892D03*
X0051375Y0097451D03*
X0051375Y0097451D03*
X0051375Y0089774D03*
X0051375Y0089774D03*
X0051375Y0087215D03*
X0051375Y0087215D03*
D59*
X0052556Y0080522D02*
X0052556Y0076585D01*
X0048619Y0076585D01*
X0036808Y0076585D02*
X0032871Y0076585D01*
X0052556Y0104144D02*
X0052556Y0108081D01*
X0052485Y0108053D02*
X0048619Y0108053D01*
X0048619Y0108081D01*
X0036808Y0108081D02*
X0032871Y0108081D01*
D60*
X0062195Y0103133D03*
X0068195Y0103433D03*
X0074195Y0097733D03*
X0056195Y0089933D03*
X0067895Y0087533D03*
X0078995Y0085133D03*
X0108095Y0097433D03*
X0110495Y0106733D03*
X0134495Y0101333D03*
X0187295Y0100733D03*
X0187295Y0104033D03*
X0205895Y0083933D03*
X0221795Y0080933D03*
X0228095Y0081233D03*
X0231995Y0081833D03*
X0240695Y0089333D03*
X0249095Y0083033D03*
X0256895Y0083033D03*
X0265595Y0082433D03*
X0266495Y0079133D03*
X0273695Y0073133D03*
X0261695Y0070733D03*
X0268595Y0064733D03*
X0258395Y0061133D03*
X0246995Y0062033D03*
X0233795Y0058733D03*
X0233795Y0053933D03*
X0220595Y0067133D03*
X0218195Y0069533D03*
X0194795Y0069833D03*
X0186095Y0062633D03*
X0184595Y0057833D03*
X0169295Y0045833D03*
X0150395Y0057833D03*
X0132395Y0061733D03*
X0131195Y0058433D03*
X0231095Y0095033D03*
X0261095Y0095633D03*
X0273395Y0098333D03*
X0277895Y0100433D03*
X0279095Y0106133D03*
X0293795Y0101033D03*
X0307295Y0095933D03*
X0296195Y0092333D03*
X0305195Y0089033D03*
X0318995Y0089633D03*
X0322895Y0084833D03*
X0330095Y0080933D03*
X0332495Y0083333D03*
X0345395Y0088733D03*
X0347795Y0091133D03*
X0344795Y0095933D03*
X0329195Y0099233D03*
X0325595Y0109133D03*
X0366695Y0093233D03*
X0366395Y0086333D03*
X0381395Y0089933D03*
X0381395Y0093233D03*
X0384995Y0095933D03*
X0393695Y0099233D03*
X0400895Y0098333D03*
X0401495Y0104033D03*
X0407195Y0095933D03*
X0425195Y0089033D03*
X0427895Y0080333D03*
X0425495Y0077933D03*
X0429095Y0071633D03*
X0420695Y0071633D03*
X0409595Y0080933D03*
X0403895Y0083633D03*
X0382295Y0084533D03*
X0381095Y0071033D03*
X0391895Y0071633D03*
X0374795Y0061133D03*
X0378695Y0056633D03*
X0368495Y0056633D03*
X0364295Y0056633D03*
X0368495Y0051833D03*
X0380195Y0049733D03*
X0347495Y0065633D03*
X0342095Y0069533D03*
X0334295Y0073133D03*
X0339695Y0075233D03*
X0345395Y0076133D03*
X0323495Y0065333D03*
X0321095Y0068033D03*
X0318395Y0062933D03*
X0315995Y0060533D03*
X0310595Y0060533D03*
X0308495Y0057833D03*
X0312095Y0054533D03*
X0317795Y0055433D03*
X0321395Y0057833D03*
X0330395Y0053033D03*
X0332795Y0055433D03*
X0335195Y0057833D03*
X0333995Y0063233D03*
X0339095Y0063233D03*
X0321995Y0072833D03*
X0312995Y0078533D03*
X0306395Y0077333D03*
X0302495Y0073433D03*
X0299195Y0070133D03*
X0296795Y0067733D03*
X0287495Y0069833D03*
X0286895Y0075233D03*
X0291695Y0077633D03*
X0291395Y0082433D03*
X0276695Y0092033D03*
X0273395Y0092033D03*
X0249995Y0073733D03*
X0297995Y0061733D03*
X0311195Y0051233D03*
X0311795Y0045233D03*
X0326795Y0048233D03*
X0342995Y0045833D03*
X0380795Y0104033D03*
M02*
