G75*
%MOIN*%
%OFA0B0*%
%FSLAX25Y25*%
%IPPOS*%
%LPD*%
%AMOC8*
5,1,8,0,0,1.08239X$1,22.5*
%
%ADD10C,0.13198*%
%ADD11C,0.03946*%
%ADD12OC8,0.06600*%
%ADD13C,0.04340*%
%ADD14C,0.05521*%
%ADD15C,0.06600*%
%ADD16R,0.12411X0.04537*%
%ADD17C,0.06112*%
%ADD18C,0.03300*%
D10*
X0101450Y0076766D03*
X0357356Y0076766D03*
D11*
X0224310Y0089646D03*
X0224310Y0101457D03*
X0049407Y0099814D03*
X0049407Y0084853D03*
D12*
X0302306Y0095182D03*
X0312306Y0095182D03*
X0322306Y0095182D03*
X0322306Y0105182D03*
X0312306Y0105182D03*
X0302306Y0105182D03*
X0431473Y0106800D03*
X0441473Y0106800D03*
X0441473Y0096800D03*
X0431473Y0096800D03*
X0431473Y0086800D03*
X0441473Y0086800D03*
X0441473Y0076800D03*
X0431473Y0076800D03*
X0431473Y0066800D03*
X0441473Y0066800D03*
X0441473Y0056800D03*
X0431473Y0056800D03*
X0431473Y0046800D03*
X0441473Y0046800D03*
D13*
X0133179Y0084156D03*
D14*
X0160926Y0074057D03*
D15*
X0104825Y0101359D02*
X0104825Y0107359D01*
X0094825Y0107359D02*
X0094825Y0101359D01*
D16*
X0247317Y0077906D03*
X0247317Y0067906D03*
X0247317Y0057906D03*
X0247317Y0047906D03*
D17*
X0267002Y0052906D03*
X0267002Y0072906D03*
D18*
X0131195Y0058433D03*
X0132395Y0061733D03*
X0150395Y0057833D03*
X0169295Y0045833D03*
X0184595Y0057833D03*
X0186095Y0062633D03*
X0194795Y0069833D03*
X0218195Y0069533D03*
X0220595Y0067133D03*
X0233795Y0058733D03*
X0233795Y0053933D03*
X0246995Y0062033D03*
X0258395Y0061133D03*
X0268595Y0064733D03*
X0261695Y0070733D03*
X0249995Y0073733D03*
X0266495Y0079133D03*
X0265595Y0082433D03*
X0256895Y0083033D03*
X0249095Y0083033D03*
X0240695Y0089333D03*
X0231095Y0095033D03*
X0205895Y0083933D03*
X0221795Y0080933D03*
X0228095Y0081233D03*
X0231995Y0081833D03*
X0261095Y0095633D03*
X0273395Y0098333D03*
X0277895Y0100433D03*
X0279095Y0106133D03*
X0293795Y0101033D03*
X0307295Y0095933D03*
X0296195Y0092333D03*
X0305195Y0089033D03*
X0318995Y0089633D03*
X0322895Y0084833D03*
X0330095Y0080933D03*
X0332495Y0083333D03*
X0345395Y0088733D03*
X0347795Y0091133D03*
X0344795Y0095933D03*
X0329195Y0099233D03*
X0325595Y0109133D03*
X0366695Y0093233D03*
X0366395Y0086333D03*
X0381395Y0089933D03*
X0381395Y0093233D03*
X0384995Y0095933D03*
X0393695Y0099233D03*
X0400895Y0098333D03*
X0401495Y0104033D03*
X0407195Y0095933D03*
X0425195Y0089033D03*
X0427895Y0080333D03*
X0425495Y0077933D03*
X0429095Y0071633D03*
X0420695Y0071633D03*
X0409595Y0080933D03*
X0403895Y0083633D03*
X0382295Y0084533D03*
X0381095Y0071033D03*
X0391895Y0071633D03*
X0374795Y0061133D03*
X0378695Y0056633D03*
X0368495Y0056633D03*
X0364295Y0056633D03*
X0368495Y0051833D03*
X0380195Y0049733D03*
X0347495Y0065633D03*
X0342095Y0069533D03*
X0334295Y0073133D03*
X0339695Y0075233D03*
X0345395Y0076133D03*
X0323495Y0065333D03*
X0321095Y0068033D03*
X0318395Y0062933D03*
X0315995Y0060533D03*
X0310595Y0060533D03*
X0308495Y0057833D03*
X0312095Y0054533D03*
X0317795Y0055433D03*
X0321395Y0057833D03*
X0330395Y0053033D03*
X0332795Y0055433D03*
X0335195Y0057833D03*
X0333995Y0063233D03*
X0339095Y0063233D03*
X0321995Y0072833D03*
X0312995Y0078533D03*
X0306395Y0077333D03*
X0302495Y0073433D03*
X0299195Y0070133D03*
X0296795Y0067733D03*
X0287495Y0069833D03*
X0286895Y0075233D03*
X0291695Y0077633D03*
X0291395Y0082433D03*
X0276695Y0092033D03*
X0273395Y0092033D03*
X0273695Y0073133D03*
X0297995Y0061733D03*
X0311195Y0051233D03*
X0311795Y0045233D03*
X0326795Y0048233D03*
X0342995Y0045833D03*
X0380795Y0104033D03*
X0187295Y0104033D03*
X0187295Y0100733D03*
X0134495Y0101333D03*
X0110495Y0106733D03*
X0108095Y0097433D03*
X0078995Y0085133D03*
X0067895Y0087533D03*
X0056195Y0089933D03*
X0074195Y0097733D03*
X0068195Y0103433D03*
X0062195Y0103133D03*
M02*
