G75*
%MOIN*%
%OFA0B0*%
%FSLAX25Y25*%
%IPPOS*%
%LPD*%
%AMOC8*
5,1,8,0,0,1.08239X$1,22.5*
%
%ADD10C,0.13198*%
%ADD11R,0.05324X0.02765*%
%ADD12R,0.18710X0.04537*%
%ADD13R,0.13986X0.06899*%
%ADD14R,0.05128X0.04537*%
%ADD15C,0.03946*%
%ADD16R,0.05600X0.02800*%
%ADD17R,0.02800X0.05600*%
%ADD18R,0.02883X0.05324*%
%ADD19R,0.08474X0.08474*%
%ADD20OC8,0.06600*%
%ADD21R,0.05324X0.02962*%
%ADD22R,0.07293X0.03356*%
%ADD23R,0.09261X0.02962*%
%ADD24C,0.00900*%
%ADD25R,0.10049X0.17529*%
%ADD26R,0.10049X0.17135*%
%ADD27C,0.04340*%
%ADD28C,0.05521*%
%ADD29R,0.03356X0.07293*%
%ADD30R,0.03700X0.04100*%
%ADD31C,0.06600*%
%ADD32R,0.06112X0.06506*%
%ADD33R,0.05718X0.06506*%
%ADD34R,0.03356X0.07490*%
%ADD35R,0.03356X0.08600*%
%ADD36R,0.03750X0.06506*%
%ADD37R,0.06112X0.04537*%
%ADD38R,0.03750X0.06112*%
%ADD39R,0.04537X0.06702*%
%ADD40C,0.06112*%
%ADD41R,0.04143X0.03750*%
%ADD42R,0.03750X0.04143*%
%ADD43R,0.06899X0.07698*%
%ADD44R,0.05403X0.04183*%
%ADD45R,0.04931X0.04537*%
%ADD46R,0.04537X0.04931*%
%ADD47R,0.06112X0.02175*%
%ADD48R,0.06693X0.07874*%
%ADD49R,0.06693X0.10630*%
%ADD50C,0.03300*%
D10*
X0101450Y0076766D03*
X0357356Y0076766D03*
D11*
X0191807Y0100762D03*
X0191807Y0104502D03*
X0191807Y0108242D03*
X0181570Y0108242D03*
X0181570Y0104502D03*
X0181570Y0100762D03*
D12*
X0083324Y0063959D03*
X0083324Y0056085D03*
D13*
X0062852Y0046636D03*
X0062852Y0073408D03*
D14*
X0213188Y0085709D03*
X0213188Y0095551D03*
X0213188Y0105394D03*
X0235432Y0105394D03*
X0235432Y0095551D03*
X0235432Y0085709D03*
D15*
X0224310Y0089646D03*
X0224310Y0101457D03*
X0049407Y0099814D03*
X0049407Y0084853D03*
D16*
G36*
X0295110Y0062170D02*
X0291152Y0058212D01*
X0289172Y0060192D01*
X0293130Y0064150D01*
X0295110Y0062170D01*
G37*
G36*
X0297337Y0059943D02*
X0293379Y0055985D01*
X0291399Y0057965D01*
X0295357Y0061923D01*
X0297337Y0059943D01*
G37*
G36*
X0299564Y0057716D02*
X0295606Y0053758D01*
X0293626Y0055738D01*
X0297584Y0059696D01*
X0299564Y0057716D01*
G37*
G36*
X0301791Y0055489D02*
X0297833Y0051531D01*
X0295853Y0053511D01*
X0299811Y0057469D01*
X0301791Y0055489D01*
G37*
G36*
X0304018Y0053262D02*
X0300060Y0049304D01*
X0298080Y0051284D01*
X0302038Y0055242D01*
X0304018Y0053262D01*
G37*
G36*
X0306245Y0051035D02*
X0302287Y0047077D01*
X0300307Y0049057D01*
X0304265Y0053015D01*
X0306245Y0051035D01*
G37*
G36*
X0308472Y0048808D02*
X0304514Y0044850D01*
X0302534Y0046830D01*
X0306492Y0050788D01*
X0308472Y0048808D01*
G37*
G36*
X0310699Y0046580D02*
X0306741Y0042622D01*
X0304761Y0044602D01*
X0308719Y0048560D01*
X0310699Y0046580D01*
G37*
G36*
X0334600Y0070481D02*
X0330642Y0066523D01*
X0328662Y0068503D01*
X0332620Y0072461D01*
X0334600Y0070481D01*
G37*
G36*
X0332373Y0072708D02*
X0328415Y0068750D01*
X0326435Y0070730D01*
X0330393Y0074688D01*
X0332373Y0072708D01*
G37*
G36*
X0330145Y0074935D02*
X0326187Y0070977D01*
X0324207Y0072957D01*
X0328165Y0076915D01*
X0330145Y0074935D01*
G37*
G36*
X0327918Y0077162D02*
X0323960Y0073204D01*
X0321980Y0075184D01*
X0325938Y0079142D01*
X0327918Y0077162D01*
G37*
G36*
X0325691Y0079389D02*
X0321733Y0075431D01*
X0319753Y0077411D01*
X0323711Y0081369D01*
X0325691Y0079389D01*
G37*
G36*
X0323464Y0081616D02*
X0319506Y0077658D01*
X0317526Y0079638D01*
X0321484Y0083596D01*
X0323464Y0081616D01*
G37*
G36*
X0321237Y0083843D02*
X0317279Y0079885D01*
X0315299Y0081865D01*
X0319257Y0085823D01*
X0321237Y0083843D01*
G37*
G36*
X0319010Y0086070D02*
X0315052Y0082112D01*
X0313072Y0084092D01*
X0317030Y0088050D01*
X0319010Y0086070D01*
G37*
D17*
G36*
X0310699Y0084092D02*
X0308719Y0082112D01*
X0304761Y0086070D01*
X0306741Y0088050D01*
X0310699Y0084092D01*
G37*
G36*
X0308472Y0081865D02*
X0306492Y0079885D01*
X0302534Y0083843D01*
X0304514Y0085823D01*
X0308472Y0081865D01*
G37*
G36*
X0306245Y0079638D02*
X0304265Y0077658D01*
X0300307Y0081616D01*
X0302287Y0083596D01*
X0306245Y0079638D01*
G37*
G36*
X0304018Y0077411D02*
X0302038Y0075431D01*
X0298080Y0079389D01*
X0300060Y0081369D01*
X0304018Y0077411D01*
G37*
G36*
X0301791Y0075184D02*
X0299811Y0073204D01*
X0295853Y0077162D01*
X0297833Y0079142D01*
X0301791Y0075184D01*
G37*
G36*
X0299564Y0072957D02*
X0297584Y0070977D01*
X0293626Y0074935D01*
X0295606Y0076915D01*
X0299564Y0072957D01*
G37*
G36*
X0297337Y0070730D02*
X0295357Y0068750D01*
X0291399Y0072708D01*
X0293379Y0074688D01*
X0297337Y0070730D01*
G37*
G36*
X0295110Y0068503D02*
X0293130Y0066523D01*
X0289172Y0070481D01*
X0291152Y0072461D01*
X0295110Y0068503D01*
G37*
G36*
X0327918Y0053511D02*
X0325938Y0051531D01*
X0321980Y0055489D01*
X0323960Y0057469D01*
X0327918Y0053511D01*
G37*
G36*
X0325691Y0051284D02*
X0323711Y0049304D01*
X0319753Y0053262D01*
X0321733Y0055242D01*
X0325691Y0051284D01*
G37*
G36*
X0323464Y0049057D02*
X0321484Y0047077D01*
X0317526Y0051035D01*
X0319506Y0053015D01*
X0323464Y0049057D01*
G37*
G36*
X0321237Y0046830D02*
X0319257Y0044850D01*
X0315299Y0048808D01*
X0317279Y0050788D01*
X0321237Y0046830D01*
G37*
G36*
X0319010Y0044602D02*
X0317030Y0042622D01*
X0313072Y0046580D01*
X0315052Y0048560D01*
X0319010Y0044602D01*
G37*
G36*
X0330145Y0055738D02*
X0328165Y0053758D01*
X0324207Y0057716D01*
X0326187Y0059696D01*
X0330145Y0055738D01*
G37*
G36*
X0332373Y0057965D02*
X0330393Y0055985D01*
X0326435Y0059943D01*
X0328415Y0061923D01*
X0332373Y0057965D01*
G37*
G36*
X0334600Y0060192D02*
X0332620Y0058212D01*
X0328662Y0062170D01*
X0330642Y0064150D01*
X0334600Y0060192D01*
G37*
D18*
X0256325Y0107481D03*
X0250420Y0107481D03*
X0244514Y0107481D03*
X0073998Y0107762D03*
X0068092Y0107762D03*
X0062186Y0107762D03*
D19*
X0068092Y0095558D03*
X0250420Y0095277D03*
D20*
X0302306Y0095182D03*
X0312306Y0095182D03*
X0322306Y0095182D03*
X0322306Y0105182D03*
X0312306Y0105182D03*
X0302306Y0105182D03*
X0431473Y0106800D03*
X0441473Y0106800D03*
X0441473Y0096800D03*
X0431473Y0096800D03*
X0431473Y0086800D03*
X0441473Y0086800D03*
X0441473Y0076800D03*
X0431473Y0076800D03*
X0431473Y0066800D03*
X0441473Y0066800D03*
X0441473Y0056800D03*
X0431473Y0056800D03*
X0431473Y0046800D03*
X0441473Y0046800D03*
D21*
X0212280Y0045093D03*
X0212280Y0050093D03*
X0212280Y0055093D03*
X0212280Y0060093D03*
X0212280Y0065093D03*
X0212280Y0070093D03*
X0212280Y0075093D03*
X0212280Y0080093D03*
X0190233Y0080093D03*
X0190233Y0075093D03*
X0190233Y0070093D03*
X0190233Y0065093D03*
X0190233Y0060093D03*
X0190233Y0055093D03*
X0190233Y0050093D03*
X0190233Y0045093D03*
D22*
X0177407Y0045938D03*
X0177407Y0050662D03*
X0177407Y0055387D03*
D23*
X0267074Y0093082D03*
X0267074Y0098082D03*
X0267074Y0103082D03*
X0267074Y0108082D03*
X0287546Y0108082D03*
X0287546Y0103082D03*
X0287546Y0098082D03*
X0287546Y0093082D03*
D24*
X0276025Y0081343D02*
X0276025Y0078643D01*
X0276025Y0081343D02*
X0284725Y0081343D01*
X0284725Y0078643D01*
X0276025Y0078643D01*
X0276025Y0079542D02*
X0284725Y0079542D01*
X0284725Y0080441D02*
X0276025Y0080441D01*
X0276025Y0081340D02*
X0284725Y0081340D01*
X0276025Y0076343D02*
X0276025Y0073643D01*
X0276025Y0076343D02*
X0284725Y0076343D01*
X0284725Y0073643D01*
X0276025Y0073643D01*
X0276025Y0074542D02*
X0284725Y0074542D01*
X0284725Y0075441D02*
X0276025Y0075441D01*
X0276025Y0076340D02*
X0284725Y0076340D01*
X0276025Y0071343D02*
X0276025Y0068643D01*
X0276025Y0071343D02*
X0284725Y0071343D01*
X0284725Y0068643D01*
X0276025Y0068643D01*
X0276025Y0069542D02*
X0284725Y0069542D01*
X0284725Y0070441D02*
X0276025Y0070441D01*
X0276025Y0071340D02*
X0284725Y0071340D01*
X0276025Y0066343D02*
X0276025Y0063643D01*
X0276025Y0066343D02*
X0284725Y0066343D01*
X0284725Y0063643D01*
X0276025Y0063643D01*
X0276025Y0064542D02*
X0284725Y0064542D01*
X0284725Y0065441D02*
X0276025Y0065441D01*
X0276025Y0066340D02*
X0284725Y0066340D01*
X0276025Y0061343D02*
X0276025Y0058643D01*
X0276025Y0061343D02*
X0284725Y0061343D01*
X0284725Y0058643D01*
X0276025Y0058643D01*
X0276025Y0059542D02*
X0284725Y0059542D01*
X0284725Y0060441D02*
X0276025Y0060441D01*
X0276025Y0061340D02*
X0284725Y0061340D01*
X0276025Y0056343D02*
X0276025Y0053643D01*
X0276025Y0056343D02*
X0284725Y0056343D01*
X0284725Y0053643D01*
X0276025Y0053643D01*
X0276025Y0054542D02*
X0284725Y0054542D01*
X0284725Y0055441D02*
X0276025Y0055441D01*
X0276025Y0056340D02*
X0284725Y0056340D01*
X0276025Y0051343D02*
X0276025Y0048643D01*
X0276025Y0051343D02*
X0284725Y0051343D01*
X0284725Y0048643D01*
X0276025Y0048643D01*
X0276025Y0049542D02*
X0284725Y0049542D01*
X0284725Y0050441D02*
X0276025Y0050441D01*
X0276025Y0051340D02*
X0284725Y0051340D01*
X0276025Y0046343D02*
X0276025Y0043643D01*
X0276025Y0046343D02*
X0284725Y0046343D01*
X0284725Y0043643D01*
X0276025Y0043643D01*
X0276025Y0044542D02*
X0284725Y0044542D01*
X0284725Y0045441D02*
X0276025Y0045441D01*
X0276025Y0046340D02*
X0284725Y0046340D01*
X0236025Y0046343D02*
X0236025Y0043643D01*
X0236025Y0046343D02*
X0244725Y0046343D01*
X0244725Y0043643D01*
X0236025Y0043643D01*
X0236025Y0044542D02*
X0244725Y0044542D01*
X0244725Y0045441D02*
X0236025Y0045441D01*
X0236025Y0046340D02*
X0244725Y0046340D01*
X0236025Y0048643D02*
X0236025Y0051343D01*
X0244725Y0051343D01*
X0244725Y0048643D01*
X0236025Y0048643D01*
X0236025Y0049542D02*
X0244725Y0049542D01*
X0244725Y0050441D02*
X0236025Y0050441D01*
X0236025Y0051340D02*
X0244725Y0051340D01*
X0236025Y0053643D02*
X0236025Y0056343D01*
X0244725Y0056343D01*
X0244725Y0053643D01*
X0236025Y0053643D01*
X0236025Y0054542D02*
X0244725Y0054542D01*
X0244725Y0055441D02*
X0236025Y0055441D01*
X0236025Y0056340D02*
X0244725Y0056340D01*
X0236025Y0058643D02*
X0236025Y0061343D01*
X0244725Y0061343D01*
X0244725Y0058643D01*
X0236025Y0058643D01*
X0236025Y0059542D02*
X0244725Y0059542D01*
X0244725Y0060441D02*
X0236025Y0060441D01*
X0236025Y0061340D02*
X0244725Y0061340D01*
X0236025Y0063643D02*
X0236025Y0066343D01*
X0244725Y0066343D01*
X0244725Y0063643D01*
X0236025Y0063643D01*
X0236025Y0064542D02*
X0244725Y0064542D01*
X0244725Y0065441D02*
X0236025Y0065441D01*
X0236025Y0066340D02*
X0244725Y0066340D01*
X0236025Y0068643D02*
X0236025Y0071343D01*
X0244725Y0071343D01*
X0244725Y0068643D01*
X0236025Y0068643D01*
X0236025Y0069542D02*
X0244725Y0069542D01*
X0244725Y0070441D02*
X0236025Y0070441D01*
X0236025Y0071340D02*
X0244725Y0071340D01*
X0236025Y0073643D02*
X0236025Y0076343D01*
X0244725Y0076343D01*
X0244725Y0073643D01*
X0236025Y0073643D01*
X0236025Y0074542D02*
X0244725Y0074542D01*
X0244725Y0075441D02*
X0236025Y0075441D01*
X0236025Y0076340D02*
X0244725Y0076340D01*
X0236025Y0078643D02*
X0236025Y0081343D01*
X0244725Y0081343D01*
X0244725Y0078643D01*
X0236025Y0078643D01*
X0236025Y0079542D02*
X0244725Y0079542D01*
X0244725Y0080441D02*
X0236025Y0080441D01*
X0236025Y0081340D02*
X0244725Y0081340D01*
D25*
G36*
X0106726Y0088438D02*
X0110162Y0097879D01*
X0126632Y0091884D01*
X0123196Y0082443D01*
X0106726Y0088438D01*
G37*
D26*
G36*
X0166326Y0066746D02*
X0169762Y0076187D01*
X0185862Y0070326D01*
X0182426Y0060885D01*
X0166326Y0066746D01*
G37*
D27*
X0133179Y0084156D03*
D28*
X0160926Y0074057D03*
D29*
G36*
X0336493Y0046438D02*
X0334120Y0044065D01*
X0328965Y0049220D01*
X0331338Y0051593D01*
X0336493Y0046438D01*
G37*
G36*
X0339834Y0049779D02*
X0337461Y0047406D01*
X0332306Y0052561D01*
X0334679Y0054934D01*
X0339834Y0049779D01*
G37*
G36*
X0343175Y0053119D02*
X0340802Y0050746D01*
X0335647Y0055901D01*
X0338020Y0058274D01*
X0343175Y0053119D01*
G37*
D30*
X0337970Y0083296D03*
X0341770Y0091296D03*
X0334170Y0091296D03*
X0334335Y0099144D03*
X0341935Y0099144D03*
X0338135Y0107144D03*
X0229491Y0076198D03*
X0221891Y0076198D03*
X0225691Y0068198D03*
D31*
X0104825Y0101359D02*
X0104825Y0107359D01*
X0094825Y0107359D02*
X0094825Y0101359D01*
D32*
X0376078Y0088668D03*
D33*
X0420566Y0088668D03*
D34*
X0415645Y0089062D03*
X0411511Y0089062D03*
X0402849Y0089062D03*
X0394188Y0089062D03*
X0389857Y0089062D03*
X0385527Y0089062D03*
D35*
X0398519Y0089062D03*
X0407180Y0089062D03*
D36*
X0421747Y0058747D03*
D37*
X0420566Y0052841D03*
D38*
X0374897Y0056188D03*
D39*
X0376275Y0046542D03*
D40*
X0267002Y0052906D03*
X0267002Y0072906D03*
D41*
X0060601Y0080751D03*
X0060601Y0087444D03*
D42*
X0351962Y0058247D03*
X0358655Y0058247D03*
D43*
X0084352Y0084107D03*
X0073155Y0084107D03*
D44*
X0105964Y0058194D03*
X0116211Y0058222D03*
X0116211Y0045328D03*
X0105964Y0045300D03*
D45*
X0127479Y0045845D03*
X0134172Y0045845D03*
X0143513Y0045622D03*
X0150206Y0045622D03*
X0221564Y0046364D03*
X0228257Y0046364D03*
X0228557Y0053557D03*
X0221864Y0053557D03*
X0222370Y0061885D03*
X0229063Y0061885D03*
X0244998Y0087096D03*
X0251691Y0087096D03*
X0259690Y0087003D03*
X0266383Y0087003D03*
X0273289Y0087003D03*
X0279982Y0087003D03*
X0287451Y0086547D03*
X0294144Y0086547D03*
X0349932Y0052277D03*
X0356625Y0052277D03*
X0353948Y0045764D03*
X0347255Y0045764D03*
X0205565Y0104941D03*
X0198872Y0104941D03*
X0174918Y0106733D03*
X0168225Y0106733D03*
X0188974Y0088409D03*
X0195667Y0088409D03*
X0122194Y0106136D03*
X0115501Y0106136D03*
D46*
X0082378Y0104403D03*
X0082378Y0097710D03*
X0204081Y0094855D03*
X0204081Y0088162D03*
X0351983Y0099798D03*
X0359895Y0099898D03*
X0368601Y0099798D03*
X0368601Y0106491D03*
X0359895Y0106591D03*
X0351983Y0106491D03*
X0364338Y0052244D03*
X0364338Y0045551D03*
D47*
X0051375Y0087215D03*
X0051375Y0089774D03*
X0051375Y0092333D03*
X0051375Y0094892D03*
X0051375Y0097451D03*
D48*
X0040745Y0106837D03*
X0040745Y0077829D03*
D49*
X0040745Y0092333D03*
D50*
X0056195Y0089933D03*
X0067895Y0087533D03*
X0078995Y0085133D03*
X0074195Y0097733D03*
X0068195Y0103433D03*
X0062195Y0103133D03*
X0108095Y0097433D03*
X0110495Y0106733D03*
X0134495Y0101333D03*
X0187295Y0100733D03*
X0187295Y0104033D03*
X0205895Y0083933D03*
X0221795Y0080933D03*
X0228095Y0081233D03*
X0231995Y0081833D03*
X0240695Y0089333D03*
X0249095Y0083033D03*
X0256895Y0083033D03*
X0265595Y0082433D03*
X0266495Y0079133D03*
X0273695Y0073133D03*
X0261695Y0070733D03*
X0268595Y0064733D03*
X0258395Y0061133D03*
X0246995Y0062033D03*
X0233795Y0058733D03*
X0233795Y0053933D03*
X0220595Y0067133D03*
X0218195Y0069533D03*
X0194795Y0069833D03*
X0186095Y0062633D03*
X0184595Y0057833D03*
X0169295Y0045833D03*
X0150395Y0057833D03*
X0132395Y0061733D03*
X0131195Y0058433D03*
X0231095Y0095033D03*
X0261095Y0095633D03*
X0273395Y0098333D03*
X0277895Y0100433D03*
X0279095Y0106133D03*
X0293795Y0101033D03*
X0307295Y0095933D03*
X0296195Y0092333D03*
X0305195Y0089033D03*
X0318995Y0089633D03*
X0322895Y0084833D03*
X0330095Y0080933D03*
X0332495Y0083333D03*
X0345395Y0088733D03*
X0347795Y0091133D03*
X0344795Y0095933D03*
X0329195Y0099233D03*
X0325595Y0109133D03*
X0366695Y0093233D03*
X0366395Y0086333D03*
X0381395Y0089933D03*
X0381395Y0093233D03*
X0384995Y0095933D03*
X0393695Y0099233D03*
X0400895Y0098333D03*
X0401495Y0104033D03*
X0407195Y0095933D03*
X0425195Y0089033D03*
X0427895Y0080333D03*
X0425495Y0077933D03*
X0429095Y0071633D03*
X0420695Y0071633D03*
X0409595Y0080933D03*
X0403895Y0083633D03*
X0382295Y0084533D03*
X0381095Y0071033D03*
X0391895Y0071633D03*
X0374795Y0061133D03*
X0378695Y0056633D03*
X0368495Y0056633D03*
X0364295Y0056633D03*
X0368495Y0051833D03*
X0380195Y0049733D03*
X0347495Y0065633D03*
X0342095Y0069533D03*
X0334295Y0073133D03*
X0339695Y0075233D03*
X0345395Y0076133D03*
X0323495Y0065333D03*
X0321095Y0068033D03*
X0318395Y0062933D03*
X0315995Y0060533D03*
X0310595Y0060533D03*
X0308495Y0057833D03*
X0312095Y0054533D03*
X0317795Y0055433D03*
X0321395Y0057833D03*
X0330395Y0053033D03*
X0332795Y0055433D03*
X0335195Y0057833D03*
X0333995Y0063233D03*
X0339095Y0063233D03*
X0321995Y0072833D03*
X0312995Y0078533D03*
X0306395Y0077333D03*
X0302495Y0073433D03*
X0299195Y0070133D03*
X0296795Y0067733D03*
X0287495Y0069833D03*
X0286895Y0075233D03*
X0291695Y0077633D03*
X0291395Y0082433D03*
X0276695Y0092033D03*
X0273395Y0092033D03*
X0249995Y0073733D03*
X0297995Y0061733D03*
X0311195Y0051233D03*
X0311795Y0045233D03*
X0326795Y0048233D03*
X0342995Y0045833D03*
X0380795Y0104033D03*
M02*
