%
M48
M72
T01C0.0130
T02C0.0335
T03C0.0374
T04C0.0400
T05C0.0492
T06C0.0551
T07C0.1260
%
T01
X13120Y5843
X13240Y6173
X15040Y5783
X16930Y4583
X18460Y5783
X18610Y6263
X19480Y6983
X21820Y6953
X22060Y6713
X23380Y5873
X23380Y5393
X24700Y6203
X25840Y6113
X26860Y6473
X26170Y7073
X25000Y7373
X26650Y7913
X26560Y8243
X25690Y8303
X24910Y8303
X24070Y8933
X23110Y9503
X20590Y8393
X22180Y8093
X22810Y8123
X23200Y8183
X26110Y9563
X27340Y9833
X27790Y10043
X27910Y10613
X29380Y10103
X30730Y9593
X29620Y9233
X30520Y8903
X31900Y8963
X32290Y8483
X33010Y8093
X33250Y8333
X34540Y8873
X34780Y9113
X34480Y9593
X32920Y9923
X32560Y10913
X36670Y9323
X36640Y8633
X38140Y8993
X38140Y9323
X38500Y9593
X39370Y9923
X40090Y9833
X40150Y10403
X40720Y9593
X42520Y8903
X42790Y8033
X42550Y7793
X42910Y7163
X42070Y7163
X40960Y8093
X40390Y8363
X38230Y8453
X38110Y7103
X39190Y7163
X37480Y6113
X37870Y5663
X36850Y5663
X36430Y5663
X36850Y5183
X38020Y4973
X34750Y6563
X34210Y6953
X33430Y7313
X33970Y7523
X34540Y7613
X32350Y6533
X32110Y6803
X31840Y6293
X31600Y6053
X31060Y6053
X30850Y5783
X31210Y5453
X31780Y5543
X32140Y5783
X33040Y5303
X33280Y5543
X33520Y5783
X33400Y6323
X33910Y6323
X32200Y7283
X31300Y7853
X30640Y7733
X30250Y7343
X29920Y7013
X29680Y6773
X28750Y6983
X28690Y7523
X29170Y7763
X29140Y8243
X27670Y9203
X27340Y9203
X27370Y7313
X29800Y6173
X31120Y5123
X31180Y4523
X32680Y4823
X34300Y4583
X38080Y10403
X18730Y10403
X18730Y10073
X13450Y10133
X11050Y10673
X10810Y9743
X7900Y8513
X6790Y8753
X5620Y8993
X7420Y9773
X6820Y10343
X6220Y10313
T02
X4941Y9981
X4941Y8485
X22431Y8965
X22431Y10146
T03
X13318Y8416
T04
X10483Y10436
X9483Y10436
X30231Y10518
X31231Y10518
X32231Y10518
X32231Y9518
X31231Y9518
X30231Y9518
X43147Y9680
X44147Y9680
X44147Y8680
X43147Y8680
X43147Y7680
X44147Y7680
X44147Y6680
X43147Y6680
X43147Y5680
X44147Y5680
X44147Y4680
X43147Y4680
X43147Y10680
X44147Y10680
T05
X16093Y7406
T06
X26700Y7291
X26700Y5291
T07
X35736Y7677
X10145Y7677
M30
